<svg id="Layer_1" data-name="Layer 1" xmlns="http://www.w3.org/2000/svg" xmlns:xlink="http://www.w3.org/1999/xlink" viewBox="0 0 638.58 424.89"><defs><style>.cls-1,.cls-10,.cls-13,.cls-17,.cls-19,.cls-2,.cls-20,.cls-21,.cls-5,.cls-6,.cls-7,.cls-8{fill:none;}.cls-2{stroke:#1c1c1b;stroke-width:0.3px;}.cls-3{fill:#1c1c1b;}.cls-4{clip-path:url(#clip-path);}.cls-10,.cls-5,.cls-7{stroke:#00f2e7;}.cls-10,.cls-13,.cls-17,.cls-19,.cls-20,.cls-21,.cls-5,.cls-7{stroke-miterlimit:10;}.cls-13,.cls-5{stroke-width:4px;}.cls-6,.cls-8{stroke:#212121;stroke-linejoin:round;}.cls-20,.cls-6,.cls-8{stroke-linecap:round;}.cls-6{stroke-width:1.5px;}.cls-7,.cls-8{stroke-width:3px;}.cls-9{fill:url(#USGS_20_Matorrales);}.cls-10{stroke-width:5px;}.cls-11{clip-path:url(#clip-path-2);}.cls-12{isolation:isolate;}.cls-13,.cls-17{stroke:#000;}.cls-14{fill:#ff9bcc;}.cls-15{fill:#00f2e7;}.cls-16{fill:#010101;}.cls-17{stroke-width:0.75px;}.cls-18{fill:#ffff8b;}.cls-19{stroke:#ffb3d2;}.cls-19,.cls-20,.cls-21{stroke-width:2px;}.cls-20{stroke:#0e0e0e;}.cls-21{stroke:#ed7aff;}.cls-22{fill:url(#Aleatorio_V);}.cls-23{fill:#ed7aff;}</style><clipPath id="clip-path" transform="translate(-6.37 -26.01)"><rect id="SVGID" class="cls-1" x="12.06" y="23.49" width="622.94" height="441.51"/></clipPath><pattern id="USGS_20_Matorrales" data-name="USGS 20 Matorrales" width="72" height="72" patternTransform="matrix(0.96, -0.97, 0.97, 0.96, -209.33, 38.81)" patternUnits="userSpaceOnUse" viewBox="0 0 72 72"><rect class="cls-1" width="72" height="72"/><path class="cls-3" d="M17,74.55a1.3,1.3,0,0,1-.92-2.22,1.36,1.36,0,0,1,1.84,0,1.3,1.3,0,0,1,0,1.84A1.3,1.3,0,0,1,17,74.55Z"/><path class="cls-3" d="M27.75,74.55a1.3,1.3,0,0,1-.92-2.22,1.36,1.36,0,0,1,1.84,0,1.3,1.3,0,0,1-.92,2.22Z"/><path class="cls-3" d="M23.25,7.05a1.34,1.34,0,0,1-.92-.38,1.3,1.3,0,0,1,0-1.84,1.36,1.36,0,0,1,1.84,0,1.32,1.32,0,0,1,.38.92,1.34,1.34,0,0,1-.38.92A1.32,1.32,0,0,1,23.25,7.05Z"/><path class="cls-3" d="M14.5,9.05a1.3,1.3,0,0,1-.92-2.22,1.36,1.36,0,0,1,1.84,0,1.34,1.34,0,0,1,.38.92,1.32,1.32,0,0,1-.38.92A1.3,1.3,0,0,1,14.5,9.05Z"/><path class="cls-3" d="M14.75,4.8a1.34,1.34,0,0,1-.92-.38,1.3,1.3,0,0,1,0-1.84,1.35,1.35,0,0,1,1.84,0,1.34,1.34,0,0,1,.38.92,1.3,1.3,0,0,1-1.3,1.3Z"/><path class="cls-3" d="M17.75,8.8a1.3,1.3,0,0,1-.92-2.22,1.36,1.36,0,0,1,1.84,0,1.3,1.3,0,0,1-.92,2.22Z"/><path class="cls-3" d="M20,5.3a1.34,1.34,0,0,1-.92-.38,1.3,1.3,0,0,1,0-1.84,1.36,1.36,0,0,1,1.84,0A1.3,1.3,0,0,1,20,5.3Z"/><path class="cls-3" d="M29,6.3a1.34,1.34,0,0,1-.92-.38,1.3,1.3,0,0,1,0-1.84,1.36,1.36,0,0,1,1.84,0A1.3,1.3,0,0,1,29,6.3Z"/><path class="cls-3" d="M25,4.55a1.34,1.34,0,0,1-.92-.38,1.3,1.3,0,0,1,0-1.84,1.35,1.35,0,0,1,1.84,0A1.3,1.3,0,0,1,25,4.55Z"/><path class="cls-3" d="M17,2.55a1.32,1.32,0,0,1-.92-.38,1.32,1.32,0,0,1-.38-.92,1.32,1.32,0,0,1,.38-.92,1.36,1.36,0,0,1,1.84,0,1.32,1.32,0,0,1,.38.92,1.32,1.32,0,0,1-.38.92A1.3,1.3,0,0,1,17,2.55Z"/><path class="cls-3" d="M27.75,2.55a1.34,1.34,0,0,1-.92-.38,1.34,1.34,0,0,1-.38-.92,1.34,1.34,0,0,1,.38-.92,1.36,1.36,0,0,1,1.84,0,1.32,1.32,0,0,1,.38.92,1.32,1.32,0,0,1-.38.92A1.32,1.32,0,0,1,27.75,2.55Z"/><path class="cls-3" d="M31.75,3.55a1.34,1.34,0,0,1-.92-.38,1.3,1.3,0,0,1,0-1.84,1.36,1.36,0,0,1,1.84,0,1.3,1.3,0,0,1,0,1.84A1.32,1.32,0,0,1,31.75,3.55Z"/><path class="cls-3" d="M29,6.3a1.34,1.34,0,0,1-.92-.38,1.3,1.3,0,0,1,0-1.84,1.36,1.36,0,0,1,1.84,0A1.3,1.3,0,0,1,29,6.3Z"/><path class="cls-3" d="M28.25,9.05a1.3,1.3,0,0,1-.92-2.22,1.35,1.35,0,0,1,1.84,0,1.3,1.3,0,0,1-.92,2.22Z"/><path class="cls-3" d="M26.25,12.05a1.3,1.3,0,0,1-.92-2.22,1.36,1.36,0,0,1,1.84,0,1.3,1.3,0,0,1,0,1.84A1.32,1.32,0,0,1,26.25,12.05Z"/><path class="cls-3" d="M22.25,10.3a1.34,1.34,0,0,1-.92-.38,1.3,1.3,0,0,1,0-1.84,1.36,1.36,0,0,1,1.84,0,1.3,1.3,0,0,1-.92,2.22Z"/><path class="cls-3" d="M22,13.8a1.34,1.34,0,0,1-.92-.38,1.3,1.3,0,0,1,0-1.84,1.36,1.36,0,0,1,1.84,0A1.3,1.3,0,0,1,22,13.8Z"/><path class="cls-3" d="M17,12.8a1.34,1.34,0,0,1-.92-.38,1.3,1.3,0,0,1,0-1.84,1.36,1.36,0,0,1,1.84,0A1.3,1.3,0,0,1,17,12.8Z"/><path class="cls-3" d="M20.25,16.05a1.34,1.34,0,0,1-.92-.38,1.3,1.3,0,0,1,0-1.84,1.36,1.36,0,0,1,1.84,0,1.3,1.3,0,0,1-.92,2.22Z"/><path class="cls-3" d="M22.75,19.8a1.34,1.34,0,0,1-.92-.38,1.3,1.3,0,0,1,0-1.84,1.36,1.36,0,0,1,1.84,0,1.3,1.3,0,0,1-.92,2.22Z"/><path class="cls-3" d="M25.5,20.55a1.3,1.3,0,0,1-1.3-1.3,1.34,1.34,0,0,1,.38-.92,1.36,1.36,0,0,1,1.84,0,1.34,1.34,0,0,1,.38.92,1.3,1.3,0,0,1-1.3,1.3Z"/><path class="cls-3" d="M28.5,18.8a1.3,1.3,0,0,1-.92-2.22,1.36,1.36,0,0,1,1.84,0,1.3,1.3,0,0,1,0,1.84A1.3,1.3,0,0,1,28.5,18.8Z"/><path class="cls-3" d="M28,15.55a1.3,1.3,0,0,1-.92-2.22,1.36,1.36,0,0,1,1.84,0A1.3,1.3,0,0,1,28,15.55Z"/><path class="cls-3" d="M30,13.3a1.3,1.3,0,0,1-.92-2.22,1.36,1.36,0,0,1,1.84,0,1.3,1.3,0,0,1,0,1.84A1.3,1.3,0,0,1,30,13.3Z"/><path class="cls-3" d="M34.25,13.3a1.3,1.3,0,0,1-.92-2.22,1.36,1.36,0,0,1,1.84,0,1.3,1.3,0,0,1-.92,2.22Z"/><path class="cls-3" d="M32.5,18.05a1.34,1.34,0,0,1-.92-.38,1.3,1.3,0,0,1,0-1.84,1.35,1.35,0,0,1,1.84,0,1.3,1.3,0,0,1-.92,2.22Z"/><path class="cls-3" d="M34.75,21.55a1.3,1.3,0,0,1-.92-2.22,1.36,1.36,0,0,1,1.84,0,1.34,1.34,0,0,1,.38.92,1.3,1.3,0,0,1-1.3,1.3Z"/><path class="cls-3" d="M31.25,21.8a1.3,1.3,0,0,1-.92-2.22,1.36,1.36,0,0,1,1.84,0,1.3,1.3,0,0,1,0,1.84A1.3,1.3,0,0,1,31.25,21.8Z"/><path class="cls-3" d="M27.75,22.55a1.34,1.34,0,0,1-.92-.38,1.32,1.32,0,0,1-.38-.92,1.34,1.34,0,0,1,.38-.92,1.36,1.36,0,0,1,1.84,0,1.3,1.3,0,0,1-.92,2.22Z"/><path class="cls-3" d="M37.25,17.05a1.3,1.3,0,0,1-.92-2.22,1.36,1.36,0,0,1,1.84,0,1.3,1.3,0,0,1,0,1.84A1.32,1.32,0,0,1,37.25,17.05Z"/><path class="cls-3" d="M32,9.8a1.3,1.3,0,0,1-.92-2.22,1.36,1.36,0,0,1,1.84,0,1.3,1.3,0,0,1,0,1.84A1.3,1.3,0,0,1,32,9.8Z"/><path class="cls-3" d="M34,6.8a1.3,1.3,0,0,1-.92-2.22,1.36,1.36,0,0,1,1.84,0,1.3,1.3,0,0,1,0,1.84A1.3,1.3,0,0,1,34,6.8Z"/><path class="cls-3" d="M36.75,3.3A1.3,1.3,0,0,1,35.45,2a1.32,1.32,0,0,1,.38-.92,1.36,1.36,0,0,1,1.84,0,1.3,1.3,0,0,1,0,1.84A1.32,1.32,0,0,1,36.75,3.3Z"/><path class="cls-3" d="M37.5,6.55a1.3,1.3,0,0,1-.92-2.22,1.35,1.35,0,0,1,1.84,0,1.3,1.3,0,0,1,0,1.84A1.32,1.32,0,0,1,37.5,6.55Z"/><path class="cls-3" d="M37.25,9.55a1.34,1.34,0,0,1-.92-.38,1.3,1.3,0,0,1,0-1.84,1.36,1.36,0,0,1,1.84,0,1.3,1.3,0,0,1,0,1.84A1.32,1.32,0,0,1,37.25,9.55Z"/><path class="cls-3" d="M37.5,13.3a1.3,1.3,0,0,1-.92-2.22,1.36,1.36,0,0,1,1.84,0,1.3,1.3,0,0,1,0,1.84A1.32,1.32,0,0,1,37.5,13.3Z"/><path class="cls-3" d="M41,5.05a1.34,1.34,0,0,1-.92-.38,1.3,1.3,0,0,1,0-1.84,1.36,1.36,0,0,1,1.84,0A1.3,1.3,0,0,1,41,5.05Z"/><path class="cls-3" d="M41.75,8.8a1.34,1.34,0,0,1-.92-.38,1.3,1.3,0,0,1,0-1.84,1.36,1.36,0,0,1,1.84,0,1.3,1.3,0,0,1-.92,2.22Z"/><path class="cls-3" d="M41.25,12.8a1.34,1.34,0,0,1-.92-.38,1.3,1.3,0,0,1,0-1.84,1.35,1.35,0,0,1,1.84,0,1.32,1.32,0,0,1,.38.92,1.34,1.34,0,0,1-.38.92A1.32,1.32,0,0,1,41.25,12.8Z"/><path class="cls-3" d="M41.5,17.3a1.34,1.34,0,0,1-.92-.38,1.3,1.3,0,0,1,0-1.84,1.36,1.36,0,0,1,1.84,0,1.3,1.3,0,0,1-.92,2.22Z"/><path class="cls-3" d="M43,20.8a1.34,1.34,0,0,1-.92-.38,1.3,1.3,0,0,1,0-1.84,1.35,1.35,0,0,1,1.84,0A1.3,1.3,0,0,1,43,20.8Z"/><path class="cls-3" d="M38.25,20.55a1.34,1.34,0,0,1-.92-.38,1.3,1.3,0,0,1,0-1.84,1.36,1.36,0,0,1,1.84,0,1.3,1.3,0,0,1-.92,2.22Z"/><path class="cls-3" d="M39.5,25.05a1.34,1.34,0,0,1-.92-.38,1.3,1.3,0,0,1,0-1.84,1.36,1.36,0,0,1,1.84,0,1.3,1.3,0,0,1-.92,2.22Z"/><path class="cls-3" d="M35.25,24.8a1.34,1.34,0,0,1-.92-.38,1.3,1.3,0,0,1,0-1.84,1.36,1.36,0,0,1,1.84,0,1.3,1.3,0,0,1-.92,2.22Z"/><path class="cls-3" d="M47,22.3a1.3,1.3,0,0,1-.92-2.22,1.36,1.36,0,0,1,1.84,0,1.3,1.3,0,0,1,0,1.84A1.3,1.3,0,0,1,47,22.3Z"/><path class="cls-3" d="M46,18.8a1.34,1.34,0,0,1-.92-.38,1.3,1.3,0,0,1,0-1.84,1.36,1.36,0,0,1,1.84,0A1.3,1.3,0,0,1,46,18.8Z"/><path class="cls-3" d="M45,15.3a1.3,1.3,0,0,1-.92-2.22,1.36,1.36,0,0,1,1.84,0,1.3,1.3,0,0,1,0,1.84A1.3,1.3,0,0,1,45,15.3Z"/><path class="cls-3" d="M45.25,11.3a1.3,1.3,0,0,1-.92-2.22,1.36,1.36,0,0,1,1.84,0,1.3,1.3,0,0,1-.92,2.22Z"/><path class="cls-3" d="M45,7.05a1.34,1.34,0,0,1-.92-.38,1.3,1.3,0,0,1,0-1.84,1.36,1.36,0,0,1,1.84,0A1.3,1.3,0,0,1,45,7.05Z"/><path class="cls-3" d="M44.75,3.8a1.3,1.3,0,0,1-1.3-1.3,1.32,1.32,0,0,1,.38-.92,1.36,1.36,0,0,1,1.84,0,1.3,1.3,0,0,1,0,1.84A1.3,1.3,0,0,1,44.75,3.8Z"/><path class="cls-3" d="M49.75,2.8a1.34,1.34,0,0,1-.92-.38,1.3,1.3,0,0,1,0-1.84,1.36,1.36,0,0,1,1.84,0,1.3,1.3,0,0,1,0,1.84A1.32,1.32,0,0,1,49.75,2.8Z"/><path class="cls-3" d="M49,7.05a1.3,1.3,0,0,1-.92-2.22,1.36,1.36,0,0,1,1.84,0A1.3,1.3,0,0,1,49,7.05Z"/><path class="cls-3" d="M52.5,7.05a1.34,1.34,0,0,1-.92-.38,1.32,1.32,0,0,1-.38-.92,1.34,1.34,0,0,1,.38-.92,1.36,1.36,0,0,1,1.84,0,1.3,1.3,0,0,1-.92,2.22Z"/><path class="cls-3" d="M52.25,10.55a1.34,1.34,0,0,1-.92-.38A1.32,1.32,0,0,1,51,9.25a1.34,1.34,0,0,1,.38-.92,1.36,1.36,0,0,1,1.84,0,1.3,1.3,0,0,1,0,1.84A1.32,1.32,0,0,1,52.25,10.55Z"/><path class="cls-3" d="M48.5,10.3a1.34,1.34,0,0,1-.92-.38,1.3,1.3,0,0,1,0-1.84,1.36,1.36,0,0,1,1.84,0A1.32,1.32,0,0,1,49.8,9a1.3,1.3,0,0,1-.38.92A1.32,1.32,0,0,1,48.5,10.3Z"/><path class="cls-3" d="M48.75,14.8a1.34,1.34,0,0,1-.92-.38,1.3,1.3,0,0,1,0-1.84,1.36,1.36,0,0,1,1.84,0,1.3,1.3,0,0,1-.92,2.22Z"/><path class="cls-3" d="M52.25,14.8a1.34,1.34,0,0,1-.92-.38,1.3,1.3,0,0,1,0-1.84,1.36,1.36,0,0,1,1.84,0,1.28,1.28,0,0,1,.38.92,1.3,1.3,0,0,1-1.3,1.3Z"/><path class="cls-3" d="M49.5,18.3a1.34,1.34,0,0,1-.92-.38,1.3,1.3,0,0,1,0-1.84,1.36,1.36,0,0,1,1.84,0,1.3,1.3,0,0,1-.92,2.22Z"/><path class="cls-3" d="M51,22.55a1.34,1.34,0,0,1-.92-.38,1.32,1.32,0,0,1-.38-.92,1.34,1.34,0,0,1,.38-.92,1.36,1.36,0,0,1,1.84,0A1.3,1.3,0,0,1,51,22.55Z"/><path class="cls-3" d="M52.75,25.8a1.34,1.34,0,0,1-.92-.38,1.3,1.3,0,0,1,0-1.84,1.36,1.36,0,0,1,1.84,0,1.3,1.3,0,0,1-.92,2.22Z"/><path class="cls-3" d="M55.25,23.05a1.3,1.3,0,0,1-.92-2.22,1.36,1.36,0,0,1,1.84,0,1.3,1.3,0,0,1,0,1.84A1.3,1.3,0,0,1,55.25,23.05Z"/><path class="cls-3" d="M53.75,19.55a1.34,1.34,0,0,1-.92-.38,1.3,1.3,0,0,1,0-1.84,1.36,1.36,0,0,1,1.84,0,1.3,1.3,0,0,1-.92,2.22Z"/><path class="cls-3" d="M56,16.55a1.34,1.34,0,0,1-.92-.38,1.3,1.3,0,0,1,0-1.84,1.36,1.36,0,0,1,1.84,0A1.3,1.3,0,0,1,56,16.55Z"/><path class="cls-3" d="M56.25,12.3a1.3,1.3,0,0,1-.92-2.22,1.36,1.36,0,0,1,1.84,0,1.3,1.3,0,0,1-.92,2.22Z"/><path class="cls-3" d="M56.5,7.3a1.3,1.3,0,0,1-.92-2.22,1.36,1.36,0,0,1,1.84,0A1.3,1.3,0,0,1,56.5,7.3Z"/><path class="cls-3" d="M59.75,8.3a1.3,1.3,0,0,1-.92-2.22,1.36,1.36,0,0,1,1.84,0,1.3,1.3,0,0,1-.92,2.22Z"/><path class="cls-3" d="M58,3.8a1.3,1.3,0,0,1-1.3-1.3,1.32,1.32,0,0,1,.38-.92,1.36,1.36,0,0,1,1.84,0,1.3,1.3,0,0,1,0,1.84A1.3,1.3,0,0,1,58,3.8Z"/><path class="cls-3" d="M61.75,4.8a1.34,1.34,0,0,1-.92-.38,1.3,1.3,0,0,1,0-1.84,1.36,1.36,0,0,1,1.84,0,1.3,1.3,0,0,1-.92,2.22Z"/><path class="cls-3" d="M65,3.05a1.34,1.34,0,0,1-.92-.38,1.3,1.3,0,0,1,0-1.84,1.36,1.36,0,0,1,1.84,0,1.3,1.3,0,0,1,0,1.84A1.32,1.32,0,0,1,65,3.05Z"/><path class="cls-3" d="M67,5.05a1.3,1.3,0,0,1-.92-2.22,1.35,1.35,0,0,1,1.84,0A1.3,1.3,0,0,1,67,5.05Z"/><path class="cls-3" d="M63.5,8.05a1.34,1.34,0,0,1-.92-.38,1.3,1.3,0,0,1,0-1.84,1.36,1.36,0,0,1,1.84,0,1.3,1.3,0,0,1-.92,2.22Z"/><path class="cls-3" d="M62.75,11.8a1.34,1.34,0,0,1-.92-.38,1.32,1.32,0,0,1-.38-.92,1.34,1.34,0,0,1,.38-.92,1.36,1.36,0,0,1,1.84,0,1.3,1.3,0,0,1-.92,2.22Z"/><path class="cls-3" d="M60,14.05a1.34,1.34,0,0,1-.92-.38,1.3,1.3,0,0,1,0-1.84,1.36,1.36,0,0,1,1.84,0A1.3,1.3,0,0,1,60,14.05Z"/><path class="cls-3" d="M62.5,16.8a1.34,1.34,0,0,1-.92-.38,1.3,1.3,0,0,1,0-1.84,1.36,1.36,0,0,1,1.84,0,1.3,1.3,0,0,1-.92,2.22Z"/><path class="cls-3" d="M66.25,17.8a1.34,1.34,0,0,1-.92-.38,1.3,1.3,0,0,1,0-1.84,1.36,1.36,0,0,1,1.84,0,1.3,1.3,0,0,1-.92,2.22Z"/><path class="cls-3" d="M64.25,20.05a1.34,1.34,0,0,1-.92-.38,1.3,1.3,0,0,1,0-1.84,1.36,1.36,0,0,1,1.84,0,1.3,1.3,0,0,1-.92,2.22Z"/><path class="cls-3" d="M60.75,20.55a1.34,1.34,0,0,1-.92-.38,1.3,1.3,0,0,1,0-1.84,1.36,1.36,0,0,1,1.84,0,1.3,1.3,0,0,1-.92,2.22Z"/><path class="cls-3" d="M58,20.05a1.34,1.34,0,0,1-.92-.38,1.3,1.3,0,0,1,0-1.84,1.36,1.36,0,0,1,1.84,0A1.3,1.3,0,0,1,58,20.05Z"/><path class="cls-3" d="M59.75,24.3a1.32,1.32,0,0,1-.92-.38,1.3,1.3,0,0,1,0-1.84,1.36,1.36,0,0,1,1.84,0,1.3,1.3,0,0,1,0,1.84A1.3,1.3,0,0,1,59.75,24.3Z"/><path class="cls-3" d="M64.25,23.05a1.34,1.34,0,0,1-.92-.38,1.3,1.3,0,0,1,0-1.84,1.36,1.36,0,0,1,1.84,0,1.3,1.3,0,0,1-.92,2.22Z"/><path class="cls-3" d="M68.5,24.05a1.32,1.32,0,0,1-.92-.38,1.3,1.3,0,0,1,1.84-1.84,1.3,1.3,0,0,1-.92,2.22Z"/><path class="cls-3" d="M68.5,20.55a1.3,1.3,0,0,1-.92-2.22,1.35,1.35,0,0,1,1.84,0,1.3,1.3,0,0,1-.92,2.22Z"/><path class="cls-3" d="M65.5,13.8a1.34,1.34,0,0,1-.92-.38,1.3,1.3,0,0,1,0-1.84,1.36,1.36,0,0,1,1.84,0,1.3,1.3,0,0,1-.92,2.22Z"/><path class="cls-3" d="M66.25,10.05a1.34,1.34,0,0,1-.92-.38,1.3,1.3,0,0,1,0-1.84,1.35,1.35,0,0,1,1.84,0,1.3,1.3,0,0,1-.92,2.22Z"/><path class="cls-3" d="M69.75,8.05a1.34,1.34,0,0,1-.92-.38,1.32,1.32,0,0,1-.38-.92,1.3,1.3,0,0,1,2.22-.92,1.3,1.3,0,0,1-.92,2.22Z"/><path class="cls-3" d="M70.75,3.3a1.34,1.34,0,0,1-.92-.38A1.34,1.34,0,0,1,69.45,2a1.32,1.32,0,0,1,.38-.92,1.36,1.36,0,0,1,1.84,0,1.3,1.3,0,0,1,0,1.84A1.32,1.32,0,0,1,70.75,3.3Z"/><path class="cls-3" d="M69.75,14.55a1.3,1.3,0,0,1-.92-2.22,1.36,1.36,0,0,1,1.84,0,1.3,1.3,0,0,1-.92,2.22Z"/><path class="cls-3" d="M71.5,18.05a1.34,1.34,0,0,1-.92-.38,1.3,1.3,0,0,1,0-1.84,1.36,1.36,0,0,1,1.84,0,1.3,1.3,0,0,1-.92,2.22Z"/><path class="cls-3" d="M56.5,7.3a1.3,1.3,0,0,1-.92-2.22,1.36,1.36,0,0,1,1.84,0A1.3,1.3,0,0,1,56.5,7.3Z"/><path class="cls-3" d="M58,3.8a1.3,1.3,0,0,1-1.3-1.3,1.32,1.32,0,0,1,.38-.92,1.36,1.36,0,0,1,1.84,0,1.3,1.3,0,0,1,0,1.84A1.3,1.3,0,0,1,58,3.8Z"/><path class="cls-3" d="M54,4.55a1.3,1.3,0,0,1-.92-2.22,1.36,1.36,0,0,1,1.84,0A1.3,1.3,0,0,1,54,4.55Z"/><path class="cls-3" d="M24,24.05a1.34,1.34,0,0,1-.92-.38,1.3,1.3,0,0,1,0-1.84,1.36,1.36,0,0,1,1.84,0A1.3,1.3,0,0,1,24,24.05Z"/><path class="cls-3" d="M20,21.3a1.34,1.34,0,0,1-.92-.38A1.32,1.32,0,0,1,18.7,20a1.34,1.34,0,0,1,.38-.92,1.36,1.36,0,0,1,1.84,0,1.34,1.34,0,0,1,.38.92,1.32,1.32,0,0,1-.38.92A1.3,1.3,0,0,1,20,21.3Z"/><path class="cls-3" d="M16,22.3A1.3,1.3,0,0,1,14.7,21a1.34,1.34,0,0,1,.38-.92,1.36,1.36,0,0,1,1.84,0,1.34,1.34,0,0,1,.38.92A1.3,1.3,0,0,1,16,22.3Z"/><path class="cls-3" d="M17,18.3a1.34,1.34,0,0,1-.92-.38,1.3,1.3,0,0,1,0-1.84,1.36,1.36,0,0,1,1.84,0A1.3,1.3,0,0,1,17,18.3Z"/><path class="cls-3" d="M14.75,15.3a1.34,1.34,0,0,1-.92-.38,1.32,1.32,0,0,1-.38-.92,1.3,1.3,0,1,1,2.22.92A1.32,1.32,0,0,1,14.75,15.3Z"/><path class="cls-3" d="M12.5,12.55a1.34,1.34,0,0,1-.92-.38,1.32,1.32,0,0,1-.38-.92,1.34,1.34,0,0,1,.38-.92,1.36,1.36,0,0,1,1.84,0,1.3,1.3,0,0,1-.92,2.22Z"/><path class="cls-3" d="M12.5,18.8a1.3,1.3,0,0,1-.92-2.22,1.36,1.36,0,0,1,1.84,0,1.3,1.3,0,0,1,0,1.84A1.3,1.3,0,0,1,12.5,18.8Z"/><path class="cls-3" d="M16,22.3A1.3,1.3,0,0,1,14.7,21a1.34,1.34,0,0,1,.38-.92,1.36,1.36,0,0,1,1.84,0,1.34,1.34,0,0,1,.38.92A1.3,1.3,0,0,1,16,22.3Z"/><path class="cls-3" d="M18.5,24.55a1.34,1.34,0,0,1-.92-.38,1.3,1.3,0,0,1,0-1.84,1.35,1.35,0,0,1,1.84,0,1.32,1.32,0,0,1,.38.92,1.34,1.34,0,0,1-.38.92A1.32,1.32,0,0,1,18.5,24.55Z"/><path class="cls-3" d="M14,26.05a1.3,1.3,0,0,1-.92-2.22,1.35,1.35,0,0,1,1.84,0A1.3,1.3,0,0,1,14,26.05Z"/><path class="cls-3" d="M11.5,23.05a1.34,1.34,0,0,1-.92-.38,1.32,1.32,0,0,1-.38-.92,1.34,1.34,0,0,1,.38-.92,1.36,1.36,0,0,1,1.84,0,1.34,1.34,0,0,1,.38.92,1.3,1.3,0,0,1-1.3,1.3Z"/><path class="cls-3" d="M24,16.55a1.3,1.3,0,0,1-.92-2.22,1.36,1.36,0,0,1,1.84,0,1.3,1.3,0,0,1,0,1.84A1.3,1.3,0,0,1,24,16.55Z"/><path class="cls-3" d="M2,7.05A1.3,1.3,0,0,1,.7,5.75a1.34,1.34,0,0,1,.38-.92,1.35,1.35,0,0,1,1.84,0,1.34,1.34,0,0,1,.38.92A1.3,1.3,0,0,1,2,7.05Z"/><path class="cls-3" d="M3.25,16.55a1.3,1.3,0,0,1-.92-2.22,1.35,1.35,0,0,1,1.84,0,1.3,1.3,0,0,1-.92,2.22Z"/><path class="cls-3" d="M5.25,19.8a1.3,1.3,0,0,1-.92-2.22,1.35,1.35,0,0,1,1.84,0,1.29,1.29,0,0,1,.38.92,1.28,1.28,0,0,1-.38.92A1.32,1.32,0,0,1,5.25,19.8Z"/><path class="cls-3" d="M3.75,13.05a1.34,1.34,0,0,1-.92-.38,1.3,1.3,0,0,1,0-1.84,1.36,1.36,0,0,1,1.84,0,1.3,1.3,0,0,1-.92,2.22Z"/><path class="cls-3" d="M9,5.8a1.34,1.34,0,0,1-.92-.38,1.3,1.3,0,0,1,0-1.84,1.36,1.36,0,0,1,1.84,0A1.3,1.3,0,0,1,9,5.8Z"/><path class="cls-3" d="M5.75,6.3a1.34,1.34,0,0,1-.92-.38,1.3,1.3,0,0,1,0-1.84,1.36,1.36,0,0,1,1.84,0A1.32,1.32,0,0,1,7.05,5a1.34,1.34,0,0,1-.38.92A1.32,1.32,0,0,1,5.75,6.3Z"/><path class="cls-3" d="M6,9.55a1.34,1.34,0,0,1-.92-.38,1.3,1.3,0,0,1,0-1.84,1.3,1.3,0,0,1,2.22.92A1.3,1.3,0,0,1,6,9.55Z"/><path class="cls-3" d="M10.75,8.8a1.34,1.34,0,0,1-.92-.38,1.32,1.32,0,0,1-.38-.92,1.34,1.34,0,0,1,.38-.92,1.36,1.36,0,0,1,1.84,0,1.34,1.34,0,0,1,.38.92,1.3,1.3,0,0,1-1.3,1.3Z"/><path class="cls-3" d="M3.75,3.55a1.3,1.3,0,0,1-1.3-1.3,1.32,1.32,0,0,1,.38-.92,1.36,1.36,0,0,1,1.84,0,1.3,1.3,0,0,1,0,1.84A1.32,1.32,0,0,1,3.75,3.55Z"/><path class="cls-3" d="M7,14.3a1.34,1.34,0,0,1-.92-.38,1.3,1.3,0,0,1,0-1.84,1.36,1.36,0,0,1,1.84,0,1.3,1.3,0,0,1,0,1.84A1.32,1.32,0,0,1,7,14.3Z"/><path class="cls-3" d="M9.75,12.05a1.3,1.3,0,0,1-1.3-1.3,1.32,1.32,0,0,1,.38-.92,1.36,1.36,0,0,1,1.84,0,1.3,1.3,0,0,1-.92,2.22Z"/><path class="cls-3" d="M9.75,16.05a1.3,1.3,0,0,1-1.3-1.3,1.32,1.32,0,0,1,.38-.92,1.36,1.36,0,0,1,1.84,0,1.32,1.32,0,0,1,.38.92,1.34,1.34,0,0,1-.38.92A1.32,1.32,0,0,1,9.75,16.05Z"/><path class="cls-3" d="M12.5,18.8a1.3,1.3,0,0,1-.92-2.22,1.36,1.36,0,0,1,1.84,0,1.3,1.3,0,0,1,0,1.84A1.3,1.3,0,0,1,12.5,18.8Z"/><path class="cls-3" d="M8.25,20.55a1.34,1.34,0,0,1-.92-.38A1.32,1.32,0,0,1,7,19.25a1.34,1.34,0,0,1,.38-.92,1.36,1.36,0,0,1,1.84,0,1.34,1.34,0,0,1,.38.92,1.3,1.3,0,0,1-1.3,1.3Z"/><path class="cls-3" d="M5.75,26.05a1.34,1.34,0,0,1-.92-.38,1.3,1.3,0,0,1,0-1.84,1.36,1.36,0,0,1,1.84,0,1.32,1.32,0,0,1,.38.92,1.34,1.34,0,0,1-.38.92A1.32,1.32,0,0,1,5.75,26.05Z"/><path class="cls-3" d="M5,23.05a1.3,1.3,0,0,1-.92-2.22,1.36,1.36,0,0,1,1.84,0,1.3,1.3,0,0,1,0,1.84A1.32,1.32,0,0,1,5,23.05Z"/><path class="cls-3" d="M15,71.8a1.34,1.34,0,0,1-.92-.38,1.3,1.3,0,0,1,0-1.84,1.36,1.36,0,0,1,1.84,0,1.34,1.34,0,0,1,.38.92A1.3,1.3,0,0,1,15,71.8Z"/><path class="cls-3" d="M15,71.8a1.34,1.34,0,0,1-.92-.38,1.3,1.3,0,0,1,0-1.84,1.36,1.36,0,0,1,1.84,0,1.34,1.34,0,0,1,.38.92A1.3,1.3,0,0,1,15,71.8Z"/><path class="cls-3" d="M18.5,70.8a1.34,1.34,0,0,1-.92-.38,1.3,1.3,0,0,1,0-1.84,1.36,1.36,0,0,1,1.84,0,1.3,1.3,0,0,1-.92,2.22Z"/><path class="cls-3" d="M24,71.8a1.34,1.34,0,0,1-.92-.38,1.3,1.3,0,0,1,0-1.84,1.36,1.36,0,0,1,1.84,0,1.3,1.3,0,0,1,0,1.84A1.3,1.3,0,0,1,24,71.8Z"/><path class="cls-3" d="M29.25,71.3a1.3,1.3,0,0,1-.92-2.22,1.36,1.36,0,0,1,1.84,0,1.3,1.3,0,0,1,0,1.84A1.3,1.3,0,0,1,29.25,71.3Z"/><path class="cls-3" d="M32.75,71.8a1.34,1.34,0,0,1-.92-.38,1.3,1.3,0,0,1,0-1.84,1.36,1.36,0,0,1,1.84,0,1.32,1.32,0,0,1,.38.92,1.34,1.34,0,0,1-.38.92A1.32,1.32,0,0,1,32.75,71.8Z"/><path class="cls-3" d="M37.75,71.3a1.34,1.34,0,0,1-.92-.38,1.3,1.3,0,0,1,0-1.84,1.36,1.36,0,0,1,1.84,0,1.3,1.3,0,0,1-.92,2.22Z"/><path class="cls-3" d="M45,68.55a1.3,1.3,0,0,1-.92-2.22,1.36,1.36,0,0,1,1.84,0A1.3,1.3,0,0,1,45,68.55Z"/><path class="cls-3" d="M49.75,70.3a1.34,1.34,0,0,1-.92-.38,1.3,1.3,0,0,1,0-1.84,1.36,1.36,0,0,1,1.84,0,1.3,1.3,0,0,1-.92,2.22Z"/><path class="cls-3" d="M59.75,71.8a1.3,1.3,0,1,1,.92-2.22,1.3,1.3,0,0,1-.92,2.22Z"/><path class="cls-3" d="M67.75,72.55a1.3,1.3,0,0,1-.92-2.22,1.36,1.36,0,0,1,1.84,0,1.3,1.3,0,0,1,0,1.84A1.3,1.3,0,0,1,67.75,72.55Z"/><path class="cls-3" d="M55,73.55a1.3,1.3,0,0,1-.92-2.22,1.36,1.36,0,0,1,1.84,0A1.3,1.3,0,0,1,55,73.55Z"/><path class="cls-3" d="M53.75,69.8a1.3,1.3,0,0,1-.92-2.22,1.36,1.36,0,0,1,1.84,0,1.3,1.3,0,0,1-.92,2.22Z"/><path class="cls-3" d="M10.25,70.8a1.34,1.34,0,0,1-.92-.38,1.3,1.3,0,0,1,0-1.84,1.36,1.36,0,0,1,1.84,0,1.3,1.3,0,0,1-.92,2.22Z"/><path class="cls-3" d="M5.75,71.05a1.3,1.3,0,0,1-.92-2.22,1.3,1.3,0,0,1,2.22.92,1.3,1.3,0,0,1-1.3,1.3Z"/><path class="cls-3" d="M22,26.8a1.34,1.34,0,0,1-.92-.38,1.3,1.3,0,0,1,0-1.84,1.36,1.36,0,0,1,1.84,0,1.3,1.3,0,0,1,0,1.84A1.3,1.3,0,0,1,22,26.8Z"/><path class="cls-3" d="M26.5,27.8a1.34,1.34,0,0,1-.92-.38,1.3,1.3,0,0,1,0-1.84,1.36,1.36,0,0,1,1.84,0,1.34,1.34,0,0,1,.38.92,1.3,1.3,0,0,1-1.3,1.3Z"/><path class="cls-3" d="M30.25,25.8a1.34,1.34,0,0,1-.92-.38,1.3,1.3,0,0,1,0-1.84,1.36,1.36,0,0,1,1.84,0,1.3,1.3,0,0,1-.92,2.22Z"/><path class="cls-3" d="M29,29.8a1.3,1.3,0,0,1-.92-2.22,1.36,1.36,0,0,1,1.84,0,1.3,1.3,0,0,1,0,1.84A1.3,1.3,0,0,1,29,29.8Z"/><path class="cls-3" d="M26.25,31.8a1.34,1.34,0,0,1-.92-.38,1.3,1.3,0,0,1,0-1.84,1.35,1.35,0,0,1,1.84,0,1.3,1.3,0,0,1-.92,2.22Z"/><path class="cls-3" d="M22.75,31.05a1.3,1.3,0,0,1-.92-2.22,1.35,1.35,0,0,1,1.84,0,1.3,1.3,0,0,1,0,1.84A1.3,1.3,0,0,1,22.75,31.05Z"/><path class="cls-3" d="M19.5,31.8a1.34,1.34,0,0,1-.92-.38,1.3,1.3,0,0,1,0-1.84,1.35,1.35,0,0,1,1.84,0,1.3,1.3,0,0,1-.92,2.22Z"/><path class="cls-3" d="M18,28.05a1.3,1.3,0,0,1-.92-2.22,1.36,1.36,0,0,1,1.84,0A1.3,1.3,0,0,1,18,28.05Z"/><path class="cls-3" d="M16,30.55a1.3,1.3,0,0,1-.92-2.22,1.36,1.36,0,0,1,1.84,0,1.3,1.3,0,0,1,0,1.84A1.3,1.3,0,0,1,16,30.55Z"/><path class="cls-3" d="M12.75,29.3a1.34,1.34,0,0,1-.92-.38,1.3,1.3,0,0,1,0-1.84,1.3,1.3,0,0,1,2.22.92,1.3,1.3,0,0,1-1.3,1.3Z"/><path class="cls-3" d="M9.5,30.8a1.34,1.34,0,0,1-.92-.38,1.32,1.32,0,0,1-.38-.92,1.34,1.34,0,0,1,.38-.92,1.36,1.36,0,0,1,1.84,0,1.29,1.29,0,0,1,.38.92,1.28,1.28,0,0,1-.38.92A1.32,1.32,0,0,1,9.5,30.8Z"/><path class="cls-3" d="M8.5,34.05a1.34,1.34,0,0,1-.92-.38,1.3,1.3,0,0,1,0-1.84,1.36,1.36,0,0,1,1.84,0,1.3,1.3,0,0,1-.92,2.22Z"/><path class="cls-3" d="M10,38.3a1.34,1.34,0,0,1-.92-.38,1.3,1.3,0,0,1,0-1.84,1.36,1.36,0,0,1,1.84,0A1.3,1.3,0,0,1,10,38.3Z"/><path class="cls-3" d="M12.5,35.8a1.34,1.34,0,0,1-.92-.38,1.3,1.3,0,0,1,0-1.84,1.36,1.36,0,0,1,1.84,0,1.3,1.3,0,0,1-.92,2.22Z"/><path class="cls-3" d="M15.25,33.3a1.3,1.3,0,0,1-.92-2.22,1.36,1.36,0,0,1,1.84,0,1.3,1.3,0,0,1-.92,2.22Z"/><path class="cls-3" d="M19,35.55a1.34,1.34,0,0,1-.92-.38,1.3,1.3,0,0,1,0-1.84,1.36,1.36,0,0,1,1.84,0A1.3,1.3,0,0,1,19,35.55Z"/><path class="cls-3" d="M16,38.05a1.34,1.34,0,0,1-.92-.38,1.3,1.3,0,0,1,0-1.84,1.36,1.36,0,0,1,1.84,0A1.3,1.3,0,0,1,16,38.05Z"/><path class="cls-3" d="M13,40.8a1.34,1.34,0,0,1-.92-.38,1.3,1.3,0,0,1,0-1.84,1.36,1.36,0,0,1,1.84,0A1.3,1.3,0,0,1,13,40.8Z"/><path class="cls-3" d="M9.75,42.55a1.3,1.3,0,0,1-1.3-1.3,1.32,1.32,0,0,1,.38-.92,1.36,1.36,0,0,1,1.84,0,1.32,1.32,0,0,1,.38.92,1.34,1.34,0,0,1-.38.92A1.32,1.32,0,0,1,9.75,42.55Z"/><path class="cls-3" d="M10,38.3a1.34,1.34,0,0,1-.92-.38,1.3,1.3,0,0,1,0-1.84,1.36,1.36,0,0,1,1.84,0A1.3,1.3,0,0,1,10,38.3Z"/><path class="cls-3" d="M6.75,39.8a1.34,1.34,0,0,1-.92-.38,1.3,1.3,0,0,1,0-1.84,1.36,1.36,0,0,1,1.84,0,1.3,1.3,0,0,1-.92,2.22Z"/><path class="cls-3" d="M5.75,35.3a1.3,1.3,0,0,1-.92-2.22,1.36,1.36,0,0,1,1.84,0,1.34,1.34,0,0,1,.38.92,1.3,1.3,0,0,1-1.3,1.3Z"/><path class="cls-3" d="M5.5,30.05a1.34,1.34,0,0,1-.92-.38,1.3,1.3,0,0,1,0-1.84,1.36,1.36,0,0,1,1.84,0,1.3,1.3,0,0,1-.92,2.22Z"/><path class="cls-3" d="M2.5,32.05a1.34,1.34,0,0,1-.92-.38,1.3,1.3,0,0,1,0-1.84,1.36,1.36,0,0,1,1.84,0,1.3,1.3,0,0,1,0,1.84A1.32,1.32,0,0,1,2.5,32.05Z"/><path class="cls-3" d="M1.75,36.05a1.34,1.34,0,0,1-.92-.38,1.3,1.3,0,0,1,0-1.84,1.36,1.36,0,0,1,1.84,0,1.3,1.3,0,0,1-.92,2.22Z"/><path class="cls-3" d="M1.75,27.55a1.34,1.34,0,0,1-.92-.38,1.3,1.3,0,0,1,0-1.84,1.36,1.36,0,0,1,1.84,0,1.3,1.3,0,0,1-.92,2.22Z"/><path class="cls-3" d="M3,39.55a1.3,1.3,0,0,1-.92-2.22,1.35,1.35,0,0,1,1.84,0A1.3,1.3,0,0,1,3,39.55Z"/><path class="cls-3" d="M3.5,43.3a1.34,1.34,0,0,1-.92-.38,1.3,1.3,0,0,1,0-1.84,1.36,1.36,0,0,1,1.84,0A1.3,1.3,0,0,1,3.5,43.3Z"/><path class="cls-3" d="M2.75,49.3a1.34,1.34,0,0,1-.92-.38A1.32,1.32,0,0,1,1.45,48a1.34,1.34,0,0,1,.38-.92,1.36,1.36,0,0,1,1.84,0,1.3,1.3,0,0,1-.92,2.22Z"/><path class="cls-3" d="M3.75,52.3a1.34,1.34,0,0,1-.92-.38A1.32,1.32,0,0,1,2.45,51a1.34,1.34,0,0,1,.38-.92,1.36,1.36,0,0,1,1.84,0,1.34,1.34,0,0,1,.38.92,1.3,1.3,0,0,1-1.3,1.3Z"/><path class="cls-3" d="M7.25,50.3a1.34,1.34,0,0,1-.92-.38,1.3,1.3,0,0,1,0-1.84,1.36,1.36,0,0,1,1.84,0,1.3,1.3,0,0,1-.92,2.22Z"/><path class="cls-3" d="M5.5,46.3a1.3,1.3,0,0,1-.92-2.22,1.36,1.36,0,0,1,1.84,0A1.34,1.34,0,0,1,6.8,45a1.3,1.3,0,0,1-1.3,1.3Z"/><path class="cls-3" d="M9.5,46.8a1.34,1.34,0,0,1-.92-.38,1.3,1.3,0,0,1,0-1.84,1.36,1.36,0,0,1,1.84,0,1.29,1.29,0,0,1,.38.92,1.3,1.3,0,0,1-1.3,1.3Z"/><path class="cls-3" d="M12,49.8a1.34,1.34,0,0,1-.92-.38,1.32,1.32,0,0,1-.38-.92,1.34,1.34,0,0,1,.38-.92,1.36,1.36,0,0,1,1.84,0,1.34,1.34,0,0,1,.38.92A1.3,1.3,0,0,1,12,49.8Z"/><path class="cls-3" d="M15,50.8a1.3,1.3,0,0,1-.92-2.22,1.36,1.36,0,0,1,1.84,0A1.3,1.3,0,0,1,15,50.8Z"/><path class="cls-3" d="M17.75,52.3a1.34,1.34,0,0,1-.92-.38,1.3,1.3,0,0,1,0-1.84,1.36,1.36,0,0,1,1.84,0,1.3,1.3,0,0,1-.92,2.22Z"/><path class="cls-3" d="M12.5,45.55a1.34,1.34,0,0,1-.92-.38,1.3,1.3,0,0,1,0-1.84,1.36,1.36,0,0,1,1.84,0,1.3,1.3,0,0,1-.92,2.22Z"/><path class="cls-3" d="M16,46.8a1.34,1.34,0,0,1-.92-.38,1.3,1.3,0,0,1,0-1.84,1.36,1.36,0,0,1,1.84,0A1.3,1.3,0,0,1,16,46.8Z"/><path class="cls-3" d="M19.25,47.8A1.3,1.3,0,0,1,18,46.5a1.34,1.34,0,0,1,.38-.92,1.36,1.36,0,0,1,1.84,0,1.34,1.34,0,0,1,.38.92,1.32,1.32,0,0,1-.38.92A1.3,1.3,0,0,1,19.25,47.8Z"/><path class="cls-3" d="M16.25,42.3a1.3,1.3,0,0,1-.92-2.22,1.36,1.36,0,0,1,1.84,0,1.3,1.3,0,0,1-.92,2.22Z"/><path class="cls-3" d="M20.25,43.3a1.34,1.34,0,0,1-.92-.38A1.32,1.32,0,0,1,19,42a1.34,1.34,0,0,1,.38-.92,1.36,1.36,0,0,1,1.84,0,1.34,1.34,0,0,1,.38.92,1.3,1.3,0,0,1-1.3,1.3Z"/><path class="cls-3" d="M21,39.05a1.34,1.34,0,0,1-.92-.38,1.3,1.3,0,0,1,0-1.84,1.36,1.36,0,0,1,1.84,0A1.3,1.3,0,0,1,21,39.05Z"/><path class="cls-3" d="M23.5,42.05a1.3,1.3,0,0,1-.92-2.22,1.35,1.35,0,0,1,1.84,0,1.3,1.3,0,0,1,0,1.84A1.3,1.3,0,0,1,23.5,42.05Z"/><path class="cls-3" d="M26.25,39.55a1.3,1.3,0,0,1-1.3-1.3,1.34,1.34,0,0,1,.38-.92,1.36,1.36,0,0,1,1.84,0,1.34,1.34,0,0,1,.38.92,1.3,1.3,0,0,1-1.3,1.3Z"/><path class="cls-3" d="M22.5,46.05a1.34,1.34,0,0,1-.92-.38,1.3,1.3,0,0,1,0-1.84,1.36,1.36,0,0,1,1.84,0,1.3,1.3,0,0,1-.92,2.22Z"/><path class="cls-3" d="M26,48.05a1.34,1.34,0,0,1-.92-.38,1.3,1.3,0,0,1,0-1.84,1.36,1.36,0,0,1,1.84,0A1.3,1.3,0,0,1,26,48.05Z"/><path class="cls-3" d="M26,52.05a1.3,1.3,0,0,1-.92-2.22,1.36,1.36,0,0,1,1.84,0A1.3,1.3,0,0,1,26,52.05Z"/><path class="cls-3" d="M22,50.3a1.3,1.3,0,0,1-.92-2.22,1.36,1.36,0,0,1,1.84,0,1.34,1.34,0,0,1,.38.92,1.32,1.32,0,0,1-.38.92A1.3,1.3,0,0,1,22,50.3Z"/><path class="cls-3" d="M29.5,49.05a1.34,1.34,0,0,1-.92-.38,1.3,1.3,0,0,1,0-1.84,1.36,1.36,0,0,1,1.84,0,1.3,1.3,0,0,1,0,1.84A1.3,1.3,0,0,1,29.5,49.05Z"/><path class="cls-3" d="M31.5,45.8a1.3,1.3,0,0,1-.92-2.22,1.36,1.36,0,0,1,1.84,0,1.29,1.29,0,0,1,.38.92,1.3,1.3,0,0,1-1.3,1.3Z"/><path class="cls-3" d="M30.25,41.8a1.3,1.3,0,0,1-.92-2.22,1.36,1.36,0,0,1,1.84,0,1.3,1.3,0,0,1-.92,2.22Z"/><path class="cls-3" d="M30.25,37.8a1.34,1.34,0,0,1-.92-.38,1.3,1.3,0,0,1,0-1.84,1.36,1.36,0,0,1,1.84,0,1.3,1.3,0,0,1-.92,2.22Z"/><path class="cls-3" d="M27,36.05a1.34,1.34,0,0,1-.92-.38,1.3,1.3,0,0,1,0-1.84,1.36,1.36,0,0,1,1.84,0A1.3,1.3,0,0,1,27,36.05Z"/><path class="cls-3" d="M23.5,36.05a1.3,1.3,0,0,1-.92-2.22,1.36,1.36,0,0,1,1.84,0,1.3,1.3,0,0,1,0,1.84A1.3,1.3,0,0,1,23.5,36.05Z"/><path class="cls-3" d="M30,32.55a1.34,1.34,0,0,1-.92-.38,1.3,1.3,0,0,1,0-1.84,1.36,1.36,0,0,1,1.84,0,1.34,1.34,0,0,1,.38.92,1.3,1.3,0,0,1-1.3,1.3Z"/><path class="cls-3" d="M33,35.3a1.34,1.34,0,0,1-.92-.38A1.32,1.32,0,0,1,31.7,34a1.34,1.34,0,0,1,.38-.92,1.36,1.36,0,0,1,1.84,0A1.3,1.3,0,0,1,33,35.3Z"/><path class="cls-3" d="M36,35.8a1.34,1.34,0,0,1-.92-.38,1.3,1.3,0,0,1,0-1.84,1.36,1.36,0,0,1,1.84,0A1.3,1.3,0,0,1,36,35.8Z"/><path class="cls-3" d="M33.5,39.8a1.34,1.34,0,0,1-.92-.38,1.32,1.32,0,0,1-.38-.92,1.34,1.34,0,0,1,.38-.92,1.36,1.36,0,0,1,1.84,0,1.3,1.3,0,0,1-.92,2.22Z"/><path class="cls-3" d="M34.5,43.55a1.3,1.3,0,0,1-.92-2.22,1.36,1.36,0,0,1,1.84,0,1.3,1.3,0,0,1,0,1.84A1.3,1.3,0,0,1,34.5,43.55Z"/><path class="cls-3" d="M31.5,45.8a1.3,1.3,0,0,1-.92-2.22,1.36,1.36,0,0,1,1.84,0,1.29,1.29,0,0,1,.38.92,1.3,1.3,0,0,1-1.3,1.3Z"/><path class="cls-3" d="M34.75,47.3a1.34,1.34,0,0,1-.92-.38,1.3,1.3,0,0,1,0-1.84,1.35,1.35,0,0,1,1.84,0,1.29,1.29,0,0,1,.38.92,1.34,1.34,0,0,1-.38.92A1.32,1.32,0,0,1,34.75,47.3Z"/><path class="cls-3" d="M37.75,51.55a1.3,1.3,0,0,1-.92-2.22,1.35,1.35,0,0,1,1.84,0,1.3,1.3,0,0,1-.92,2.22Z"/><path class="cls-3" d="M32.75,50.55a1.34,1.34,0,0,1-.92-.38,1.3,1.3,0,0,1,0-1.84,1.36,1.36,0,0,1,1.84,0,1.32,1.32,0,0,1,.38.92,1.34,1.34,0,0,1-.38.92A1.32,1.32,0,0,1,32.75,50.55Z"/><path class="cls-3" d="M38.5,47.55a1.34,1.34,0,0,1-.92-.38,1.3,1.3,0,0,1,0-1.84,1.36,1.36,0,0,1,1.84,0,1.3,1.3,0,0,1,0,1.84A1.3,1.3,0,0,1,38.5,47.55Z"/><path class="cls-3" d="M38.25,43.05a1.3,1.3,0,0,1-.92-2.22,1.36,1.36,0,0,1,1.84,0,1.3,1.3,0,0,1,0,1.84A1.3,1.3,0,0,1,38.25,43.05Z"/><path class="cls-3" d="M37.5,39.55a1.34,1.34,0,0,1-.92-.38,1.3,1.3,0,0,1,0-1.84,1.36,1.36,0,0,1,1.84,0,1.3,1.3,0,0,1,0,1.84A1.32,1.32,0,0,1,37.5,39.55Z"/><path class="cls-3" d="M33,35.3a1.34,1.34,0,0,1-.92-.38A1.32,1.32,0,0,1,31.7,34a1.34,1.34,0,0,1,.38-.92,1.36,1.36,0,0,1,1.84,0A1.3,1.3,0,0,1,33,35.3Z"/><path class="cls-3" d="M36,35.8a1.34,1.34,0,0,1-.92-.38,1.3,1.3,0,0,1,0-1.84,1.36,1.36,0,0,1,1.84,0A1.3,1.3,0,0,1,36,35.8Z"/><path class="cls-3" d="M33.75,32.05a1.34,1.34,0,0,1-.92-.38,1.3,1.3,0,0,1,0-1.84,1.36,1.36,0,0,1,1.84,0,1.3,1.3,0,0,1-.92,2.22Z"/><path class="cls-3" d="M33.25,28.05a1.3,1.3,0,0,1-.92-2.22,1.36,1.36,0,0,1,1.84,0,1.3,1.3,0,0,1,0,1.84A1.3,1.3,0,0,1,33.25,28.05Z"/><path class="cls-3" d="M37,28.3a1.34,1.34,0,0,1-.92-.38,1.3,1.3,0,0,1,0-1.84,1.36,1.36,0,0,1,1.84,0A1.3,1.3,0,0,1,37,28.3Z"/><path class="cls-3" d="M37.75,32.8a1.34,1.34,0,0,1-.92-.38,1.3,1.3,0,0,1,0-1.84,1.35,1.35,0,0,1,1.84,0,1.3,1.3,0,0,1-.92,2.22Z"/><path class="cls-3" d="M40,36.05a1.3,1.3,0,0,1-.92-2.22,1.36,1.36,0,0,1,1.84,0A1.3,1.3,0,0,1,40,36.05Z"/><path class="cls-3" d="M43,38.55a1.3,1.3,0,0,1-.92-2.22,1.36,1.36,0,0,1,1.84,0A1.3,1.3,0,0,1,43,38.55Z"/><path class="cls-3" d="M42.5,42.3a1.3,1.3,0,0,1-.92-2.22,1.35,1.35,0,0,1,1.84,0,1.3,1.3,0,0,1-.92,2.22Z"/><path class="cls-3" d="M41.75,46.05a1.34,1.34,0,0,1-.92-.38,1.3,1.3,0,0,1,0-1.84,1.35,1.35,0,0,1,1.84,0,1.3,1.3,0,0,1-.92,2.22Z"/><path class="cls-3" d="M43.75,49.55a1.34,1.34,0,0,1-.92-.38,1.3,1.3,0,0,1,0-1.84,1.35,1.35,0,0,1,1.84,0,1.3,1.3,0,0,1-.92,2.22Z"/><path class="cls-3" d="M46.75,46.55a1.3,1.3,0,0,1-.92-2.22,1.36,1.36,0,0,1,1.84,0,1.3,1.3,0,0,1-.92,2.22Z"/><path class="cls-3" d="M46.75,51.05a1.34,1.34,0,0,1-.92-.38,1.3,1.3,0,0,1,0-1.84,1.36,1.36,0,0,1,1.84,0,1.3,1.3,0,0,1-.92,2.22Z"/><path class="cls-3" d="M46.5,41.8a1.3,1.3,0,0,1-.92-2.22,1.36,1.36,0,0,1,1.84,0,1.3,1.3,0,0,1-.92,2.22Z"/><path class="cls-3" d="M47.75,38.8a1.34,1.34,0,0,1-.92-.38,1.3,1.3,0,0,1,0-1.84,1.36,1.36,0,0,1,1.84,0,1.3,1.3,0,0,1,0,1.84A1.3,1.3,0,0,1,47.75,38.8Z"/><path class="cls-3" d="M44.5,34.8a1.3,1.3,0,0,1-.92-2.22,1.36,1.36,0,0,1,1.84,0,1.3,1.3,0,0,1-.92,2.22Z"/><path class="cls-3" d="M42.75,32.3a1.34,1.34,0,0,1-.92-.38,1.32,1.32,0,0,1-.38-.92,1.3,1.3,0,1,1,2.6,0,1.3,1.3,0,0,1-1.3,1.3Z"/><path class="cls-3" d="M40.75,30.05a1.34,1.34,0,0,1-.92-.38,1.3,1.3,0,0,1,0-1.84,1.35,1.35,0,0,1,1.84,0,1.3,1.3,0,0,1,0,1.84A1.3,1.3,0,0,1,40.75,30.05Z"/><path class="cls-3" d="M44,28.05a1.3,1.3,0,0,1-.92-2.22,1.36,1.36,0,0,1,1.84,0A1.3,1.3,0,0,1,44,28.05Z"/><path class="cls-3" d="M43,24.05a1.34,1.34,0,0,1-.92-.38,1.3,1.3,0,0,1,0-1.84,1.36,1.36,0,0,1,1.84,0A1.3,1.3,0,0,1,43,24.05Z"/><path class="cls-3" d="M47.75,26.8a1.34,1.34,0,0,1-.92-.38,1.3,1.3,0,0,1,0-1.84,1.36,1.36,0,0,1,1.84,0,1.3,1.3,0,0,1-.92,2.22Z"/><path class="cls-3" d="M46.5,31.05a1.34,1.34,0,0,1-.92-.38,1.3,1.3,0,0,1,0-1.84,1.36,1.36,0,0,1,1.84,0,1.3,1.3,0,0,1-.92,2.22Z"/><path class="cls-3" d="M48.5,34.3a1.34,1.34,0,0,1-.92-.38,1.3,1.3,0,0,1,0-1.84,1.36,1.36,0,0,1,1.84,0,1.3,1.3,0,0,1-.92,2.22Z"/><path class="cls-3" d="M51.75,36.8a1.3,1.3,0,0,1-1.3-1.3,1.32,1.32,0,0,1,.38-.92,1.36,1.36,0,0,1,1.84,0,1.3,1.3,0,0,1-.92,2.22Z"/><path class="cls-3" d="M51.5,40.8a1.3,1.3,0,0,1-.92-2.22,1.36,1.36,0,0,1,1.84,0,1.3,1.3,0,0,1-.92,2.22Z"/><path class="cls-3" d="M50.5,44.8a1.34,1.34,0,0,1-.92-.38,1.32,1.32,0,0,1-.38-.92,1.3,1.3,0,1,1,2.6,0,1.3,1.3,0,0,1-1.3,1.3Z"/><path class="cls-3" d="M54.25,44.05a1.3,1.3,0,0,1-.92-2.22,1.36,1.36,0,0,1,1.84,0,1.3,1.3,0,0,1-.92,2.22Z"/><path class="cls-3" d="M54,48.55a1.3,1.3,0,0,1-.92-2.22,1.36,1.36,0,0,1,1.84,0A1.3,1.3,0,0,1,54,48.55Z"/><path class="cls-3" d="M56.75,51.55a1.34,1.34,0,0,1-.92-.38,1.3,1.3,0,0,1,0-1.84,1.35,1.35,0,0,1,1.84,0,1.3,1.3,0,0,1,0,1.84A1.3,1.3,0,0,1,56.75,51.55Z"/><path class="cls-3" d="M57.5,46.8a1.34,1.34,0,0,1-.92-.38,1.3,1.3,0,0,1,0-1.84,1.36,1.36,0,0,1,1.84,0,1.3,1.3,0,0,1-.92,2.22Z"/><path class="cls-3" d="M57.5,43.05a1.3,1.3,0,0,1-.92-2.22,1.36,1.36,0,0,1,1.84,0,1.3,1.3,0,0,1,0,1.84A1.3,1.3,0,0,1,57.5,43.05Z"/><path class="cls-3" d="M56.5,39.05a1.34,1.34,0,0,1-.92-.38,1.3,1.3,0,0,1,0-1.84,1.36,1.36,0,0,1,1.84,0,1.3,1.3,0,0,1-.92,2.22Z"/><path class="cls-3" d="M27.25,44.05a1.34,1.34,0,0,1-.92-.38,1.3,1.3,0,0,1,0-1.84,1.35,1.35,0,0,1,1.84,0,1.3,1.3,0,0,1-.92,2.22Z"/><path class="cls-3" d="M70.25,33.3a1.3,1.3,0,0,1-.92-2.22,1.35,1.35,0,0,1,1.84,0,1.3,1.3,0,0,1-.92,2.22Z"/><path class="cls-3" d="M71.25,29.05a1.34,1.34,0,0,1-.92-.38,1.3,1.3,0,0,1,0-1.84,1.36,1.36,0,0,1,1.84,0,1.3,1.3,0,0,1-.92,2.22Z"/><path class="cls-3" d="M68,27.3a1.34,1.34,0,0,1-.92-.38A1.32,1.32,0,0,1,66.7,26a1.3,1.3,0,0,1,2.22-.92A1.3,1.3,0,0,1,68,27.3Z"/><path class="cls-3" d="M68.25,36.55a1.3,1.3,0,0,1-.92-2.22,1.36,1.36,0,0,1,1.84,0,1.3,1.3,0,0,1,0,1.84A1.3,1.3,0,0,1,68.25,36.55Z"/><path class="cls-3" d="M68,40.3a1.34,1.34,0,0,1-.92-.38,1.3,1.3,0,0,1,0-1.84,1.35,1.35,0,0,1,1.84,0A1.3,1.3,0,0,1,68,40.3Z"/><path class="cls-3" d="M71.5,39.05a1.3,1.3,0,0,1-.92-2.22,1.36,1.36,0,0,1,1.84,0,1.3,1.3,0,0,1-.92,2.22Z"/><path class="cls-3" d="M70.75,43.05a1.34,1.34,0,0,1-.92-.38,1.32,1.32,0,0,1-.38-.92,1.34,1.34,0,0,1,.38-.92,1.36,1.36,0,0,1,1.84,0,1.3,1.3,0,0,1-.92,2.22Z"/><path class="cls-3" d="M70,50.55a1.34,1.34,0,0,1-.92-.38,1.3,1.3,0,0,1,0-1.84,1.35,1.35,0,0,1,1.84,0A1.3,1.3,0,0,1,70,50.55Z"/><path class="cls-3" d="M69,47.05a1.34,1.34,0,0,1-.92-.38,1.3,1.3,0,0,1,0-1.84,1.36,1.36,0,0,1,1.84,0A1.3,1.3,0,0,1,69,47.05Z"/><path class="cls-3" d="M66.5,31.05a1.3,1.3,0,0,1-.92-2.22,1.36,1.36,0,0,1,1.84,0,1.3,1.3,0,0,1-.92,2.22Z"/><path class="cls-3" d="M63,31.3a1.34,1.34,0,0,1-.92-.38,1.3,1.3,0,0,1,0-1.84,1.36,1.36,0,0,1,1.84,0,1.3,1.3,0,0,1,0,1.84A1.3,1.3,0,0,1,63,31.3Z"/><path class="cls-3" d="M64,26.55a1.34,1.34,0,0,1-.92-.38,1.3,1.3,0,0,1,0-1.84,1.36,1.36,0,0,1,1.84,0A1.3,1.3,0,0,1,64,26.55Z"/><path class="cls-3" d="M60.5,28.05a1.34,1.34,0,0,1-.92-.38,1.3,1.3,0,0,1,0-1.84,1.36,1.36,0,0,1,1.84,0,1.3,1.3,0,0,1,0,1.84A1.3,1.3,0,0,1,60.5,28.05Z"/><path class="cls-3" d="M56.75,27.05a1.34,1.34,0,0,1-.92-.38,1.3,1.3,0,0,1,0-1.84,1.36,1.36,0,0,1,1.84,0,1.32,1.32,0,0,1,.38.92,1.3,1.3,0,0,1-.38.92A1.32,1.32,0,0,1,56.75,27.05Z"/><path class="cls-3" d="M53.25,28.8a1.34,1.34,0,0,1-.92-.38,1.3,1.3,0,0,1,0-1.84,1.35,1.35,0,0,1,1.84,0,1.3,1.3,0,0,1,0,1.84A1.3,1.3,0,0,1,53.25,28.8Z"/><path class="cls-3" d="M50.25,29.8a1.34,1.34,0,0,1-.92-.38,1.3,1.3,0,0,1,0-1.84,1.36,1.36,0,0,1,1.84,0,1.3,1.3,0,0,1-.92,2.22Z"/><path class="cls-3" d="M52.5,33.55a1.34,1.34,0,0,1-.92-.38,1.3,1.3,0,0,1,0-1.84,1.36,1.36,0,0,1,1.84,0,1.3,1.3,0,0,1-.92,2.22Z"/><path class="cls-3" d="M56.75,31.05a1.34,1.34,0,0,1-.92-.38,1.3,1.3,0,0,1,0-1.84,1.36,1.36,0,0,1,1.84,0,1.32,1.32,0,0,1,.38.92,1.3,1.3,0,0,1-.38.92A1.32,1.32,0,0,1,56.75,31.05Z"/><path class="cls-3" d="M59.75,34.05a1.3,1.3,0,0,1-1.3-1.3,1.34,1.34,0,0,1,.38-.92,1.36,1.36,0,0,1,1.84,0,1.3,1.3,0,0,1-.92,2.22Z"/><path class="cls-3" d="M56,35.55a1.3,1.3,0,0,1-.92-2.22,1.35,1.35,0,0,1,1.84,0,1.3,1.3,0,0,1,0,1.84A1.3,1.3,0,0,1,56,35.55Z"/><path class="cls-3" d="M60,38.3a1.34,1.34,0,0,1-.92-.38,1.3,1.3,0,0,1,0-1.84,1.36,1.36,0,0,1,1.84,0A1.3,1.3,0,0,1,60,38.3Z"/><path class="cls-3" d="M64.5,34.8a1.31,1.31,0,0,1-1.3-1.3,1.32,1.32,0,0,1,.38-.92,1.35,1.35,0,0,1,1.84,0,1.3,1.3,0,0,1-.92,2.22Z"/><path class="cls-3" d="M64.25,38.05a1.34,1.34,0,0,1-.92-.38,1.3,1.3,0,0,1,0-1.84,1.36,1.36,0,0,1,1.84,0,1.3,1.3,0,0,1-.92,2.22Z"/><path class="cls-3" d="M61.5,42.3a1.34,1.34,0,0,1-.92-.38,1.3,1.3,0,0,1,0-1.84,1.36,1.36,0,0,1,1.84,0,1.3,1.3,0,0,1,0,1.84A1.3,1.3,0,0,1,61.5,42.3Z"/><path class="cls-3" d="M62.75,46.3a1.34,1.34,0,0,1-.92-.38,1.3,1.3,0,0,1,0-1.84,1.36,1.36,0,0,1,1.84,0,1.3,1.3,0,0,1,0,1.84A1.3,1.3,0,0,1,62.75,46.3Z"/><path class="cls-3" d="M57.5,46.8a1.34,1.34,0,0,1-.92-.38,1.3,1.3,0,0,1,0-1.84,1.36,1.36,0,0,1,1.84,0,1.3,1.3,0,0,1-.92,2.22Z"/><path class="cls-3" d="M60.25,49.05a1.32,1.32,0,0,1-.92-.38,1.34,1.34,0,0,1-.38-.92,1.32,1.32,0,0,1,.38-.92,1.36,1.36,0,0,1,1.84,0,1.32,1.32,0,0,1,.38.92,1.28,1.28,0,0,1-.38.92A1.32,1.32,0,0,1,60.25,49.05Z"/><path class="cls-3" d="M65.75,49.3a1.34,1.34,0,0,1-.92-.38,1.3,1.3,0,0,1,0-1.84,1.35,1.35,0,0,1,1.84,0,1.3,1.3,0,0,1,0,1.84A1.3,1.3,0,0,1,65.75,49.3Z"/><path class="cls-3" d="M65.5,43.55a1.34,1.34,0,0,1-.92-.38,1.3,1.3,0,0,1,0-1.84,1.36,1.36,0,0,1,1.84,0,1.3,1.3,0,0,1-.92,2.22Z"/><path class="cls-3" d="M50,49.05a1.34,1.34,0,0,1-.92-.38,1.32,1.32,0,0,1-.38-.92,1.34,1.34,0,0,1,.38-.92,1.36,1.36,0,0,1,1.84,0,1.3,1.3,0,0,1,0,1.84A1.32,1.32,0,0,1,50,49.05Z"/><path class="cls-3" d="M61.75,52.8a1.34,1.34,0,0,1-.92-.38,1.32,1.32,0,0,1-.38-.92,1.34,1.34,0,0,1,.38-.92,1.36,1.36,0,0,1,1.84,0,1.3,1.3,0,0,1-.92,2.22Z"/><path class="cls-3" d="M6.75,58.8a1.34,1.34,0,0,1-.92-.38,1.3,1.3,0,0,1,0-1.84,1.36,1.36,0,0,1,1.84,0,1.34,1.34,0,0,1,.38.92,1.3,1.3,0,0,1-1.3,1.3Z"/><path class="cls-3" d="M7.75,54.3a1.34,1.34,0,0,1-.92-.38,1.3,1.3,0,0,1,0-1.84,1.36,1.36,0,0,1,1.84,0,1.3,1.3,0,0,1-.92,2.22Z"/><path class="cls-3" d="M11,53.05a1.34,1.34,0,0,1-.92-.38,1.3,1.3,0,0,1,0-1.84,1.36,1.36,0,0,1,1.84,0A1.3,1.3,0,0,1,11,53.05Z"/><path class="cls-3" d="M10,57.05a1.34,1.34,0,0,1-.92-.38,1.3,1.3,0,0,1,0-1.84,1.36,1.36,0,0,1,1.84,0A1.3,1.3,0,0,1,10,57.05Z"/><path class="cls-3" d="M13.5,59.05a1.34,1.34,0,0,1-.92-.38,1.3,1.3,0,0,1,0-1.84,1.36,1.36,0,0,1,1.84,0,1.3,1.3,0,0,1-.92,2.22Z"/><path class="cls-3" d="M13.5,63.05a1.34,1.34,0,0,1-.92-.38,1.3,1.3,0,0,1,0-1.84,1.36,1.36,0,0,1,1.84,0,1.3,1.3,0,0,1-.92,2.22Z"/><path class="cls-3" d="M9.5,61.3a1.34,1.34,0,0,1-.92-.38,1.3,1.3,0,0,1,0-1.84,1.36,1.36,0,0,1,1.84,0,1.3,1.3,0,0,1,0,1.84A1.32,1.32,0,0,1,9.5,61.3Z"/><path class="cls-3" d="M17,60.05a1.3,1.3,0,0,1-.92-2.22,1.36,1.36,0,0,1,1.84,0,1.3,1.3,0,0,1,0,1.84A1.3,1.3,0,0,1,17,60.05Z"/><path class="cls-3" d="M17.25,63.05a1.3,1.3,0,0,1-1.3-1.3,1.34,1.34,0,0,1,.38-.92,1.36,1.36,0,0,1,1.84,0,1.34,1.34,0,0,1,.38.92,1.32,1.32,0,0,1-.38.92A1.3,1.3,0,0,1,17.25,63.05Z"/><path class="cls-3" d="M19,56.8a1.34,1.34,0,0,1-.92-.38,1.3,1.3,0,0,1,0-1.84,1.35,1.35,0,0,1,1.84,0A1.3,1.3,0,0,1,19,56.8Z"/><path class="cls-3" d="M22,54.55a1.34,1.34,0,0,1-.92-.38,1.3,1.3,0,0,1,0-1.84,1.36,1.36,0,0,1,1.84,0A1.3,1.3,0,0,1,22,54.55Z"/><path class="cls-3" d="M19,56.8a1.34,1.34,0,0,1-.92-.38,1.3,1.3,0,0,1,0-1.84,1.35,1.35,0,0,1,1.84,0A1.3,1.3,0,0,1,19,56.8Z"/><path class="cls-3" d="M22.25,58.3a1.34,1.34,0,0,1-.92-.38,1.3,1.3,0,0,1,0-1.84,1.36,1.36,0,0,1,1.84,0,1.3,1.3,0,0,1-.92,2.22Z"/><path class="cls-3" d="M25.25,62.55a1.34,1.34,0,0,1-.92-.38,1.3,1.3,0,0,1,0-1.84,1.36,1.36,0,0,1,1.84,0,1.29,1.29,0,0,1,.38.92,1.3,1.3,0,0,1-1.3,1.3Z"/><path class="cls-3" d="M20.25,61.55a1.34,1.34,0,0,1-.92-.38,1.3,1.3,0,0,1,0-1.84,1.36,1.36,0,0,1,1.84,0,1.3,1.3,0,0,1,0,1.84A1.3,1.3,0,0,1,20.25,61.55Z"/><path class="cls-3" d="M26,59.55a1.3,1.3,0,0,1-.92-2.22,1.36,1.36,0,0,1,1.84,0,1.3,1.3,0,0,1,0,1.84A1.3,1.3,0,0,1,26,59.55Z"/><path class="cls-3" d="M25.75,55.05a1.34,1.34,0,0,1-.92-.38,1.3,1.3,0,0,1,0-1.84,1.36,1.36,0,0,1,1.84,0,1.3,1.3,0,0,1-.92,2.22Z"/><path class="cls-3" d="M30,53.3a1.34,1.34,0,0,1-.92-.38,1.3,1.3,0,0,1,0-1.84,1.36,1.36,0,0,1,1.84,0,1.3,1.3,0,0,1,0,1.84A1.3,1.3,0,0,1,30,53.3Z"/><path class="cls-3" d="M29.25,56.3a1.3,1.3,0,0,1-.92-2.22,1.36,1.36,0,0,1,1.84,0,1.3,1.3,0,0,1,0,1.84A1.3,1.3,0,0,1,29.25,56.3Z"/><path class="cls-3" d="M30.5,60.05a1.3,1.3,0,0,1-1.3-1.3,1.3,1.3,0,1,1,2.6,0,1.3,1.3,0,0,1-1.3,1.3Z"/><path class="cls-3" d="M34.25,57.55a1.34,1.34,0,0,1-.92-.38,1.3,1.3,0,0,1,0-1.84,1.35,1.35,0,0,1,1.84,0,1.3,1.3,0,0,1-.92,2.22Z"/><path class="cls-3" d="M34,63.05a1.3,1.3,0,0,1-.92-2.22,1.36,1.36,0,0,1,1.84,0A1.3,1.3,0,0,1,34,63.05Z"/><path class="cls-3" d="M34.5,54.05a1.34,1.34,0,0,1-.92-.38,1.3,1.3,0,0,1,0-1.84,1.36,1.36,0,0,1,1.84,0,1.3,1.3,0,0,1-.92,2.22Z"/><path class="cls-3" d="M38,55.8a1.34,1.34,0,0,1-.92-.38,1.3,1.3,0,0,1,0-1.84,1.35,1.35,0,0,1,1.84,0A1.3,1.3,0,0,1,38,55.8Z"/><path class="cls-3" d="M14.75,55.05a1.3,1.3,0,0,1-1.3-1.3,1.34,1.34,0,0,1,.38-.92,1.36,1.36,0,0,1,1.84,0,1.34,1.34,0,0,1,.38.92,1.3,1.3,0,0,1-1.3,1.3Z"/><path class="cls-3" d="M37,59.8a1.34,1.34,0,0,1-.92-.38,1.3,1.3,0,0,1,0-1.84,1.35,1.35,0,0,1,1.84,0,1.28,1.28,0,0,1,.38.92A1.3,1.3,0,0,1,37,59.8Z"/><path class="cls-3" d="M3.5,65.3a1.3,1.3,0,0,1-.92-2.22,1.36,1.36,0,0,1,1.84,0A1.3,1.3,0,0,1,3.5,65.3Z"/><path class="cls-3" d="M2.5,69.3a1.3,1.3,0,0,1-.92-2.22,1.36,1.36,0,0,1,1.84,0A1.32,1.32,0,0,1,3.8,68a1.28,1.28,0,0,1-.38.92A1.32,1.32,0,0,1,2.5,69.3Z"/><path class="cls-3" d="M11.5,69.05a1.34,1.34,0,0,1-.92-.38,1.32,1.32,0,0,1-.38-.92,1.34,1.34,0,0,1,.38-.92,1.36,1.36,0,0,1,1.84,0,1.34,1.34,0,0,1,.38.92,1.3,1.3,0,0,1-1.3,1.3Z"/><path class="cls-3" d="M10.25,65.05a1.34,1.34,0,0,1-.92-.38,1.3,1.3,0,0,1,0-1.84,1.36,1.36,0,0,1,1.84,0,1.3,1.3,0,0,1-.92,2.22Z"/><path class="cls-3" d="M14.5,66.8a1.3,1.3,0,0,1-.92-2.22,1.36,1.36,0,0,1,1.84,0,1.34,1.34,0,0,1,.38.92,1.32,1.32,0,0,1-.38.92A1.3,1.3,0,0,1,14.5,66.8Z"/><path class="cls-3" d="M11.5,69.05a1.34,1.34,0,0,1-.92-.38,1.32,1.32,0,0,1-.38-.92,1.34,1.34,0,0,1,.38-.92,1.36,1.36,0,0,1,1.84,0,1.34,1.34,0,0,1,.38.92,1.3,1.3,0,0,1-1.3,1.3Z"/><path class="cls-3" d="M18.25,66.3a1.34,1.34,0,0,1-.92-.38A1.32,1.32,0,0,1,17,65a1.3,1.3,0,0,1,2.22-.92,1.3,1.3,0,0,1-.92,2.22Z"/><path class="cls-3" d="M22.5,65.55a1.34,1.34,0,0,1-.92-.38,1.32,1.32,0,0,1-.38-.92,1.3,1.3,0,1,1,2.6,0,1.3,1.3,0,0,1-1.3,1.3Z"/><path class="cls-3" d="M21.75,68.55a1.34,1.34,0,0,1-.92-.38,1.3,1.3,0,0,1,0-1.84,1.3,1.3,0,0,1,2.22.92,1.32,1.32,0,0,1-.38.92A1.3,1.3,0,0,1,21.75,68.55Z"/><path class="cls-3" d="M26.75,69.8a1.34,1.34,0,0,1-.92-.38,1.3,1.3,0,0,1,0-1.84,1.36,1.36,0,0,1,1.84,0,1.3,1.3,0,0,1-.92,2.22Z"/><path class="cls-3" d="M27,66.3a1.34,1.34,0,0,1-.92-.38,1.3,1.3,0,0,1,0-1.84,1.35,1.35,0,0,1,1.84,0A1.3,1.3,0,0,1,27,66.3Z"/><path class="cls-3" d="M31,68.8a1.34,1.34,0,0,1-.92-.38,1.3,1.3,0,0,1,0-1.84,1.35,1.35,0,0,1,1.84,0A1.3,1.3,0,0,1,31,68.8Z"/><path class="cls-3" d="M34.25,67.3a1.34,1.34,0,0,1-.92-.38,1.3,1.3,0,0,1,0-1.84,1.35,1.35,0,0,1,1.84,0,1.3,1.3,0,0,1-.92,2.22Z"/><path class="cls-3" d="M7.25,67.3a1.34,1.34,0,0,1-.92-.38,1.3,1.3,0,0,1,0-1.84,1.35,1.35,0,0,1,1.84,0,1.3,1.3,0,0,1-.92,2.22Z"/><path class="cls-3" d="M41.5,52.3a1.34,1.34,0,0,1-.92-.38,1.3,1.3,0,0,1,0-1.84,1.36,1.36,0,0,1,1.84,0,1.3,1.3,0,0,1-.92,2.22Z"/><path class="cls-3" d="M44,58.55a1.34,1.34,0,0,1-.92-.38,1.3,1.3,0,0,1,0-1.84,1.36,1.36,0,0,1,1.84,0A1.3,1.3,0,0,1,44,58.55Z"/><path class="cls-3" d="M44.5,54.55a1.3,1.3,0,0,1-.92-2.22,1.36,1.36,0,0,1,1.84,0,1.3,1.3,0,0,1-.92,2.22Z"/><path class="cls-3" d="M49.25,53.55a1.3,1.3,0,0,1-1.3-1.3,1.34,1.34,0,0,1,.38-.92,1.36,1.36,0,0,1,1.84,0,1.3,1.3,0,0,1,0,1.84A1.3,1.3,0,0,1,49.25,53.55Z"/><path class="cls-3" d="M50,58.3a1.3,1.3,0,0,1-.92-2.22,1.36,1.36,0,0,1,1.84,0A1.3,1.3,0,0,1,50,58.3Z"/><path class="cls-3" d="M47,61.05a1.34,1.34,0,0,1-.92-.38,1.3,1.3,0,0,1,0-1.84,1.36,1.36,0,0,1,1.84,0A1.3,1.3,0,0,1,47,61.05Z"/><path class="cls-3" d="M43.75,62.8a1.34,1.34,0,0,1-.92-.38,1.3,1.3,0,0,1,0-1.84,1.35,1.35,0,0,1,1.84,0,1.3,1.3,0,0,1-.92,2.22Z"/><path class="cls-3" d="M44,58.55a1.34,1.34,0,0,1-.92-.38,1.3,1.3,0,0,1,0-1.84,1.36,1.36,0,0,1,1.84,0A1.3,1.3,0,0,1,44,58.55Z"/><path class="cls-3" d="M41.75,66.05a1.34,1.34,0,0,1-.92-.38,1.3,1.3,0,0,1,0-1.84,1.36,1.36,0,0,1,1.84,0,1.3,1.3,0,0,1-.92,2.22Z"/><path class="cls-3" d="M46.5,65.8a1.34,1.34,0,0,1-.92-.38,1.3,1.3,0,0,1,0-1.84,1.36,1.36,0,0,1,1.84,0,1.3,1.3,0,0,1-.92,2.22Z"/><path class="cls-3" d="M50,67.05a1.34,1.34,0,0,1-.92-.38,1.3,1.3,0,0,1,0-1.84,1.3,1.3,0,0,1,1.84,1.84A1.32,1.32,0,0,1,50,67.05Z"/><path class="cls-3" d="M50.25,62.55a1.34,1.34,0,0,1-.92-.38,1.3,1.3,0,0,1,0-1.84,1.36,1.36,0,0,1,1.84,0,1.3,1.3,0,0,1-.92,2.22Z"/><path class="cls-3" d="M3.25,61.05a1.3,1.3,0,0,1-.92-2.22,1.35,1.35,0,0,1,1.84,0,1.34,1.34,0,0,1,.38.92,1.3,1.3,0,0,1-1.3,1.3Z"/><path class="cls-3" d="M3.75,56.3a1.3,1.3,0,0,1-.92-2.22,1.36,1.36,0,0,1,1.84,0,1.3,1.3,0,0,1-.92,2.22Z"/><path class="cls-3" d="M70,69.05a1.34,1.34,0,0,1-.92-.38,1.3,1.3,0,0,1,0-1.84,1.36,1.36,0,0,1,1.84,0A1.3,1.3,0,0,1,70,69.05Z"/><path class="cls-3" d="M66.75,67.55a1.3,1.3,0,0,1-.92-2.22,1.35,1.35,0,0,1,1.84,0,1.3,1.3,0,0,1,0,1.84A1.3,1.3,0,0,1,66.75,67.55Z"/><path class="cls-3" d="M72.75,66.55a1.34,1.34,0,0,1-.92-.38,1.3,1.3,0,0,1,0-1.84,1.36,1.36,0,0,1,1.84,0,1.3,1.3,0,0,1-.92,2.22Z"/><path class="cls-3" d="M69.5,53.8a1.34,1.34,0,0,1-.92-.38,1.3,1.3,0,0,1,0-1.84,1.36,1.36,0,0,1,1.84,0,1.3,1.3,0,0,1-.92,2.22Z"/><path class="cls-3" d="M69.25,59.05a1.3,1.3,0,0,1-.92-2.22,1.36,1.36,0,0,1,1.84,0,1.3,1.3,0,0,1-.92,2.22Z"/><path class="cls-3" d="M69.5,53.8a1.34,1.34,0,0,1-.92-.38,1.3,1.3,0,0,1,0-1.84,1.36,1.36,0,0,1,1.84,0,1.3,1.3,0,0,1-.92,2.22Z"/><path class="cls-3" d="M71,62.8a1.3,1.3,0,0,1-.92-2.22,1.36,1.36,0,0,1,1.84,0A1.3,1.3,0,0,1,71,62.8Z"/><path class="cls-3" d="M39.25,63.3a1.3,1.3,0,0,1-.92-2.22,1.35,1.35,0,0,1,1.84,0,1.3,1.3,0,0,1,0,1.84A1.3,1.3,0,0,1,39.25,63.3Z"/><path class="cls-3" d="M37.75,66.3a1.3,1.3,0,0,1-.92-2.22,1.35,1.35,0,0,1,1.84,0,1.3,1.3,0,0,1,0,1.84A1.3,1.3,0,0,1,37.75,66.3Z"/><path class="cls-3" d="M53,60.55a1.34,1.34,0,0,1-.92-.38,1.32,1.32,0,0,1-.38-.92,1.34,1.34,0,0,1,.38-.92,1.36,1.36,0,0,1,1.84,0,1.34,1.34,0,0,1,.38.92,1.32,1.32,0,0,1-.38.92A1.3,1.3,0,0,1,53,60.55Z"/><path class="cls-3" d="M56,61.05a1.3,1.3,0,0,1-.92-2.22,1.36,1.36,0,0,1,1.84,0A1.3,1.3,0,0,1,56,61.05Z"/><path class="cls-3" d="M53.5,65.05a1.34,1.34,0,0,1-.92-.38,1.3,1.3,0,0,1,0-1.84,1.36,1.36,0,0,1,1.84,0,1.3,1.3,0,0,1-.92,2.22Z"/><path class="cls-3" d="M57.5,64.8a1.34,1.34,0,0,1-.92-.38,1.3,1.3,0,0,1,0-1.84,1.36,1.36,0,0,1,1.84,0,1.3,1.3,0,0,1-.92,2.22Z"/><path class="cls-3" d="M53,60.55a1.34,1.34,0,0,1-.92-.38,1.32,1.32,0,0,1-.38-.92,1.34,1.34,0,0,1,.38-.92,1.36,1.36,0,0,1,1.84,0,1.34,1.34,0,0,1,.38.92,1.32,1.32,0,0,1-.38.92A1.3,1.3,0,0,1,53,60.55Z"/><path class="cls-3" d="M56,61.05a1.3,1.3,0,0,1-.92-2.22,1.36,1.36,0,0,1,1.84,0A1.3,1.3,0,0,1,56,61.05Z"/><path class="cls-3" d="M53.75,56.55a1.3,1.3,0,0,1-.92-2.22,1.36,1.36,0,0,1,1.84,0,1.3,1.3,0,0,1,0,1.84A1.3,1.3,0,0,1,53.75,56.55Z"/><path class="cls-3" d="M57.75,58.05a1.34,1.34,0,0,1-.92-.38,1.3,1.3,0,0,1,0-1.84,1.36,1.36,0,0,1,1.84,0,1.3,1.3,0,0,1-.92,2.22Z"/><path class="cls-3" d="M60,61.3a1.34,1.34,0,0,1-.92-.38,1.3,1.3,0,0,1,0-1.84,1.36,1.36,0,0,1,1.84,0A1.3,1.3,0,0,1,60,61.3Z"/><path class="cls-3" d="M62,63.55a1.3,1.3,0,0,1-1.3-1.3,1.34,1.34,0,0,1,.38-.92,1.36,1.36,0,0,1,1.84,0,1.3,1.3,0,0,1,0,1.84A1.3,1.3,0,0,1,62,63.55Z"/><path class="cls-3" d="M62.5,67.55a1.34,1.34,0,0,1-.92-.38,1.3,1.3,0,0,1,0-1.84,1.36,1.36,0,0,1,1.84,0,1.3,1.3,0,0,1-.92,2.22Z"/><path class="cls-3" d="M64.5,60.05a1.3,1.3,0,0,1-.92-2.22,1.35,1.35,0,0,1,1.84,0,1.3,1.3,0,0,1,0,1.84A1.3,1.3,0,0,1,64.5,60.05Z"/><path class="cls-3" d="M62.75,57.55a1.3,1.3,0,0,1-1.3-1.3,1.32,1.32,0,0,1,.38-.92,1.36,1.36,0,0,1,1.84,0,1.3,1.3,0,0,1-.92,2.22Z"/><path class="cls-3" d="M58.5,54.55a1.34,1.34,0,0,1-.92-.38,1.3,1.3,0,0,1,0-1.84,1.36,1.36,0,0,1,1.84,0,1.3,1.3,0,0,1-.92,2.22Z"/><path class="cls-3" d="M66.5,56.3a1.34,1.34,0,0,1-.92-.38,1.3,1.3,0,0,1,0-1.84,1.36,1.36,0,0,1,1.84,0,1.3,1.3,0,0,1-.92,2.22Z"/><path class="cls-3" d="M66.75,63.55a1.3,1.3,0,0,1-.92-2.22,1.35,1.35,0,0,1,1.84,0,1.3,1.3,0,0,1,0,1.84A1.3,1.3,0,0,1,66.75,63.55Z"/><path class="cls-3" d="M53.5,53.05a1.34,1.34,0,0,1-.92-.38,1.3,1.3,0,0,1,0-1.84,1.36,1.36,0,0,1,1.84,0,1.3,1.3,0,0,1-.92,2.22Z"/><path class="cls-3" d="M58.25,68.3a1.3,1.3,0,0,1-.92-2.22,1.36,1.36,0,0,1,1.84,0,1.3,1.3,0,0,1,0,1.84A1.3,1.3,0,0,1,58.25,68.3Z"/><path class="cls-3" d="M64.25,70.3a1.34,1.34,0,0,1-.92-.38,1.3,1.3,0,0,1,0-1.84,1.36,1.36,0,0,1,1.84,0,1.3,1.3,0,0,1-.92,2.22Z"/><path class="cls-3" d="M65.25,52.8a1.3,1.3,0,0,1-.92-2.22,1.36,1.36,0,0,1,1.84,0,1.3,1.3,0,0,1-.92,2.22Z"/><path class="cls-3" d="M9.5,26.3a1.34,1.34,0,0,1-.92-.38,1.3,1.3,0,0,1,0-1.84,1.36,1.36,0,0,1,1.84,0,1.28,1.28,0,0,1,.38.92,1.29,1.29,0,0,1-.38.92A1.32,1.32,0,0,1,9.5,26.3Z"/><path class="cls-3" d="M5.75,62.8a1.34,1.34,0,0,1-.92-.38,1.3,1.3,0,0,1,0-1.84,1.36,1.36,0,0,1,1.84,0,1.3,1.3,0,0,1,0,1.84A1.32,1.32,0,0,1,5.75,62.8Z"/><path class="cls-3" d="M30.25,63.8a1.34,1.34,0,0,1-.92-.38,1.3,1.3,0,0,1,0-1.84,1.36,1.36,0,0,1,1.84,0,1.3,1.3,0,0,1-.92,2.22Z"/><path class="cls-3" d="M40.5,58.3a1.34,1.34,0,0,1-.92-.38,1.3,1.3,0,0,1,0-1.84,1.36,1.36,0,0,1,1.84,0,1.3,1.3,0,0,1-.92,2.22Z"/><path class="cls-3" d="M47.25,56.8a1.3,1.3,0,0,1-.92-2.22,1.35,1.35,0,0,1,1.84,0,1.3,1.3,0,0,1-.92,2.22Z"/><path class="cls-3" d="M41,72.8a1.34,1.34,0,0,1-.92-.38,1.3,1.3,0,0,1,0-1.84,1.36,1.36,0,0,1,1.84,0A1.3,1.3,0,0,1,41,72.8Z"/><path class="cls-3" d="M11.5,74.05a1.34,1.34,0,0,1-.92-.38,1.3,1.3,0,0,1,0-1.84,1.36,1.36,0,0,1,1.84,0,1.3,1.3,0,0,1-.92,2.22Z"/><path class="cls-3" d="M21.25,73.8a1.34,1.34,0,0,1-.92-.38A1.32,1.32,0,0,1,20,72.5a1.34,1.34,0,0,1,.38-.92,1.36,1.36,0,0,1,1.84,0,1.3,1.3,0,0,1-.92,2.22Z"/><path class="cls-3" d="M17,74.55a1.3,1.3,0,0,1-.92-2.22,1.36,1.36,0,0,1,1.84,0,1.3,1.3,0,0,1,0,1.84A1.3,1.3,0,0,1,17,74.55Z"/><path class="cls-3" d="M27.75,74.55a1.3,1.3,0,0,1-.92-2.22,1.36,1.36,0,0,1,1.84,0,1.3,1.3,0,0,1,0,1.84A1.3,1.3,0,0,1,27.75,74.55Z"/><path class="cls-3" d="M55,73.55a1.3,1.3,0,0,1-.92-2.22,1.36,1.36,0,0,1,1.84,0A1.3,1.3,0,0,1,55,73.55Z"/><path class="cls-3" d="M7.75,74.05a1.34,1.34,0,0,1-.92-.38,1.3,1.3,0,0,1,0-1.84,1.36,1.36,0,0,1,1.84,0,1.32,1.32,0,0,1,.38.92,1.34,1.34,0,0,1-.38.92A1.32,1.32,0,0,1,7.75,74.05Z"/><path class="cls-3" d="M55,73.55a1.3,1.3,0,0,1-.92-2.22,1.36,1.36,0,0,1,1.84,0A1.3,1.3,0,0,1,55,73.55Z"/><path class="cls-3" d="M72.5,10.3A1.3,1.3,0,0,1,71.2,9a1.3,1.3,0,0,1,2.22-.92A1.32,1.32,0,0,1,73.8,9a1.3,1.3,0,0,1-.38.92A1.32,1.32,0,0,1,72.5,10.3Z"/><path class="cls-3" d="M72.75,13.55a1.34,1.34,0,0,1-.92-.38,1.3,1.3,0,0,1,0-1.84,1.35,1.35,0,0,1,1.84,0,1.3,1.3,0,0,1-.92,2.22Z"/><path class="cls-3" d="M73,20.8a1.3,1.3,0,0,1-.92-2.22,1.36,1.36,0,0,1,1.84,0A1.3,1.3,0,0,1,73,20.8Z"/><path class="cls-3" d="M72.25,24.05a1.3,1.3,0,0,1-.92-2.22,1.36,1.36,0,0,1,1.84,0,1.3,1.3,0,0,1-.92,2.22Z"/><path class="cls-3" d="M72.75,72.05a1.34,1.34,0,0,1-.92-.38,1.3,1.3,0,0,1,0-1.84,1.35,1.35,0,0,1,1.84,0,1.3,1.3,0,0,1-.92,2.22Z"/><path class="cls-3" d="M73.25,46.55a1.34,1.34,0,0,1-.92-.38,1.3,1.3,0,0,1,0-1.84,1.35,1.35,0,0,1,1.84,0,1.3,1.3,0,0,1-.92,2.22Z"/><path class="cls-3" d="M72.25,57.3a1.3,1.3,0,0,1-.92-2.22,1.36,1.36,0,0,1,1.84,0,1.3,1.3,0,0,1-.92,2.22Z"/><path class="cls-3" d="M73.25,53.3a1.3,1.3,0,0,1-.92-2.22,1.36,1.36,0,0,1,1.84,0,1.3,1.3,0,0,1-.92,2.22Z"/><path class="cls-3" d="M46.25,71.8a1.34,1.34,0,0,1-.92-.38A1.32,1.32,0,0,1,45,70.5a1.34,1.34,0,0,1,.38-.92,1.36,1.36,0,0,1,1.84,0,1.34,1.34,0,0,1,.38.92,1.3,1.3,0,0,1-1.3,1.3Z"/><path class="cls-3" d="M40.5,69.3a1.34,1.34,0,0,1-.92-.38,1.3,1.3,0,0,1,0-1.84,1.36,1.36,0,0,1,1.84,0,1.3,1.3,0,0,1-.92,2.22Z"/><path class="cls-3" d="M-1.25,3.3a1.34,1.34,0,0,1-.92-.38A1.34,1.34,0,0,1-2.55,2a1.32,1.32,0,0,1,.38-.92,1.36,1.36,0,0,1,1.84,0A1.32,1.32,0,0,1,.05,2a1.32,1.32,0,0,1-.38.92A1.32,1.32,0,0,1-1.25,3.3Z"/><path class="cls-3" d="M-.5,18.05a1.34,1.34,0,0,1-.92-.38,1.32,1.32,0,0,1-.38-.92,1.32,1.32,0,0,1,.38-.92,1.36,1.36,0,0,1,1.84,0,1.32,1.32,0,0,1,.38.92,1.32,1.32,0,0,1-.38.92A1.32,1.32,0,0,1-.5,18.05Z"/><path class="cls-3" d="M-.75,29.05a1.34,1.34,0,0,1-.92-.38A1.32,1.32,0,0,1-2,27.75a1.32,1.32,0,0,1,.38-.92,1.36,1.36,0,0,1,1.84,0,1.32,1.32,0,0,1,.38.92,1.32,1.32,0,0,1-.38.92A1.32,1.32,0,0,1-.75,29.05Z"/><path class="cls-3" d="M-.5,39.05a1.32,1.32,0,0,1-.92-.38,1.32,1.32,0,0,1-.38-.92,1.32,1.32,0,0,1,.38-.92,1.36,1.36,0,0,1,1.84,0,1.32,1.32,0,0,1,.38.92,1.32,1.32,0,0,1-.38.92A1.32,1.32,0,0,1-.5,39.05Z"/><path class="cls-3" d="M-1.25,43.05a1.34,1.34,0,0,1-.92-.38,1.32,1.32,0,0,1-.38-.92,1.34,1.34,0,0,1,.38-.92,1.36,1.36,0,0,1,1.84,0,1.32,1.32,0,0,1,.38.92,1.32,1.32,0,0,1-.38.92A1.32,1.32,0,0,1-1.25,43.05Z"/><path class="cls-3" d="M.75,66.55a1.34,1.34,0,0,1-.92-.38,1.3,1.3,0,0,1,0-1.84,1.36,1.36,0,0,1,1.84,0,1.3,1.3,0,0,1,0,1.84A1.32,1.32,0,0,1,.75,66.55Z"/><path class="cls-3" d="M-1,62.8a1.32,1.32,0,0,1-.92-.38,1.32,1.32,0,0,1-.38-.92,1.32,1.32,0,0,1,.38-.92,1.36,1.36,0,0,1,1.84,0,1.32,1.32,0,0,1,.38.92,1.32,1.32,0,0,1-.38.92A1.32,1.32,0,0,1-1,62.8Z"/><path class="cls-3" d="M.5,10.3a1.32,1.32,0,0,1-.92-.38A1.32,1.32,0,0,1-.8,9a1.34,1.34,0,0,1,.38-.92,1.34,1.34,0,0,1,1.84,0A1.32,1.32,0,0,1,1.8,9a1.3,1.3,0,0,1-.38.92A1.32,1.32,0,0,1,.5,10.3Z"/><path class="cls-3" d="M.75,13.55a1.34,1.34,0,0,1-.92-.38,1.3,1.3,0,0,1,0-1.84,1.35,1.35,0,0,1,1.84,0,1.3,1.3,0,0,1,0,1.84A1.32,1.32,0,0,1,.75,13.55Z"/><path class="cls-3" d="M1,20.8a1.32,1.32,0,0,1-.92-.38,1.3,1.3,0,0,1,0-1.84,1.36,1.36,0,0,1,1.84,0,1.3,1.3,0,0,1,0,1.84A1.32,1.32,0,0,1,1,20.8Z"/><path class="cls-3" d="M.25,24.05a1.32,1.32,0,0,1-.92-.38,1.3,1.3,0,0,1,0-1.84,1.36,1.36,0,0,1,1.84,0,1.3,1.3,0,0,1,0,1.84A1.32,1.32,0,0,1,.25,24.05Z"/><path class="cls-3" d="M.75,72.05a1.34,1.34,0,0,1-.92-.38,1.3,1.3,0,0,1,0-1.84,1.35,1.35,0,0,1,1.84,0,1.3,1.3,0,0,1,0,1.84A1.32,1.32,0,0,1,.75,72.05Z"/><path class="cls-3" d="M1.25,46.55a1.34,1.34,0,0,1-.92-.38,1.3,1.3,0,0,1,0-1.84,1.35,1.35,0,0,1,1.84,0,1.3,1.3,0,0,1,0,1.84A1.32,1.32,0,0,1,1.25,46.55Z"/><path class="cls-3" d="M.25,57.3a1.32,1.32,0,0,1-.92-.38,1.3,1.3,0,0,1,0-1.84,1.36,1.36,0,0,1,1.84,0,1.3,1.3,0,0,1,0,1.84A1.32,1.32,0,0,1,.25,57.3Z"/><path class="cls-3" d="M1.25,53.3a1.32,1.32,0,0,1-.92-.38,1.3,1.3,0,0,1,0-1.84,1.36,1.36,0,0,1,1.84,0,1.3,1.3,0,0,1,0,1.84A1.32,1.32,0,0,1,1.25,53.3Z"/><path class="cls-3" d="M67.75.55a1.32,1.32,0,0,1-.92-.38,1.32,1.32,0,0,1-.38-.92,1.32,1.32,0,0,1,.38-.92,1.36,1.36,0,0,1,1.84,0,1.32,1.32,0,0,1,.38.92,1.32,1.32,0,0,1-.38.92A1.3,1.3,0,0,1,67.75.55Z"/><path class="cls-3" d="M55,1.55a1.32,1.32,0,0,1-.92-.38A1.32,1.32,0,0,1,53.7.25a1.32,1.32,0,0,1,.38-.92,1.36,1.36,0,0,1,1.84,0,1.32,1.32,0,0,1,.38.92,1.32,1.32,0,0,1-.38.92A1.32,1.32,0,0,1,55,1.55Z"/><path class="cls-3" d="M41,.8a1.34,1.34,0,0,1-.92-.38A1.32,1.32,0,0,1,39.7-.5a1.32,1.32,0,0,1,.38-.92,1.36,1.36,0,0,1,1.84,0,1.32,1.32,0,0,1,.38.92,1.32,1.32,0,0,1-.38.92A1.32,1.32,0,0,1,41,.8Z"/><path class="cls-3" d="M11.5,2.05a1.34,1.34,0,0,1-.92-.38A1.32,1.32,0,0,1,10.2.75a1.32,1.32,0,0,1,.38-.92,1.36,1.36,0,0,1,1.84,0,1.32,1.32,0,0,1,.38.92,1.32,1.32,0,0,1-.38.92A1.32,1.32,0,0,1,11.5,2.05Z"/><path class="cls-3" d="M21.25,1.8a1.34,1.34,0,0,1-.92-.38A1.32,1.32,0,0,1,20,.5a1.34,1.34,0,0,1,.38-.92,1.36,1.36,0,0,1,1.84,0,1.32,1.32,0,0,1,.38.92,1.32,1.32,0,0,1-.38.92A1.32,1.32,0,0,1,21.25,1.8Z"/><path class="cls-3" d="M17,2.55a1.32,1.32,0,0,1-.92-.38,1.32,1.32,0,0,1-.38-.92,1.32,1.32,0,0,1,.38-.92,1.36,1.36,0,0,1,1.84,0,1.32,1.32,0,0,1,.38.92,1.32,1.32,0,0,1-.38.92A1.3,1.3,0,0,1,17,2.55Z"/><path class="cls-3" d="M27.75,2.55a1.32,1.32,0,0,1-.92-.38,1.32,1.32,0,0,1-.38-.92,1.32,1.32,0,0,1,.38-.92,1.36,1.36,0,0,1,1.84,0,1.32,1.32,0,0,1,.38.92,1.32,1.32,0,0,1-.38.92A1.3,1.3,0,0,1,27.75,2.55Z"/><path class="cls-3" d="M55,1.55a1.32,1.32,0,0,1-.92-.38A1.32,1.32,0,0,1,53.7.25a1.32,1.32,0,0,1,.38-.92,1.36,1.36,0,0,1,1.84,0,1.32,1.32,0,0,1,.38.92,1.32,1.32,0,0,1-.38.92A1.32,1.32,0,0,1,55,1.55Z"/><path class="cls-3" d="M7.75,2.05a1.34,1.34,0,0,1-.92-.38A1.32,1.32,0,0,1,6.45.75a1.32,1.32,0,0,1,.38-.92,1.36,1.36,0,0,1,1.84,0,1.32,1.32,0,0,1,.38.92,1.34,1.34,0,0,1-.38.92A1.32,1.32,0,0,1,7.75,2.05Z"/><path class="cls-3" d="M55,1.55a1.32,1.32,0,0,1-.92-.38A1.32,1.32,0,0,1,53.7.25a1.32,1.32,0,0,1,.38-.92,1.36,1.36,0,0,1,1.84,0,1.32,1.32,0,0,1,.38.92,1.32,1.32,0,0,1-.38.92A1.32,1.32,0,0,1,55,1.55Z"/><path class="cls-3" d="M72.75.05a1.34,1.34,0,0,1-.92-.38,1.32,1.32,0,0,1-.38-.92,1.32,1.32,0,0,1,.38-.92,1.35,1.35,0,0,1,1.84,0,1.32,1.32,0,0,1,.38.92,1.32,1.32,0,0,1-.38.92A1.32,1.32,0,0,1,72.75.05Z"/><path class="cls-3" d="M.75.05A1.34,1.34,0,0,1-.17-.33a1.32,1.32,0,0,1-.38-.92,1.32,1.32,0,0,1,.38-.92,1.35,1.35,0,0,1,1.84,0,1.32,1.32,0,0,1,.38.92,1.32,1.32,0,0,1-.38.92A1.32,1.32,0,0,1,.75.05Z"/></pattern><clipPath id="clip-path-2" transform="translate(-6.37 -26.01)"><ellipse id="SVGID-2" data-name="SVGID" class="cls-1" cx="364.09" cy="237.43" rx="52.82" ry="56.16"/></clipPath><pattern id="Aleatorio_V" data-name="Aleatorio V" width="72" height="72" patternTransform="matrix(0.56, 0.97, -0.97, 0.56, -83.31, 2.72)" patternUnits="userSpaceOnUse" viewBox="0 0 72 72"><rect class="cls-1" width="72" height="72"/><polyline class="cls-2" points="48.71 27.84 42.04 25 44.02 32.16"/><polyline class="cls-2" points="32.88 18.57 39.92 14.97 33.27 12.97"/><polyline class="cls-2" points="50.11 26.23 56.39 22.65 50.01 18.86"/><polyline class="cls-2" points="29.99 28.48 29.73 20.77 24.48 25.27"/><polyline class="cls-2" points="60.25 44.29 66.75 47.5 65.18 40.25"/><polyline class="cls-2" points="58.26 59.77 58.2 52.52 52.43 57.19"/><polyline class="cls-2" points="52.99 44.72 52.85 51.97 58.75 47.46"/><polyline class="cls-2" points="46.51 37.69 53.75 37.25 48.79 31.73"/><polyline class="cls-2" points="43.45 43.65 49.25 48 49.04 40.58"/><polyline class="cls-2" points="32.27 51.9 28.84 47.32 26.73 52.56"/><polyline class="cls-2" points="33.38 41.24 40.06 44.09 37.27 37.28"/><polyline class="cls-2" points="16.3 53.58 13.75 46.38 9.48 52.45"/><polyline class="cls-2" points="34.56 27.65 34.05 33.9 40.37 30.28"/><polyline class="cls-2" points="8.42 19.47 14.75 23 13.55 15.68"/><polyline class="cls-2" points="26.44 40.53 20.8 35.98 20.75 43.4"/><polyline class="cls-2" points="24.5 20.75 18.7 14.61 18.08 22.85"/><polyline class="cls-2" points="25.23 55.29 27.64 61.94 32.35 54.13"/><polyline class="cls-2" points="42.96 14.07 43.25 22.25 48.33 16.84"/><polyline class="cls-2" points="18.08 37.68 11.59 36.26 14.5 43.09"/><polyline class="cls-2" points="63.25 49.61 61 56.5 67.96 53.91"/><polyline class="cls-2" points="58.27 36.64 54.89 42.85 61.55 42.11"/><polyline class="cls-2" points="53.61 8.93 60.86 9.1 56.38 3.18"/><polyline class="cls-2" points="64.82 4 64.81 11.25 70.63 6.64"/><polyline class="cls-2" points="26.66 37.19 30.61 31.11 23.23 31.82"/><polyline class="cls-2" points="40 20.5 32.75 20.35 37.25 26.25"/><polyline class="cls-2" points="30.76 69.42 33.83 61.64 26.26 64.89"/><polyline class="cls-2" points="66.47 15.02 60 11.75 61.51 19.02"/><polyline class="cls-2" points="35 50 41.46 52.66 38.75 45.75"/><polyline class="cls-2" points="42.76 50.35 49.75 52.28 43.75 56.65"/><polyline class="cls-2" points="21.61 23.15 18.08 29.48 25.15 29.28"/><polyline class="cls-2" points="58 62.38 51.59 65.75 58.38 68.74"/><polyline class="cls-2" points="48.08 56.87 47.38 64.08 53.61 60.05"/><polyline class="cls-2" points="42.13 4.83 40.3 12.53 47.1 9.11"/><polyline class="cls-2" points="60.24 61.82 66.9 64.68 64.95 57.52"/><polyline class="cls-2" points="11.75 25 4.98 22.24 8 29.25"/><polyline class="cls-2" points="21.25 61.75 21.97 52.6 15.47 57.18"/><polyline class="cls-2" points="12.78 56.84 6.35 53.49 7.76 60.77"/><polyline class="cls-2" points="23.73 3.12 22.02 9.34 29.14 7.23"/><polyline class="cls-2" points="6.01 10.29 5.89 17.54 11.78 13.03"/><polyline class="cls-2" points="11.64 59.59 14.5 66.25 18.02 59.72"/><polyline class="cls-2" points="17.98 43.25 18.82 50.45 24.75 45.5"/><polyline class="cls-2" points="39.06 66.18 45.5 69.5 44.25 61.25"/><polyline class="cls-2" points="67.77 33.28 61.38 29.63 62.04 36.55"/><polyline class="cls-2" points="59.34 21.52 63.54 27.43 65.6 20.3"/><polyline class="cls-2" points="52.5 28.77 55.25 33.75 58.37 27.02"/><polyline class="cls-2" points="7.63 1.72 1.65 5.83 8.75 8"/><polyline class="cls-2" points="48.66 12.22 52.4 6.02 47.05 5.97"/><polyline class="cls-2" points="6.94 63.13 3.89 69.71 11.1 67.96"/><polyline class="cls-2" points="25.77 69.66 19.58 65.89 20.5 73.25"/><polyline class="cls-2" points="40.67 56.27 34.75 57.25 39.96 62.6"/><polyline class="cls-2" points="46.95 35.21 39.72 34.76 43.97 40.84"/><polyline class="cls-2" points="43.89 73.78 38.17 69.33 38.25 76.75"/><polyline class="cls-2" points="55.25 10.81 51.26 16.86 58.65 16.2"/><polyline class="cls-2" points="12.01 6.12 15.62 12.41 18.36 5.52"/><polyline class="cls-2" points="5.6 49.17 11.55 45.03 4.44 42.89"/><polyline class="cls-2" points="14.51 35.36 16.14 26.84 8.87 32.33"/><polyline class="cls-2" points="7.35 35.53 2.25 39.68 9.62 40.49"/><polyline class="cls-2" points="57.62 70.85 63.29 75.36 63.79 66.44"/><polyline class="cls-2" points="27.75 69.66 31 76.14 34.12 69.4"/><polyline class="cls-2" points="53.41 76.54 52.46 69.36 47.31 74.69"/><polyline class="cls-2" points="15.75 75.75 15.17 68.52 9.75 73.59"/><polyline class="cls-2" points="38.44 9.21 33.94 3.52 32 10.75"/><polyline class="cls-2" points="72.93 33.69 71.65 40.82 66.75 35.25"/><polyline class="cls-2" points="67.25 24.75 73.59 21.24 66.73 18.39"/><polyline class="cls-2" points="74.75 25.25 69.79 30.54 77.19 31.14"/><polyline class="cls-2" points="74.5 73.5 69.42 68.33 68.51 75.69"/><polyline class="cls-2" points="72.05 17.72 75.36 11.27 68.08 12.73"/><polyline class="cls-2" points="72.54 65.15 76.75 59.25 69.34 59.63"/><polyline class="cls-2" points="75.85 50.65 70.25 55.25 77.5 56.81"/><polyline class="cls-2" points="72.34 50.34 69.81 43.55 76.86 45.85"/><polyline class="cls-2" points="30.83 16.57 27.41 10.17 24.47 16.98"/><polyline class="cls-2" points="30.5 38.56 27.01 43.86 32.15 44.45"/><polyline class="cls-2" points="0.93 33.69 -0.35 40.82 -5.25 35.25"/><polyline class="cls-2" points="-4.75 24.75 1.59 21.24 -5.27 18.39"/><polyline class="cls-2" points="2.75 25.25 -2.21 30.54 5.19 31.14"/><polyline class="cls-2" points="2.5 73.5 -2.58 68.33 -3.49 75.69"/><polyline class="cls-2" points="0.05 17.72 3.35 11.27 -3.92 12.73"/><polyline class="cls-2" points="0.54 65.15 4.75 59.25 -2.66 59.63"/><polyline class="cls-2" points="3.85 50.65 -1.75 55.25 5.5 56.81"/><polyline class="cls-2" points="0.34 50.34 -2.19 43.55 4.86 45.85"/><polyline class="cls-2" points="25.77 -2.34 19.58 -6.11 20.5 1.25"/><polyline class="cls-2" points="43.89 1.78 38.17 -2.67 38.25 4.75"/><polyline class="cls-2" points="57.62 -1.15 63.29 3.36 63.79 -5.56"/><polyline class="cls-2" points="27.75 -2.34 31 4.14 34.12 -2.6"/><polyline class="cls-2" points="53.41 4.54 52.46 -2.64 47.31 2.69"/><polyline class="cls-2" points="15.75 3.75 15.17 -3.48 9.75 1.59"/><polyline class="cls-2" points="74.5 1.5 69.42 -3.67 68.51 3.69"/><polyline class="cls-2" points="2.5 1.5 -2.58 -3.67 -3.49 3.69"/></pattern></defs><title>sfondo3</title><g class="cls-4"><path class="cls-5" d="M430.82,44.11c-5.31,22.37,7.45,45.08,28.5,50.72l10-42.35Z" transform="translate(-6.37 -26.01)"/><path class="cls-6" d="M442.45,34.88C437.15,57.26,449.91,80,471,85.6l10-42.34Z" transform="translate(-6.37 -26.01)"/><path class="cls-7" d="M31.25,345.91C56.51,342,74,317.06,70.33,290.21l-47.81,7.4Z" transform="translate(-6.37 -26.01)"/><path class="cls-8" d="M16.6,336.6c25.26-3.91,42.75-28.85,39.07-55.7l-47.8,7.4Z" transform="translate(-6.37 -26.01)"/><polygon class="cls-9" points="606.77 184.07 523.26 274.03 638.58 306.17 606.77 184.07"/><ellipse class="cls-10" cx="377.65" cy="225.29" rx="52.91" ry="56.25"/><g class="cls-11"><path d="M282.28,270c3.08-.06,4.62,2.55,6,4.86,1.27,2.15,2.37,4,4.41,4s3.08-1.94,4.27-4.14c1.28-2.36,2.73-5,5.8-5.1s4.63,2.55,6,4.86c1.27,2.14,2.37,4,4.41,3.95s3.08-1.93,4.27-4.13c1.28-2.36,2.73-5,5.8-5.1s4.62,2.55,6,4.86c1.27,2.14,2.37,4,4.41,3.95s3.07-1.94,4.26-4.13c1.29-2.36,2.74-5,5.81-5.11s4.62,2.56,6,4.86c1.27,2.15,2.36,4,4.41,4s3.07-1.94,4.26-4.13c1.28-2.37,2.73-5,5.8-5.11s4.62,2.56,6,4.86c1.27,2.15,2.37,4,4.41,4s3.07-1.94,4.26-4.13c1.28-2.37,2.74-5,5.81-5.11s4.62,2.55,6,4.86c1.27,2.15,2.37,4,4.41,4s3.08-1.94,4.27-4.14c1.28-2.36,2.73-5,5.8-5.1s4.62,2.55,6,4.86c1.27,2.15,2.36,4,4.41,4s3.07-1.94,4.26-4.14c1.28-2.36,2.73-5,5.8-5.1s4.62,2.55,6,4.86c1.27,2.15,2.37,4,4.41,4s3.07-1.94,4.27-4.14c1.28-2.36,2.73-5,5.8-5.1s4.62,2.55,6,4.86c1.27,2.14,2.36,4,4.41,3.95l0,1.94c-3.07.06-4.62-2.55-6-4.86-1.27-2.15-2.37-4-4.41-4s-3.08,1.94-4.27,4.14c-1.28,2.36-2.73,5-5.8,5.1s-4.62-2.55-6-4.86c-1.27-2.15-2.37-4-4.41-4s-3.07,1.94-4.26,4.14c-1.28,2.36-2.74,5-5.81,5.1s-4.62-2.55-6-4.86c-1.27-2.14-2.37-4-4.41-3.95s-3.08,1.93-4.27,4.13c-1.28,2.36-2.73,5-5.8,5.1s-4.62-2.55-6-4.86c-1.27-2.14-2.36-4-4.41-4s-3.07,1.94-4.26,4.13c-1.28,2.36-2.73,5-5.8,5.1s-4.62-2.55-6-4.86c-1.27-2.14-2.37-4-4.41-3.95s-3.07,1.94-4.26,4.13c-1.28,2.37-2.74,5-5.81,5.11s-4.62-2.56-6-4.86c-1.27-2.15-2.36-4-4.41-4s-3.07,1.94-4.26,4.13c-1.28,2.37-2.73,5-5.8,5.11s-4.63-2.55-6-4.86c-1.27-2.15-2.37-4-4.41-4s-3.08,1.94-4.27,4.14c-1.28,2.36-2.73,5-5.8,5.1s-4.62-2.55-6-4.86c-1.27-2.15-2.37-4-4.41-4s-3.07,1.94-4.26,4.14c-1.29,2.36-2.74,5-5.81,5.1s-4.62-2.55-6-4.86c-1.27-2.15-2.37-4-4.41-4s-3.08,1.94-4.27,4.14c-1.28,2.36-2.73,5-5.81,5.1l0-1.93c2.05,0,3.07-1.94,4.27-4.14C277.76,272.69,279.21,270,282.28,270Z" transform="translate(-6.37 -26.01)"/><path d="M282.54,284.31c3.08-.06,4.63,2.55,6,4.86,1.27,2.15,2.37,4,4.42,4s3.07-1.94,4.26-4.14c1.28-2.36,2.73-5,5.81-5.1s4.62,2.55,6,4.86c1.27,2.14,2.37,4,4.42,4s3.07-1.94,4.26-4.14c1.28-2.36,2.73-5,5.8-5.1s4.62,2.55,6,4.86c1.27,2.14,2.37,4,4.41,3.95s3.07-1.93,4.27-4.13c1.28-2.36,2.73-5,5.8-5.1s4.62,2.55,6,4.86c1.27,2.14,2.36,4,4.41,3.95s3.07-1.94,4.26-4.13c1.28-2.36,2.73-5,5.81-5.11s4.62,2.56,6,4.86c1.27,2.15,2.37,4,4.41,4s3.08-1.94,4.27-4.13c1.28-2.37,2.73-5,5.8-5.11s4.62,2.56,6,4.86c1.27,2.15,2.36,4,4.41,4s3.07-1.94,4.26-4.14c1.28-2.36,2.73-5,5.8-5.1s4.62,2.55,6,4.86c1.27,2.15,2.36,4,4.41,4s3.07-1.94,4.26-4.14c1.28-2.36,2.73-5,5.81-5.1s4.62,2.55,6,4.86c1.27,2.15,2.37,4,4.41,4s3.08-1.94,4.27-4.14c1.28-2.36,2.73-5,5.8-5.1s4.62,2.55,6,4.86c1.27,2.15,2.36,4,4.41,4l0,1.93c-3.07.06-4.62-2.55-6-4.86-1.27-2.15-2.37-4-4.41-4s-3.07,1.94-4.27,4.14c-1.28,2.36-2.73,5-5.8,5.1s-4.62-2.55-6-4.86c-1.27-2.14-2.36-4-4.41-4s-3.07,1.94-4.26,4.14c-1.28,2.36-2.73,5-5.81,5.1s-4.62-2.55-6-4.86c-1.27-2.14-2.37-4-4.41-3.95s-3.07,1.93-4.26,4.13c-1.29,2.36-2.74,5-5.81,5.1s-4.62-2.55-6-4.86c-1.27-2.14-2.37-4-4.41-3.95s-3.08,1.94-4.27,4.13c-1.28,2.36-2.73,5-5.8,5.11s-4.62-2.56-6-4.86c-1.27-2.15-2.37-4-4.41-4s-3.07,1.94-4.26,4.13c-1.28,2.37-2.74,5-5.81,5.11s-4.62-2.56-6-4.86c-1.27-2.15-2.37-4-4.41-4s-3.08,1.94-4.27,4.14c-1.28,2.36-2.73,5-5.8,5.1s-4.62-2.55-6-4.86c-1.27-2.15-2.37-4-4.41-4s-3.07,1.94-4.26,4.14c-1.29,2.36-2.74,5-5.81,5.1s-4.62-2.55-6-4.86c-1.27-2.15-2.36-4-4.41-4s-3.07,1.94-4.26,4.14c-1.28,2.36-2.74,5-5.81,5.1s-4.62-2.55-6-4.86c-1.27-2.14-2.37-4-4.41-4s-3.07,1.94-4.27,4.14c-1.28,2.36-2.73,5-5.8,5.1l0-1.93c2,0,3.08-1.94,4.27-4.14C278,287.05,279.47,284.37,282.54,284.31Z" transform="translate(-6.37 -26.01)"/><path d="M282,255.28c3.07-.06,4.62,2.55,6,4.86,1.27,2.15,2.37,4,4.42,4s3.07-1.94,4.26-4.14c1.28-2.36,2.73-5,5.81-5.1s4.62,2.55,6,4.86c1.27,2.15,2.36,4,4.41,4s3.07-1.94,4.26-4.14c1.28-2.36,2.73-5,5.8-5.1s4.63,2.55,6,4.86c1.27,2.14,2.37,4,4.41,3.95s3.08-1.93,4.27-4.13c1.28-2.36,2.73-5,5.8-5.1s4.62,2.55,6,4.86c1.27,2.14,2.36,4,4.41,3.95s3.07-1.94,4.26-4.13c1.28-2.36,2.73-5,5.81-5.11s4.62,2.56,6,4.87c1.27,2.14,2.37,4,4.41,4s3.08-1.94,4.27-4.13c1.28-2.37,2.73-5,5.8-5.11s4.62,2.56,6,4.86,2.36,4,4.41,4,3.07-1.94,4.26-4.13c1.28-2.37,2.73-5,5.8-5.11s4.62,2.55,6,4.86c1.27,2.15,2.37,4,4.41,4s3.07-1.94,4.26-4.14c1.28-2.36,2.74-5,5.81-5.1s4.62,2.55,6,4.86c1.27,2.15,2.37,4,4.41,4s3.08-1.94,4.27-4.14c1.28-2.36,2.73-5,5.8-5.1s4.62,2.55,6,4.86c1.27,2.15,2.36,4,4.41,4l0,1.93c-3.07.06-4.62-2.55-6-4.86-1.27-2.15-2.37-4-4.41-4s-3.07,1.94-4.26,4.14c-1.29,2.36-2.74,5-5.81,5.1s-4.62-2.55-6-4.86c-1.27-2.14-2.36-4-4.41-4s-3.07,1.93-4.26,4.13c-1.28,2.36-2.73,5-5.81,5.1s-4.62-2.55-6-4.86c-1.27-2.14-2.37-4-4.41-3.95s-3.07,1.94-4.26,4.13c-1.28,2.36-2.74,5-5.81,5.11s-4.62-2.56-6-4.87c-1.27-2.14-2.37-4-4.41-3.95s-3.08,1.94-4.27,4.13c-1.28,2.37-2.73,5-5.8,5.11s-4.62-2.56-6-4.86-2.36-4-4.41-4-3.07,1.94-4.26,4.13c-1.28,2.37-2.73,5-5.81,5.11s-4.62-2.55-6-4.86c-1.27-2.15-2.37-4-4.41-4s-3.08,1.94-4.27,4.14c-1.28,2.36-2.73,5-5.8,5.1s-4.62-2.55-6-4.86c-1.27-2.15-2.37-4-4.41-4s-3.07,1.94-4.26,4.14c-1.28,2.36-2.74,5-5.81,5.1s-4.62-2.55-6-4.86c-1.27-2.15-2.36-4-4.41-4s-3.07,1.94-4.26,4.14c-1.28,2.36-2.74,5-5.81,5.1s-4.62-2.55-6-4.86c-1.27-2.14-2.36-4-4.41-3.95s-3.07,1.93-4.26,4.13c-1.29,2.36-2.74,5-5.81,5.1l0-1.93c2.05,0,3.08-1.94,4.27-4.14C277.49,258,278.94,255.34,282,255.28Z" transform="translate(-6.37 -26.01)"/><path d="M281.74,240.13c3.07-.07,4.62,2.55,6,4.86,1.27,2.14,2.36,4,4.41,3.95s3.07-1.93,4.26-4.13c1.29-2.36,2.74-5,5.81-5.1s4.62,2.55,6,4.86c1.27,2.14,2.37,4,4.41,4s3.07-1.94,4.26-4.13c1.28-2.37,2.74-5,5.81-5.11s4.62,2.56,6,4.86,2.36,4,4.41,4,3.07-1.94,4.26-4.13c1.28-2.37,2.73-5,5.81-5.11s4.62,2.56,6,4.86c1.27,2.15,2.37,4,4.41,4s3.07-1.94,4.27-4.14c1.28-2.36,2.73-5,5.8-5.1s4.62,2.55,6,4.86c1.27,2.15,2.36,4,4.41,4s3.07-1.94,4.26-4.14c1.28-2.36,2.73-5,5.81-5.1s4.62,2.55,6,4.86c1.27,2.15,2.37,4,4.41,4s3.07-1.94,4.26-4.14c1.28-2.36,2.74-5,5.81-5.1s4.62,2.55,6,4.86c1.27,2.14,2.37,4,4.41,4s3.08-1.94,4.27-4.14c1.28-2.36,2.73-5,5.8-5.1s4.62,2.55,6,4.86c1.27,2.14,2.36,4,4.41,4s3.07-1.93,4.26-4.13c1.28-2.36,2.74-5,5.81-5.1s4.62,2.55,6,4.86c1.27,2.14,2.37,4,4.41,3.95l0,1.94c-3.07.06-4.62-2.56-6-4.86s-2.36-4-4.41-4-3.07,1.94-4.26,4.13c-1.28,2.37-2.73,5.05-5.81,5.11s-4.62-2.55-6-4.86c-1.27-2.15-2.37-4-4.41-4s-3.08,1.94-4.27,4.14c-1.28,2.36-2.73,5-5.8,5.1s-4.62-2.55-6-4.86c-1.27-2.15-2.36-4-4.41-4s-3.07,1.94-4.26,4.14c-1.28,2.36-2.73,5-5.8,5.1s-4.62-2.55-6-4.86c-1.27-2.14-2.37-4-4.41-4s-3.07,1.94-4.26,4.14c-1.28,2.36-2.73,5-5.81,5.1s-4.62-2.55-6-4.86c-1.27-2.14-2.37-4-4.41-4s-3.08,1.93-4.27,4.13c-1.28,2.36-2.73,5-5.8,5.1s-4.62-2.55-6-4.86c-1.27-2.14-2.36-4-4.41-3.95s-3.07,1.94-4.26,4.13c-1.28,2.36-2.74,5-5.81,5.11s-4.62-2.56-6-4.86-2.36-4-4.41-4-3.07,1.94-4.26,4.13c-1.28,2.37-2.73,5-5.8,5.11s-4.63-2.56-6-4.86c-1.27-2.15-2.37-4-4.41-4s-3.08,1.94-4.27,4.14c-1.28,2.36-2.73,5-5.8,5.1s-4.63-2.55-6-4.86c-1.27-2.15-2.37-4-4.42-4s-3.07,1.94-4.26,4.14c-1.28,2.36-2.73,5-5.81,5.1l0-1.93c2-.05,3.07-1.94,4.26-4.14C277.21,242.87,278.67,240.19,281.74,240.13Z" transform="translate(-6.37 -26.01)"/><path d="M281.2,210.61c3.07-.06,4.62,2.55,6,4.86,1.27,2.15,2.37,4,4.41,4s3.08-1.94,4.27-4.14c1.28-2.36,2.73-5,5.8-5.1s4.63,2.55,6,4.86c1.27,2.15,2.37,4,4.41,4s3.08-1.94,4.27-4.14c1.28-2.36,2.73-5,5.8-5.1s4.62,2.55,6,4.86c1.27,2.15,2.36,4,4.41,4s3.07-1.94,4.26-4.14c1.28-2.36,2.74-5,5.81-5.1s4.62,2.55,6,4.86c1.27,2.14,2.37,4,4.42,3.95s3.07-1.93,4.26-4.13c1.28-2.36,2.73-5,5.8-5.1s4.62,2.55,6,4.86c1.27,2.14,2.37,4,4.41,4s3.07-1.94,4.26-4.13c1.28-2.36,2.74-5,5.81-5.11s4.62,2.56,6,4.87c1.27,2.14,2.37,4,4.41,3.95s3.08-1.94,4.27-4.13c1.28-2.37,2.73-5,5.8-5.11s4.62,2.56,6,4.86c1.27,2.15,2.36,4,4.41,4s3.07-1.94,4.26-4.13c1.28-2.37,2.73-5,5.8-5.11s4.62,2.55,6,4.86c1.27,2.15,2.37,4,4.41,4s3.07-1.94,4.26-4.14c1.29-2.36,2.74-5,5.81-5.1s4.62,2.55,6,4.86c1.27,2.15,2.37,4,4.42,4l0,1.93c-3.07.07-4.62-2.55-6-4.86-1.27-2.14-2.36-4-4.41-3.95s-3.07,1.93-4.26,4.13c-1.28,2.36-2.73,5-5.8,5.1s-4.62-2.55-6-4.86c-1.27-2.14-2.37-4-4.41-4s-3.07,1.94-4.26,4.13c-1.28,2.36-2.74,5-5.81,5.11s-4.62-2.56-6-4.87c-1.26-2.14-2.36-4-4.41-3.95s-3.07,1.94-4.26,4.13c-1.28,2.37-2.73,5-5.8,5.11s-4.62-2.56-6-4.86-2.36-4-4.41-4-3.07,1.94-4.26,4.13c-1.28,2.37-2.73,5-5.8,5.11s-4.62-2.55-6-4.86c-1.27-2.15-2.37-4-4.41-4S360,212.8,358.85,215c-1.29,2.36-2.74,5-5.81,5.1s-4.62-2.55-6-4.86c-1.27-2.15-2.36-4-4.41-4s-3.07,1.94-4.26,4.14c-1.28,2.36-2.73,5-5.81,5.1s-4.62-2.55-6-4.86c-1.27-2.15-2.37-4-4.41-4s-3.08,1.94-4.27,4.14c-1.28,2.36-2.73,5-5.8,5.1s-4.62-2.55-6-4.86c-1.27-2.14-2.37-4-4.41-4s-3.07,1.94-4.27,4.14c-1.28,2.36-2.73,5-5.8,5.1s-4.62-2.55-6-4.86c-1.27-2.14-2.37-4-4.41-3.95s-3.08,1.94-4.27,4.13c-1.28,2.36-2.73,5-5.81,5.1l0-1.93c2,0,3.07-1.94,4.26-4.13C276.68,213.35,278.13,210.68,281.2,210.61Z" transform="translate(-6.37 -26.01)"/><path d="M281.46,225c3.08-.06,4.62,2.56,6,4.86,1.27,2.15,2.37,4,4.41,4s3.08-1.94,4.27-4.14c1.28-2.36,2.73-5,5.81-5.1s4.62,2.55,6,4.86c1.27,2.15,2.37,4,4.42,4s3.07-1.94,4.26-4.14c1.28-2.36,2.73-5,5.8-5.1s4.62,2.55,6,4.86c1.27,2.15,2.37,4,4.41,4s3.07-1.94,4.26-4.14c1.29-2.36,2.74-5,5.81-5.1s4.62,2.55,6,4.86c1.27,2.14,2.36,4,4.41,4s3.07-1.94,4.26-4.14c1.28-2.36,2.73-5,5.8-5.1s4.62,2.55,6,4.86c1.27,2.14,2.37,4,4.41,3.95s3.07-1.93,4.26-4.13c1.29-2.36,2.74-5,5.81-5.1s4.62,2.55,6,4.86c1.26,2.14,2.36,4,4.4,4s3.08-1.94,4.27-4.13c1.28-2.36,2.73-5,5.8-5.11s4.62,2.56,6,4.86c1.27,2.15,2.36,4,4.41,4s3.07-1.94,4.26-4.13c1.28-2.37,2.73-5,5.81-5.11s4.62,2.56,6,4.86,2.37,4,4.41,4,3.08-1.94,4.27-4.14c1.28-2.36,2.73-5,5.8-5.1s4.62,2.55,6,4.86c1.27,2.15,2.36,4,4.41,4l0,1.93c-3.07.07-4.62-2.55-6-4.86-1.27-2.14-2.37-4-4.41-4s-3.08,1.93-4.27,4.13c-1.28,2.36-2.73,5-5.8,5.1s-4.62-2.55-6-4.86c-1.27-2.14-2.37-4-4.41-3.95s-3.07,1.94-4.26,4.13c-1.28,2.37-2.74,5-5.81,5.11s-4.62-2.56-6-4.86-2.37-4-4.41-4-3.08,1.94-4.27,4.13c-1.28,2.37-2.73,5-5.8,5.11s-4.62-2.56-6-4.86c-1.26-2.15-2.36-4-4.41-4s-3.07,1.94-4.26,4.14c-1.28,2.36-2.73,5-5.8,5.1s-4.62-2.55-6-4.86c-1.27-2.15-2.37-4-4.41-4s-3.07,1.94-4.26,4.14c-1.28,2.36-2.74,5-5.81,5.1s-4.62-2.55-6-4.86c-1.27-2.15-2.37-4-4.42-4s-3.07,1.94-4.26,4.14c-1.28,2.36-2.73,5-5.8,5.1s-4.62-2.55-6-4.86c-1.27-2.14-2.37-4-4.41-4s-3.07,1.94-4.27,4.14c-1.28,2.36-2.73,5-5.8,5.1s-4.62-2.55-6-4.86c-1.27-2.14-2.36-4-4.41-3.95s-3.07,1.93-4.26,4.13c-1.29,2.36-2.74,5-5.81,5.1s-4.62-2.55-6-4.86c-1.27-2.14-2.37-4-4.41-4s-3.08,1.94-4.27,4.13c-1.28,2.37-2.73,5-5.8,5.11l0-1.94c2.05,0,3.07-1.94,4.27-4.13C276.94,227.71,278.39,225,281.46,225Z" transform="translate(-6.37 -26.01)"/><path d="M280.93,195.94c3.08-.06,4.63,2.56,6,4.86,1.27,2.15,2.37,4,4.42,4s3.07-1.94,4.26-4.13c1.28-2.37,2.73-5,5.81-5.11s4.62,2.55,6,4.86c1.27,2.15,2.37,4,4.42,4s3.07-1.94,4.26-4.14c1.28-2.36,2.73-5,5.8-5.1s4.62,2.55,6,4.86c1.27,2.15,2.37,4,4.41,4s3.07-1.94,4.27-4.14c1.28-2.36,2.73-5,5.8-5.1s4.62,2.55,6,4.86c1.27,2.15,2.36,4,4.41,4s3.07-1.94,4.26-4.14c1.28-2.36,2.73-5,5.81-5.1s4.62,2.55,6,4.86c1.27,2.14,2.37,4,4.41,3.95s3.08-1.93,4.27-4.13c1.28-2.36,2.73-5,5.8-5.1s4.62,2.55,6,4.86c1.27,2.14,2.36,4,4.41,4s3.07-1.94,4.26-4.13c1.28-2.36,2.73-5,5.8-5.1s4.62,2.55,6,4.86c1.27,2.14,2.36,4,4.41,3.95s3.07-1.94,4.26-4.13c1.28-2.37,2.73-5,5.81-5.11s4.62,2.56,6,4.86,2.37,4,4.41,4,3.08-1.94,4.27-4.13c1.28-2.37,2.73-5,5.8-5.11s4.62,2.56,6,4.86c1.27,2.15,2.36,4,4.41,4l0,1.93c-3.07.07-4.62-2.55-6-4.86-1.27-2.14-2.37-4-4.41-4s-3.07,1.94-4.27,4.13c-1.28,2.36-2.73,5-5.8,5.11s-4.62-2.56-6-4.86c-1.27-2.15-2.36-4-4.41-4s-3.07,1.94-4.26,4.13c-1.28,2.37-2.73,5-5.81,5.11s-4.62-2.56-6-4.86c-1.27-2.15-2.37-4-4.41-4s-3.07,1.94-4.26,4.13c-1.29,2.37-2.74,5-5.81,5.11s-4.62-2.55-6-4.86c-1.27-2.15-2.37-4-4.41-4s-3.08,1.94-4.27,4.14c-1.28,2.36-2.73,5-5.8,5.1s-4.62-2.55-6-4.86c-1.27-2.15-2.37-4-4.41-4s-3.07,1.94-4.26,4.14c-1.28,2.36-2.73,5-5.81,5.1s-4.62-2.55-6-4.86c-1.27-2.15-2.37-4-4.41-4s-3.08,1.94-4.27,4.14c-1.28,2.36-2.73,5-5.8,5.1s-4.62-2.55-6-4.86c-1.27-2.14-2.37-4-4.41-4s-3.07,1.93-4.26,4.13c-1.28,2.36-2.74,5-5.81,5.1s-4.62-2.55-6-4.86c-1.27-2.14-2.36-4-4.41-3.95s-3.07,1.94-4.26,4.13c-1.28,2.36-2.74,5-5.81,5.11s-4.62-2.56-6-4.87c-1.27-2.14-2.37-4-4.41-4s-3.07,1.94-4.27,4.13c-1.28,2.37-2.73,5-5.8,5.11l0-1.94c2.05,0,3.08-1.94,4.27-4.13C276.41,198.68,277.86,196,280.93,195.94Z" transform="translate(-6.37 -26.01)"/><path d="M280.66,180.79c3.07-.06,4.62,2.55,6,4.86,1.27,2.15,2.36,4,4.41,4s3.07-1.94,4.26-4.14c1.29-2.36,2.74-5,5.81-5.1s4.62,2.55,6,4.86c1.27,2.14,2.37,4,4.41,4s3.07-1.94,4.26-4.14c1.28-2.36,2.74-5,5.81-5.1s4.62,2.55,6,4.86c1.27,2.14,2.37,4,4.42,3.95s3.07-1.93,4.26-4.13c1.28-2.36,2.73-5,5.8-5.1s4.62,2.55,6,4.86c1.27,2.14,2.37,4,4.41,4s3.07-1.94,4.26-4.13c1.29-2.37,2.74-5,5.81-5.11s4.62,2.56,6,4.86c1.27,2.15,2.36,4,4.41,4s3.07-1.94,4.26-4.13c1.28-2.37,2.73-5,5.8-5.11s4.62,2.56,6,4.86,2.37,4,4.41,4,3.07-1.94,4.26-4.14c1.28-2.36,2.73-5,5.81-5.1s4.62,2.55,6,4.86c1.27,2.15,2.37,4,4.41,4s3.07-1.94,4.27-4.14c1.28-2.36,2.73-5,5.8-5.1s4.62,2.55,6,4.86c1.27,2.15,2.36,4,4.41,4s3.07-1.94,4.26-4.14c1.28-2.36,2.73-5,5.81-5.1s4.62,2.55,6,4.86c1.27,2.14,2.37,4,4.41,4l0,1.93c-3.07.06-4.62-2.55-6-4.86-1.27-2.15-2.37-4-4.41-4s-3.07,1.94-4.26,4.14c-1.28,2.36-2.73,5-5.81,5.1s-4.62-2.55-6-4.86c-1.27-2.14-2.37-4-4.41-4s-3.08,1.94-4.27,4.14c-1.28,2.36-2.73,5-5.8,5.1s-4.62-2.55-6-4.86c-1.27-2.14-2.36-4-4.41-4s-3.07,1.93-4.26,4.13c-1.28,2.36-2.73,5-5.8,5.1s-4.62-2.55-6-4.86c-1.27-2.14-2.37-4-4.41-3.95s-3.07,1.94-4.26,4.13c-1.28,2.36-2.74,5-5.81,5.11s-4.62-2.56-6-4.86c-1.27-2.15-2.37-4-4.42-4s-3.07,1.94-4.26,4.13c-1.28,2.37-2.73,5-5.8,5.11s-4.62-2.56-6-4.86c-1.27-2.15-2.37-4-4.41-4s-3.07,1.94-4.26,4.14c-1.28,2.36-2.74,5-5.81,5.1s-4.62-2.55-6-4.86c-1.27-2.15-2.36-4-4.41-4s-3.07,1.94-4.26,4.14c-1.28,2.36-2.73,5-5.8,5.1s-4.63-2.55-6-4.86c-1.27-2.15-2.37-4-4.41-4s-3.08,1.94-4.27,4.14c-1.28,2.36-2.73,5-5.81,5.1s-4.62-2.55-6-4.86c-1.27-2.14-2.37-4-4.42-4s-3.07,1.94-4.26,4.14c-1.28,2.36-2.74,5-5.81,5.1l0-1.93c2,0,3.07-1.94,4.26-4.14C276.13,183.53,277.59,180.85,280.66,180.79Z" transform="translate(-6.37 -26.01)"/></g><path class="cls-5" d="M111,64.43,80.36,42.62,42.58,47.45S32.19,97.82,31.93,97.38l31.49,21.27,36.84-3.82Z" transform="translate(-6.37 -26.01)"/><polygon class="cls-6" points="67.72 25.35 29.95 30.19 61.93 51.33 98.38 47.17 67.72 25.35"/><path class="cls-6" d="M25.67,106.13l31.48,21.26,11.15-50-32-21.14S25.92,106.57,25.67,106.13Z" transform="translate(-6.37 -26.01)"/><polygon class="cls-6" points="98.38 47.17 61.93 51.33 50.78 101.38 87.62 97.57 98.38 47.17"/><ellipse class="cls-7" cx="589.9" cy="44.28" rx="35.3" ry="37.53"/><ellipse class="cls-6" cx="571.33" cy="38.35" rx="35.37" ry="37.6"/><ellipse class="cls-6" cx="571.33" cy="38.35" rx="28.9" ry="30.72"/><ellipse class="cls-6" cx="571.33" cy="38.35" rx="20.33" ry="21.61"/><ellipse class="cls-6" cx="571.33" cy="38.35" rx="13.1" ry="13.92"/><path class="cls-7" d="M595.7,414.68l0,0c.22.11.44.21.65.33l-79.18-44.22-.47-.25-.18-.08c-.26-.12-.53-.24-.79-.34l-.32-.13a11.77,11.77,0,0,0-1.15-.36h0l-.16,0c-.32-.08-.66-.15-1-.2l-.4-.05a7.77,7.77,0,0,0-.83-.08l-.44,0c-.29,0-.57,0-.87,0h-.39c-.43,0-.85.08-1.28.15s-.7.13-1.05.22l-.26.06-.94.28-.08,0c-.34.11-.67.24-1,.38l-.25.1-.85.4-.1.05,0,0c-.38.2-.77.42-1.14.65l-.17.11c-.36.23-.72.48-1.06.74l-.1.06-.11.1-.78.63-.07.05-.8.74-.09.09-.12.12c-.19.19-.37.39-.55.58l-.18.19c-.23.26-.46.52-.67.79l0,0-.09.13c-.18.22-.35.45-.52.68l-.18.25c-.17.23-.33.47-.48.7a.71.71,0,0,1-.1.14s0,0,0,.05c-.2.31-.39.63-.57.95-.05.08-.09.16-.13.24-.15.26-.29.53-.42.8l-.09.16,0,.07c-.19.39-.37.79-.53,1.19a2.44,2.44,0,0,0-.1.24c-.16.41-.32.83-.46,1.25v0c0,.13-.08.27-.13.4l-.12.39-.12.47c0,.13-.08.26-.11.4s-.07.31-.1.47-.07.26-.09.4-.06.32-.09.48-.05.27-.07.4-.05.34-.07.5l-.06.39c0,.18,0,.35-.05.53l0,.37c0,.2,0,.41,0,.61s0,.2,0,.3c0,.3,0,.6,0,.91.07,6.33,3,11.41,7.38,13.84l79.18,44.22-.26-.15a12.62,12.62,0,0,0,8.56,1.54c8.54-1.42,15.37-10.52,15.25-20.35C603.7,422.21,600.45,417,595.7,414.68Zm-20.11,8.54c0-.08.08-.17.13-.25l.43-.71c-.24.38-.46.76-.67,1.15Zm-2,5,.12-.47.12-.4c0-.14.09-.29.14-.43v0c-.18.53-.33,1.07-.47,1.61C573.52,428.42,573.55,428.33,573.58,428.23Zm-.39,1.76c0-.17,0-.33.09-.5s.05-.26.08-.39.07-.32.11-.48h0c-.14.56-.26,1.12-.35,1.69Zm-.25,1.83c0-.18,0-.37,0-.55s0-.25,0-.38.05-.34.08-.51h0c-.09.58-.16,1.17-.21,1.76Zm-.08,1.25c0-.09,0-.19,0-.28s0-.42,0-.62h0c0,.61-.07,1.21-.06,1.82C572.85,433.68,572.85,433.38,572.86,433.07Zm1.56-7.39a2.44,2.44,0,0,1,.1-.24l0-.08q-.24.58-.45,1.2C574.2,426.26,574.31,426,574.42,425.68Zm.63-1.43.12-.23.1-.21c-.17.33-.32.67-.48,1Zm1.23-2.2v0l.12-.19c.15-.24.31-.47.48-.7l.18-.26.07-.09C576.84,421.2,576.55,421.61,576.28,422.05Zm1.09-1.56c.07-.09.14-.19.22-.28a1.09,1.09,0,0,1,.13-.17c.15-.19.31-.37.47-.55C577.9,419.81,577.63,420.15,577.37,420.49Zm1-1.21,0,0,.18-.19c.18-.2.36-.39.55-.58l.21-.21.07-.06C579,418.55,578.7,418.91,578.36,419.28Zm1.33-1.34.44-.41.07-.06.36-.28Q580.11,417.55,579.69,417.94Zm1.2-1,.09-.08.21-.15c.17-.14.35-.25.53-.38C581.44,416.51,581.16,416.7,580.89,416.92Zm1.31-.94,0,0,.17-.11.78-.45C582.87,415.58,582.53,415.77,582.2,416Zm1.35-.79h0l.13-.06c.28-.14.56-.28.85-.4l.25-.11.08,0C584.42,414.77,584,415,583.55,415.19Zm1.69-.75.54-.21.08,0,.42-.13C585.93,414.19,585.58,414.31,585.24,414.44Zm2.87-.79c-.48.08-1,.19-1.42.31l.11,0,.27-.07c.34-.08.69-.15,1-.21s.85-.12,1.28-.15h.13A11.24,11.24,0,0,0,588.11,413.65Zm2-.17H591C590.71,413.47,590.39,413.48,590.08,413.48Zm1.53.06.31,0,.4.05.16,0Q592,413.59,591.61,413.54Zm1.43.23.28.05.17,0,.35.11Zm1.36.38.24.07.32.13a1.76,1.76,0,0,0,.2.09Z" transform="translate(-6.37 -26.01)"/><g class="cls-12"><path class="cls-6" d="M550.93,410.26c8.55-1.42,15.56,5.4,15.68,15.22s-6.71,18.93-15.25,20.34-15.57-5.4-15.68-15.23S542.39,411.67,550.93,410.26Z" transform="translate(-6.37 -26.01)"/><path class="cls-6" d="M535.7,429.4l0-.63c0-.11,0-.23,0-.34s0-.37.05-.56,0-.25,0-.37,0-.35.08-.52l.06-.39c0-.16.06-.33.1-.49s0-.26.08-.39.07-.32.11-.48.07-.26.1-.39.09-.32.13-.47l.12-.4c.05-.14.09-.29.14-.43.14-.43.29-.84.46-1.25a2.44,2.44,0,0,1,.1-.24c.16-.4.34-.8.53-1.19l.11-.23.42-.81.14-.24c.18-.32.37-.64.57-.95l.12-.18c.15-.24.31-.47.47-.7l.19-.26.51-.67.13-.17c.22-.27.45-.53.68-.79l.18-.19c.18-.2.36-.39.55-.58l.21-.21c.26-.26.53-.5.8-.74l.07-.06q.38-.33.78-.63a1.56,1.56,0,0,0,.2-.16c.35-.26.7-.5,1.06-.73l.18-.11a13,13,0,0,1,1.14-.66l.13-.06a9.37,9.37,0,0,1,.85-.4l.25-.11c.32-.14.65-.26,1-.38l.09,0c.31-.11.62-.2.94-.28l.26-.07c.35-.08.69-.16,1-.21a11.7,11.7,0,0,1,1.28-.15l.4,0h.87l.44,0,.83.08.39.05c.34,0,.68.12,1,.2l.18,0a10.79,10.79,0,0,1,1.14.36l.33.13c.26.11.53.22.79.35s.44.21.65.33l-79.18-44.22-.47-.25-.18-.08c-.26-.12-.53-.24-.79-.34l-.33-.13c-.37-.14-.75-.26-1.14-.37h0l-.15,0c-.33-.08-.66-.15-1-.21l-.39-.05c-.28,0-.55-.06-.83-.07l-.44,0a8.42,8.42,0,0,0-.87,0H473c-.42,0-.84.08-1.28.15s-.69.13-1,.22l-.26.06-.94.28-.09,0c-.33.11-.66.24-1,.37l-.25.11-.85.4-.1.05h0q-.58.31-1.14.66l-.18.11c-.36.23-.71.48-1.06.74l-.09.06-.11.09c-.27.21-.53.42-.78.64l-.07.05-.8.74-.09.09-.12.12-.56.58-.17.19c-.23.26-.46.52-.68.79l0,0a1.13,1.13,0,0,1-.1.13l-.51.67-.19.26c-.16.23-.32.46-.47.7l-.1.14,0,.05c-.2.31-.39.62-.57.95l-.14.24-.42.8-.08.16,0,.07c-.19.39-.37.79-.53,1.19a2.44,2.44,0,0,0-.1.24c-.17.41-.32.83-.46,1.25v0c-.05.13-.09.26-.13.4l-.12.39-.12.46c0,.14-.08.27-.11.4s-.07.32-.11.47l-.09.41c0,.16-.06.32-.08.48s0,.27-.08.4,0,.33-.07.5,0,.26-.05.39,0,.35-.05.53,0,.25,0,.37l0,.61c0,.1,0,.19,0,.29,0,.31,0,.61,0,.92.07,6.32,3,11.4,7.38,13.84l79.18,44.22c-4.37-2.44-7.31-7.52-7.38-13.85,0-.3,0-.61,0-.91C535.69,429.59,535.7,429.49,535.7,429.4Z" transform="translate(-6.37 -26.01)"/></g><path class="cls-13" d="M199.68,294.44l-25,71.18,44.9,5.58S199.64,294.27,199.68,294.44Z" transform="translate(-6.37 -26.01)"/><path class="cls-7" d="M199.69,294.44l55.57,47.77-35.65,29S199.64,294.27,199.69,294.44Z" transform="translate(-6.37 -26.01)"/><path class="cls-14" d="M230.4,262.3c-6.76,0-10.24-4.06-13-7.33s-4.47-5-8.11-5-5.37,1.82-8.11,5-6.27,7.33-13,7.33-10.24-4.06-13-7.33-4.47-5-8.11-5-5.36,1.82-8.1,5-6.27,7.33-13,7.33-10.23-4.06-13-7.33-4.47-5-8.11-5a3.54,3.54,0,0,1,0-7.06c6.75,0,10.23,4.07,13,7.34s4.47,5,8.1,5,5.37-1.82,8.11-5,6.27-7.34,13-7.34,10.23,4.07,13,7.34,4.47,5,8.11,5,5.36-1.82,8.1-5,6.28-7.33,13-7.33,10.23,4.07,13,7.33,4.47,5,8.11,5a3.54,3.54,0,0,1,0,7.06Z" transform="translate(-6.37 -26.01)"/><path class="cls-14" d="M230.4,240.23c-6.76,0-10.24-4.07-13-7.34s-4.47-5-8.11-5-5.37,1.81-8.11,5-6.27,7.34-13,7.34-10.24-4.07-13-7.34-4.47-5-8.11-5-5.36,1.81-8.1,5-6.27,7.34-13,7.34-10.23-4.07-13-7.34-4.47-5-8.11-5a3.54,3.54,0,0,1,0-7.07c6.75,0,10.23,4.07,13,7.34s4.47,5,8.1,5,5.37-1.82,8.11-5,6.27-7.34,13-7.34,10.23,4.07,13,7.34,4.47,5,8.11,5,5.36-1.82,8.1-5,6.28-7.34,13-7.34,10.23,4.07,13,7.34,4.47,5,8.11,5a3.54,3.54,0,0,1,0,7.06Z" transform="translate(-6.37 -26.01)"/><path class="cls-15" d="M231,259.36c-6.75,0-10.23-4.07-13-7.34s-4.47-5-8.11-5-5.36,1.81-8.11,5-6.27,7.34-13,7.34-10.23-4.07-13-7.34-4.47-5-8.1-5-5.37,1.81-8.11,5-6.27,7.34-13,7.34-10.23-4.07-13-7.34-4.47-5-8.1-5a3.54,3.54,0,0,1,0-7.07c6.75,0,10.23,4.07,13,7.34s4.47,5,8.11,5,5.36-1.82,8.1-5,6.27-7.34,13-7.34,10.23,4.07,13,7.34,4.47,5,8.11,5,5.36-1.82,8.11-5,6.27-7.34,13-7.34,10.24,4.07,13,7.34,4.47,5,8.11,5a3.54,3.54,0,0,1,0,7.06Z" transform="translate(-6.37 -26.01)"/><path class="cls-15" d="M231,237.29c-6.75,0-10.23-4.07-13-7.34s-4.47-5-8.11-5-5.36,1.82-8.11,5-6.27,7.34-13,7.34-10.23-4.07-13-7.34-4.47-5-8.1-5-5.37,1.82-8.11,5-6.27,7.34-13,7.34-10.23-4.07-13-7.34-4.47-5-8.1-5a3.54,3.54,0,0,1,0-7.06c6.75,0,10.23,4.07,13,7.34s4.47,5,8.11,5,5.36-1.81,8.1-5,6.27-7.34,13-7.34,10.23,4.07,13,7.34,4.47,5,8.11,5,5.36-1.81,8.11-5,6.27-7.34,13-7.34,10.24,4.07,13,7.34,4.47,5,8.11,5a3.54,3.54,0,0,1,0,7.07Z" transform="translate(-6.37 -26.01)"/><rect class="cls-5" x="355.26" y="372.76" width="47.07" height="50.04"/><path class="cls-16" d="M331.5,387.88a2.7,2.7,0,1,1-2.69-2.86A2.78,2.78,0,0,1,331.5,387.88Z" transform="translate(-6.37 -26.01)"/><path class="cls-16" d="M345.31,387.88a2.7,2.7,0,1,1-2.69-2.86A2.78,2.78,0,0,1,345.31,387.88Z" transform="translate(-6.37 -26.01)"/><path class="cls-16" d="M359.11,387.88a2.69,2.69,0,1,1-2.69-2.86A2.78,2.78,0,0,1,359.11,387.88Z" transform="translate(-6.37 -26.01)"/><path class="cls-16" d="M372.92,387.88a2.7,2.7,0,1,1-2.69-2.86A2.78,2.78,0,0,1,372.92,387.88Z" transform="translate(-6.37 -26.01)"/><path class="cls-16" d="M331.5,402.79a2.69,2.69,0,1,1-2.69-2.85A2.78,2.78,0,0,1,331.5,402.79Z" transform="translate(-6.37 -26.01)"/><path class="cls-16" d="M345.31,402.79a2.69,2.69,0,1,1-2.69-2.85A2.78,2.78,0,0,1,345.31,402.79Z" transform="translate(-6.37 -26.01)"/><path class="cls-16" d="M359.11,402.79a2.69,2.69,0,1,1-2.69-2.85A2.78,2.78,0,0,1,359.11,402.79Z" transform="translate(-6.37 -26.01)"/><path class="cls-16" d="M372.92,402.79a2.69,2.69,0,1,1-2.69-2.85A2.78,2.78,0,0,1,372.92,402.79Z" transform="translate(-6.37 -26.01)"/><path class="cls-16" d="M331.5,417.7a2.69,2.69,0,1,1-2.69-2.85A2.78,2.78,0,0,1,331.5,417.7Z" transform="translate(-6.37 -26.01)"/><path class="cls-16" d="M345.31,417.7a2.69,2.69,0,1,1-2.69-2.85A2.78,2.78,0,0,1,345.31,417.7Z" transform="translate(-6.37 -26.01)"/><path class="cls-16" d="M359.11,417.7a2.69,2.69,0,1,1-2.69-2.85A2.78,2.78,0,0,1,359.11,417.7Z" transform="translate(-6.37 -26.01)"/><path class="cls-16" d="M372.92,417.7a2.69,2.69,0,1,1-2.69-2.85A2.78,2.78,0,0,1,372.92,417.7Z" transform="translate(-6.37 -26.01)"/><path class="cls-16" d="M331.5,432.62a2.7,2.7,0,1,1-2.69-2.86A2.77,2.77,0,0,1,331.5,432.62Z" transform="translate(-6.37 -26.01)"/><path class="cls-16" d="M345.31,432.62a2.7,2.7,0,1,1-2.69-2.86A2.78,2.78,0,0,1,345.31,432.62Z" transform="translate(-6.37 -26.01)"/><path class="cls-16" d="M359.11,432.62a2.69,2.69,0,1,1-2.69-2.86A2.77,2.77,0,0,1,359.11,432.62Z" transform="translate(-6.37 -26.01)"/><path class="cls-16" d="M372.92,432.62a2.7,2.7,0,1,1-2.69-2.86A2.77,2.77,0,0,1,372.92,432.62Z" transform="translate(-6.37 -26.01)"/><path class="cls-15" d="M489.4,298a5.55,5.55,0,1,1-5.54-5.89A5.73,5.73,0,0,1,489.4,298Zm-8.58,0a3.05,3.05,0,1,0,3-3.24A3.14,3.14,0,0,0,480.82,298Z" transform="translate(-6.37 -26.01)"/><path class="cls-15" d="M489.4,276.47a5.55,5.55,0,1,1-5.54-5.88A5.73,5.73,0,0,1,489.4,276.47Zm-8.58,0a3.05,3.05,0,1,0,3-3.23A3.14,3.14,0,0,0,480.82,276.47Z" transform="translate(-6.37 -26.01)"/><path class="cls-15" d="M489.4,255a5.55,5.55,0,1,1-5.54-5.89A5.73,5.73,0,0,1,489.4,255Zm-8.58,0a3.05,3.05,0,1,0,3-3.24A3.15,3.15,0,0,0,480.82,255Z" transform="translate(-6.37 -26.01)"/><path class="cls-15" d="M489.4,233.5a5.55,5.55,0,1,1-5.54-5.89A5.73,5.73,0,0,1,489.4,233.5Zm-8.58,0a3.05,3.05,0,1,0,3-3.24A3.14,3.14,0,0,0,480.82,233.5Z" transform="translate(-6.37 -26.01)"/><path class="cls-17" d="M486.49,296.05a5.55,5.55,0,1,1-5.54-5.89A5.73,5.73,0,0,1,486.49,296.05Zm-8.58,0a3.05,3.05,0,1,0,3-3.24A3.16,3.16,0,0,0,477.91,296.05Z" transform="translate(-6.37 -26.01)"/><path class="cls-17" d="M486.49,274.56a5.55,5.55,0,1,1-5.54-5.89A5.72,5.72,0,0,1,486.49,274.56Zm-8.58,0a3.05,3.05,0,1,0,3-3.24A3.15,3.15,0,0,0,477.91,274.56Z" transform="translate(-6.37 -26.01)"/><path class="cls-17" d="M486.49,253.07a5.55,5.55,0,1,1-5.54-5.88A5.72,5.72,0,0,1,486.49,253.07Zm-8.58,0a3.05,3.05,0,1,0,3-3.23A3.15,3.15,0,0,0,477.91,253.07Z" transform="translate(-6.37 -26.01)"/><path class="cls-17" d="M486.49,231.59A5.55,5.55,0,1,1,481,225.7,5.72,5.72,0,0,1,486.49,231.59Zm-8.58,0a3.05,3.05,0,1,0,3-3.24A3.16,3.16,0,0,0,477.91,231.59Z" transform="translate(-6.37 -26.01)"/><path class="cls-14" d="M207,42.33a5.9,5.9,0,1,1-5.54,5.88A5.73,5.73,0,0,1,207,42.33Zm0,9.12A3.25,3.25,0,1,0,204,48.21,3.15,3.15,0,0,0,207,51.45Z" transform="translate(-6.37 -26.01)"/><path class="cls-14" d="M186.79,42.33a5.9,5.9,0,1,1-5.54,5.88A5.73,5.73,0,0,1,186.79,42.33Zm0,9.12a3.25,3.25,0,1,0-3-3.24A3.14,3.14,0,0,0,186.79,51.45Z" transform="translate(-6.37 -26.01)"/><path class="cls-14" d="M166.58,42.33A5.9,5.9,0,1,1,161,48.21,5.73,5.73,0,0,1,166.58,42.33Zm0,9.12a3.25,3.25,0,1,0-3.05-3.24A3.14,3.14,0,0,0,166.58,51.45Z" transform="translate(-6.37 -26.01)"/><path class="cls-14" d="M146.37,42.33a5.9,5.9,0,1,1-5.54,5.88A5.72,5.72,0,0,1,146.37,42.33Zm0,9.12a3.25,3.25,0,1,0-3.05-3.24A3.14,3.14,0,0,0,146.37,51.45Z" transform="translate(-6.37 -26.01)"/><path class="cls-17" d="M205.2,45.42a5.9,5.9,0,1,1-5.54,5.88A5.73,5.73,0,0,1,205.2,45.42Zm0,9.12a3.25,3.25,0,1,0-3-3.24A3.15,3.15,0,0,0,205.2,54.54Z" transform="translate(-6.37 -26.01)"/><path class="cls-17" d="M185,45.42a5.9,5.9,0,1,1-5.54,5.88A5.73,5.73,0,0,1,185,45.42Zm0,9.12a3.25,3.25,0,1,0-3.05-3.24A3.14,3.14,0,0,0,185,54.54Z" transform="translate(-6.37 -26.01)"/><path class="cls-17" d="M164.78,45.42a5.9,5.9,0,1,1-5.54,5.88A5.73,5.73,0,0,1,164.78,45.42Zm0,9.12a3.25,3.25,0,1,0-3.05-3.24A3.14,3.14,0,0,0,164.78,54.54Z" transform="translate(-6.37 -26.01)"/><path class="cls-17" d="M144.57,45.42A5.9,5.9,0,1,1,139,51.3,5.72,5.72,0,0,1,144.57,45.42Zm0,9.12a3.25,3.25,0,1,0-3-3.24A3.14,3.14,0,0,0,144.57,54.54Z" transform="translate(-6.37 -26.01)"/><path class="cls-18" d="M218,428a5.9,5.9,0,1,1-5.54,5.89A5.73,5.73,0,0,1,218,428Zm0,9.13a3.25,3.25,0,1,0-3.05-3.24A3.15,3.15,0,0,0,218,437.11Z" transform="translate(-6.37 -26.01)"/><path class="cls-18" d="M197.78,428a5.9,5.9,0,1,1-5.54,5.89A5.73,5.73,0,0,1,197.78,428Zm0,9.13a3.25,3.25,0,1,0-3.05-3.24A3.14,3.14,0,0,0,197.78,437.11Z" transform="translate(-6.37 -26.01)"/><path class="cls-18" d="M177.57,428a5.9,5.9,0,1,1-5.54,5.89A5.73,5.73,0,0,1,177.57,428Zm0,9.13a3.25,3.25,0,1,0-3-3.24A3.14,3.14,0,0,0,177.57,437.11Z" transform="translate(-6.37 -26.01)"/><path class="cls-18" d="M157.36,428a5.9,5.9,0,1,1-5.54,5.89A5.72,5.72,0,0,1,157.36,428Zm0,9.13a3.25,3.25,0,1,0-3.05-3.24A3.14,3.14,0,0,0,157.36,437.11Z" transform="translate(-6.37 -26.01)"/><path class="cls-17" d="M216.19,431.07a5.9,5.9,0,1,1-5.54,5.89A5.74,5.74,0,0,1,216.19,431.07Zm0,9.13a3.25,3.25,0,1,0-3.05-3.24A3.15,3.15,0,0,0,216.19,440.2Z" transform="translate(-6.37 -26.01)"/><path class="cls-17" d="M196,431.07a5.9,5.9,0,1,1-5.54,5.89A5.74,5.74,0,0,1,196,431.07Zm0,9.13a3.25,3.25,0,1,0-3-3.24A3.14,3.14,0,0,0,196,440.2Z" transform="translate(-6.37 -26.01)"/><path class="cls-17" d="M175.77,431.07a5.9,5.9,0,1,1-5.54,5.89A5.74,5.74,0,0,1,175.77,431.07Zm0,9.13a3.25,3.25,0,1,0-3.05-3.24A3.14,3.14,0,0,0,175.77,440.2Z" transform="translate(-6.37 -26.01)"/><path class="cls-17" d="M155.56,431.07A5.9,5.9,0,1,1,150,437,5.73,5.73,0,0,1,155.56,431.07Zm0,9.13a3.25,3.25,0,1,0-3.05-3.24A3.14,3.14,0,0,0,155.56,440.2Z" transform="translate(-6.37 -26.01)"/><line class="cls-19" x1="546.06" y1="172.78" x2="584.67" y2="127.19"/><line class="cls-19" x1="549.78" y1="176.34" x2="588.39" y2="130.75"/><path class="cls-19" d="M598.71,160.54" transform="translate(-6.37 -26.01)"/><line class="cls-20" x1="25.14" y1="201.33" x2="63.76" y2="155.74"/><line class="cls-20" x1="28.86" y1="204.89" x2="67.48" y2="159.3"/><line class="cls-20" x1="32.8" y1="208.66" x2="71.42" y2="163.08"/><line class="cls-21" x1="255.77" y1="371.75" x2="294.38" y2="326.16"/><line class="cls-21" x1="259.49" y1="375.31" x2="298.1" y2="329.73"/><line class="cls-21" x1="263.43" y1="379.09" x2="302.05" y2="333.5"/><polygon class="cls-5" points="237.2 94.34 295.98 19.85 354.76 94.34 237.2 94.34"/><polygon class="cls-22" points="208.13 81.98 266.91 7.49 325.69 81.98 208.13 81.98"/><polygon class="cls-6" points="264.88 109.06 323.67 34.56 382.45 109.06 264.88 109.06"/><polygon class="cls-15" points="447.38 152.21 438.3 137.78 443.35 134.19 449.26 143.59 460.93 136.41 468.43 148.32 480.11 141.14 489.21 155.57 484.16 159.16 478.23 149.75 466.55 156.94 459.05 145.03 447.38 152.21"/><polygon class="cls-15" points="24.73 388.96 27.3 371.82 33.3 372.83 31.62 384 44.77 387.17 42.66 401.32 55.81 404.5 53.26 421.66 47.26 420.65 48.93 409.46 35.77 406.29 37.88 392.13 24.73 388.96"/><polygon class="cls-17" points="29.32 385.93 31.89 368.79 37.88 369.8 36.21 380.97 49.36 384.13 47.24 398.29 60.4 401.47 57.85 418.63 51.85 417.62 53.51 406.43 40.35 403.25 42.47 389.09 29.32 385.93"/><polygon class="cls-15" points="159.79 130.02 155.2 113.36 161.03 111.55 164.02 122.4 177.18 119.27 180.97 133.02 194.14 129.9 198.75 146.56 192.92 148.38 189.92 137.51 176.75 140.64 172.95 126.89 159.79 130.02"/><polygon class="cls-17" points="162.71 125.19 158.12 108.53 163.95 106.71 166.94 117.56 180.1 114.43 183.89 128.19 197.06 125.07 201.67 141.73 195.84 143.55 192.84 132.68 179.67 135.81 175.87 122.05 162.71 125.19"/><polygon class="cls-15" points="522.84 94.21 515.91 100.02 510.45 92.65 506.06 96.32 511.53 103.69 504.6 109.5 508.05 114.16 514.98 108.35 520.44 115.72 524.83 112.05 519.37 104.68 526.3 98.87 522.84 94.21"/><polygon class="cls-17" points="525.13 90.9 518.19 96.7 512.73 89.34 508.35 93.01 513.81 100.38 506.88 106.19 510.33 110.85 517.26 105.04 522.73 112.41 527.11 108.73 521.65 101.37 528.58 95.56 525.13 90.9"/><polygon class="cls-18" points="395.68 324.55 386.32 319.29 391.27 309.35 385.35 306.02 380.4 315.96 371.05 310.7 367.92 316.99 377.27 322.25 372.32 332.2 378.24 335.52 383.19 325.58 392.54 330.84 395.68 324.55"/><polygon class="cls-15" points="392.19 323.76 382.83 318.5 387.79 308.55 381.87 305.22 376.92 315.17 367.56 309.9 364.43 316.19 373.79 321.46 368.84 331.4 374.75 334.73 379.7 324.79 389.06 330.05 392.19 323.76"/><polygon class="cls-23" points="112.51 344.28 100.36 345.75 98.99 332.83 91.3 333.76 92.68 346.68 80.53 348.14 81.4 356.31 93.55 354.84 94.93 367.76 102.61 366.83 101.24 353.92 113.39 352.45 112.51 344.28"/><polygon class="cls-15" points="116.83 342.45 104.68 343.91 103.3 331 95.62 331.92 97 344.84 84.85 346.31 85.72 354.47 97.87 353.01 99.25 365.93 106.93 365 105.55 352.08 117.7 350.62 116.83 342.45"/><polygon class="cls-23" points="255.61 145.59 258.37 176.01 281.77 158.26 255.61 145.59"/><polygon class="cls-15" points="259.14 145.15 261.9 175.57 285.3 157.82 259.14 145.15"/><polygon class="cls-15" points="586.08 312.51 560.4 326.24 584.42 343.01 586.08 312.51"/><polygon class="cls-17" points="587.74 315.85 562.07 329.58 586.09 346.35 587.74 315.85"/><polygon class="cls-14" points="119.33 271.83 102.27 279.72 117.23 291.49 119.33 271.83"/><polygon class="cls-15" points="120.3 274.05 103.23 281.94 118.19 293.71 120.3 274.05"/></g></svg>