<svg id="Layer_1" data-name="Layer 1" xmlns="http://www.w3.org/2000/svg" viewBox="0 0 170.27 60"><defs><style>.cls-1{fill:#00e2d9;}</style></defs><title>logo</title><g id="e89700d8-8f96-4652-a665-64b6c33e02cd"><path class="cls-1" d="M6.47,16c0,10.71,18.26,11,18.26,21.3,0,5.74-5.74,8.74-11.14,8.74-6.26,0-9.22-3.94-9.22-8.4a12.06,12.06,0,0,1,3.3-8c-3.3,0-7.67,1.8-7.67,8C0,45,6,48.43,12.56,48.43c7.37,0,15.64-4.5,15.64-12.77,0-12.26-17.91-12.09-17.91-21,0-5,5.61-13.2,13.2-13.2,2.57,0,3.34.94,3.34,2.57,0,3.47-3.56,9.21-3.56,12.6a2.33,2.33,0,0,0,2,2.57c1.88-3,4.58-8.83,4.58-13.2,0-3.43-1.58-6-6.3-6C13.16,0,6.47,9.34,6.47,16ZM44.66,34.67c0,3.69,1.54,10.8,6.13,10.8C55,45.47,59.7,39.9,61.46,34l-.6-.6C58.37,38.87,55.37,43.2,52,43.2c-3.22,0-4.5-6.43-4.72-7.76,2.36,0,8.53-1.84,8.53-7a5.35,5.35,0,0,0-5.31-5.36c-6,0-10.93,10.46-13.46,16.8,0-4.16,1.33-10.67,3.94-17.14,7.12-4.29,12.26-13,12.26-18.52,0-2.14-.77-3.9-1.84-3.9C47.1.34,33.17,26.87,33.17,39.43c0,2.74.09,5.61,2.1,5.61A2.43,2.43,0,0,0,37.33,44c.73-1.33,4.93-17.74,12-17.74a2.82,2.82,0,0,1,3,2.7C52.33,33,46.46,34.67,44.66,34.67ZM51,5.23c.13,0,.17.13.17.51,0,3.09-3.64,10.16-9.17,14.62C45.47,12.3,49.8,5.23,51,5.23Zm26.87,20c0-2.91-1.84-3.64-3.68-3.64-7.12,0-15.26,10.16-15.26,17.27,0,3.9,2.44,7,7.33,7,5.91,0,12.17-4.63,15.43-11.83L81,33.47C78,39.26,72.6,44.1,67.5,44.1c-3.73,0-4.71-2.57-4.71-5.06A10.09,10.09,0,0,1,63,36.9C69.86,36.26,77.87,31.37,77.87,25.24ZM74,23.44c1,0,1.29.52,1.29,1.42,0,5.14-7.67,9.38-12,10.88C64.93,30,70.16,23.44,74,23.44Zm24.09.6c-3,.3-6,.39-8.57.39H87.26c3.47-7.37,8-13.63,8-15.73A1.26,1.26,0,0,0,94,7.37c-2.49,0-7.12,8.23-10.46,16.89-1.16-.09-2.06-.22-2.66-.26v1.07a8.71,8.71,0,0,0,2.19.47C81,31,79.59,36.47,79.59,40c0,3.94,1.84,5.91,5.31,5.91,5.66,0,11.06-5.1,13.93-11.87l-.77-.6c-3.09,6.3-7.29,10.29-11.4,10.29-2.4,0-3.39-1.33-3.39-4.8,0-4.29,1.46-8.83,3.3-13.12h.9a102.27,102.27,0,0,0,10.59-.68Zm11.74-1.11c-6.13,0-13.11,7.93-13.11,15.94,0,5.19,2.87,7.67,6.68,7.67,5.83,0,12.13-5.27,14.92-12.51l-.82-.6c-2.57,6.64-8,10.84-12.68,10.84-3.43,0-4.42-2.53-4.42-5,0-5.87,5.62-14.7,9.86-14.7,1,0,1.33.56,1.33,1.5,0,1.8-1,4.16-2.23,4.76a2.31,2.31,0,0,0,1.76.9c1.84,0,3-2.06,3-4.42C114.09,25.24,113.1,22.93,109.8,22.93Zm21.43,17.91c0,2.19,1.37,3.82,4.16,3.82,4.58,0,9-4.59,11.48-10.46l-.77-.73c-2.4,5.23-6.64,9.6-9.34,9.6-1,0-1.8-.64-1.8-2.27,0-3,2.57-6.34,2.57-10.07,0-2.66-1.24-5.4-4.54-5.4-5.36,0-9.39,7.33-12.22,15.51,0-.51-.08-1.11-.08-2A34.17,34.17,0,0,1,122.87,27c7.12-4.24,13.8-17.27,13.8-22.84,0-1.63-.51-3.82-2-3.82-5.23,0-17.91,27.43-17.91,38.92,0,3.17.94,6.21,2.44,6.21,3.43,0,5.66-16.54,11.57-16.54,1.29,0,2.27.77,2.27,2.87C133.07,34.67,131.23,38.36,131.23,40.84ZM134.4,5.23c.17,0,.26.13.26.47,0,3-5.49,14.53-11,18.94C126.69,14.87,133.2,5.23,134.4,5.23Zm29.87,21.64A4.68,4.68,0,0,0,163,26.7c-2,0-2.83,1.93-3,3s-.39,1.89-.6,2.79c-2.4,3.94-5.7,7.67-8,7.67-1.58,0-2.14-.94-2.14-2.4,0-3.26,2.57-9.73,3.94-11.74,0-.73-2.14-1.42-2.61-1.42-1.76,0-5.27,8.66-5.27,13.12a4.59,4.59,0,0,0,4.8,4.84c3.21,0,6.17-3.43,8.74-7.63a93.88,93.88,0,0,1-3.34,11c-6.09,3.09-11.66,5.79-11.66,10.89,0,2.1,1.76,3.17,3.77,3.17,4.16,0,8.23-7,11.36-14.7,4.41-2.06,9.51-5.44,11.31-11.23l-.77-.6a17.76,17.76,0,0,1-9.9,10.2C162.43,36.43,164.27,28.84,164.27,26.87Zm-17,31.2a1.7,1.7,0,0,1-1.63-1.8c0-3.94,4.2-6.21,9.22-8.87C151.63,55.33,148.5,58.07,147.3,58.07Z" transform="translate(0 0)"/></g></svg>