<svg xmlns="http://www.w3.org/2000/svg" viewBox="0 0 750 504"><defs><style>.cls-1{fill:#fff;}.cls-2{fill:#8a2be2;}.cls-10,.cls-11,.cls-13,.cls-14,.cls-15,.cls-16,.cls-17,.cls-18,.cls-19,.cls-20,.cls-21,.cls-22,.cls-23,.cls-24,.cls-26,.cls-27,.cls-28,.cls-29,.cls-3,.cls-30,.cls-31,.cls-4,.cls-5,.cls-6,.cls-7,.cls-8,.cls-9{fill:none;}.cls-11,.cls-14,.cls-22,.cls-27,.cls-3,.cls-30,.cls-4,.cls-6,.cls-8,.cls-9{stroke:#59f8e0;}.cls-15,.cls-16,.cls-17,.cls-18,.cls-20,.cls-23,.cls-27,.cls-28,.cls-3{stroke-miterlimit:10;}.cls-15,.cls-19,.cls-3,.cls-4{stroke-width:3px;}.cls-10,.cls-11,.cls-13,.cls-14,.cls-19,.cls-21,.cls-22,.cls-24,.cls-26,.cls-29,.cls-30,.cls-4,.cls-5,.cls-6,.cls-7,.cls-8,.cls-9{stroke-linecap:round;stroke-linejoin:round;}.cls-13,.cls-15,.cls-16,.cls-17,.cls-18,.cls-19,.cls-20,.cls-21,.cls-23,.cls-24,.cls-26,.cls-28,.cls-29,.cls-5,.cls-7{stroke:#010101;}.cls-6{stroke-width:1.57px;}.cls-7{stroke-width:0.52px;}.cls-8{stroke-width:5.28px;}.cls-23,.cls-24,.cls-27,.cls-9{stroke-width:2px;}.cls-10{stroke:#000;}.cls-10,.cls-11{stroke-width:3.07px;}.cls-12{fill:#59f8e0;}.cls-13{stroke-width:1.41px;}.cls-14{stroke-width:9px;}.cls-16{stroke-width:2.3px;}.cls-17{stroke-width:1.38px;}.cls-18{stroke-width:1.77px;}.cls-21{stroke-width:6px;}.cls-22{stroke-width:4px;}.cls-25{fill:#010101;}.cls-26{stroke-width:1.03px;}.cls-28{stroke-width:1.36px;}.cls-29{stroke-width:5px;}</style></defs><title>sfondo2</title><g id="BACKGROUND"><rect class="cls-1" y="4" width="750" height="500"/></g><g id="OBJECTS"><rect class="cls-2" width="750" height="503"/><path class="cls-3" d="M1354.5,688" transform="translate(0 4)"/><line class="cls-4" x1="162.63" y1="286.1" x2="187.73" y2="261.59"/><line class="cls-5" x1="176.32" y1="286.1" x2="201.43" y2="261.59"/><line class="cls-4" x1="190.02" y1="286.1" x2="215.12" y2="261.59"/><line class="cls-4" x1="203.71" y1="286.1" x2="228.81" y2="261.59"/><line class="cls-4" x1="217.4" y1="286.1" x2="242.5" y2="261.59"/><line class="cls-5" x1="231.09" y1="286.1" x2="256.19" y2="261.59"/><line class="cls-6" x1="270.74" y1="182.16" x2="287.89" y2="165.41"/><line class="cls-7" x1="280.09" y1="182.16" x2="297.25" y2="165.41"/><line class="cls-6" x1="289.45" y1="182.16" x2="306.61" y2="165.41"/><line class="cls-6" x1="298.81" y1="182.16" x2="315.97" y2="165.41"/><line class="cls-6" x1="308.17" y1="182.16" x2="325.32" y2="165.41"/><line class="cls-7" x1="317.53" y1="182.16" x2="334.68" y2="165.41"/><line class="cls-8" x1="175.08" y1="224.42" x2="183.74" y2="232.88"/><line class="cls-8" x1="183.74" y1="224.42" x2="175.08" y2="232.88"/><line class="cls-4" x1="462.72" y1="279.31" x2="469.81" y2="286.24"/><line class="cls-4" x1="469.81" y1="279.31" x2="462.72" y2="286.24"/><line class="cls-4" x1="321.03" y1="102.06" x2="328.13" y2="108.99"/><line class="cls-4" x1="328.13" y1="102.06" x2="321.03" y2="108.99"/><line class="cls-9" x1="449.7" y1="101.39" x2="456.12" y2="107.66"/><line class="cls-9" x1="456.12" y1="101.39" x2="449.7" y2="107.66"/><line class="cls-10" x1="449.7" y1="115.95" x2="456.12" y2="122.22"/><line class="cls-10" x1="456.12" y1="115.95" x2="449.7" y2="122.22"/><line class="cls-11" x1="449.7" y1="130.51" x2="456.12" y2="136.78"/><line class="cls-11" x1="456.12" y1="130.51" x2="449.7" y2="136.78"/><line class="cls-11" x1="141.75" y1="80.04" x2="148.16" y2="86.3"/><line class="cls-11" x1="148.16" y1="80.04" x2="141.75" y2="86.3"/><line class="cls-10" x1="141.75" y1="94.6" x2="148.16" y2="100.86"/><line class="cls-10" x1="148.16" y1="94.6" x2="141.75" y2="100.86"/><line class="cls-11" x1="141.75" y1="109.16" x2="148.16" y2="115.42"/><line class="cls-11" x1="148.16" y1="109.16" x2="141.75" y2="115.42"/><ellipse class="cls-12" cx="407.49" cy="143.39" rx="3.69" ry="3.61"/><ellipse class="cls-12" cx="392.4" cy="158.12" rx="3.69" ry="3.61"/><path class="cls-12" d="M379.92,171.4a3.75,3.75,0,0,1-5.22,0,3.53,3.53,0,0,1,0-5.1,3.75,3.75,0,0,1,5.22,0A3.55,3.55,0,0,1,379.92,171.4Z" transform="translate(0 4)"/><path class="cls-12" d="M364.83,186.13a3.75,3.75,0,0,1-5.22,0,3.55,3.55,0,0,1,0-5.1,3.75,3.75,0,0,1,5.22,0A3.55,3.55,0,0,1,364.83,186.13Z" transform="translate(0 4)"/><ellipse class="cls-13" cx="411.74" cy="143.39" rx="3.69" ry="3.61"/><ellipse class="cls-13" cx="396.65" cy="158.12" rx="3.69" ry="3.61"/><path class="cls-13" d="M384.18,171.4a3.76,3.76,0,0,1-5.23,0,3.55,3.55,0,0,1,0-5.1,3.76,3.76,0,0,1,5.23,0A3.55,3.55,0,0,1,384.18,171.4Z" transform="translate(0 4)"/><ellipse class="cls-13" cx="366.48" cy="187.58" rx="3.69" ry="3.61"/><ellipse class="cls-14" cx="555.94" cy="313.61" rx="45.73" ry="44.64"/><ellipse class="cls-12" cx="368.6" cy="273.1" rx="26.29" ry="25.67"/><ellipse class="cls-15" cx="378.77" cy="283.03" rx="26.29" ry="25.67"/><ellipse class="cls-16" cx="378.77" cy="283.03" rx="11.96" ry="11.67"/><ellipse class="cls-12" cx="531.44" cy="159.21" rx="15.75" ry="15.38"/><ellipse class="cls-17" cx="537.53" cy="165.16" rx="15.75" ry="15.38"/><ellipse class="cls-17" cx="537.53" cy="165.16" rx="7.16" ry="6.99"/><path class="cls-18" d="M182.18,97.46c8.38,0,8.38,8,16.76,8s8.38-8,16.75-8,8.38,8,16.76,8,8.38-8,16.76-8,8.37,8,16.75,8,8.38-8,16.76-8,8.38,8,16.76,8" transform="translate(0 4)"/><path class="cls-19" d="M248.19,331.73c9.49,0,9.49,9.09,19,9.09s9.49-9.09,19-9.09,9.5,9.09,19,9.09,9.5-9.09,19-9.09" transform="translate(0 4)"/><path class="cls-4" d="M248.19,323.78c9.49,0,9.49,9.09,19,9.09s9.49-9.09,19-9.09,9.5,9.09,19,9.09,9.5-9.09,19-9.09" transform="translate(0 4)"/><path class="cls-19" d="M248.19,315.83c9.49,0,9.49,9.08,19,9.08s9.49-9.08,19-9.08,9.5,9.08,19,9.08,9.5-9.08,19-9.08" transform="translate(0 4)"/><path class="cls-15" d="M263.77,133c9.49,0,9.49,9.09,19,9.09s9.49-9.09,19-9.09,9.5,9.09,19,9.09,9.5-9.09,19-9.09" transform="translate(0 4)"/><path class="cls-3" d="M263.77,125.08c9.49,0,9.49,9.09,19,9.09s9.49-9.09,19-9.09,9.5,9.09,19,9.09,9.5-9.09,19-9.09" transform="translate(0 4)"/><path class="cls-20" d="M263.77,117.13c9.49,0,9.49,9.09,19,9.09s9.49-9.09,19-9.09,9.5,9.09,19,9.09,9.5-9.09,19-9.09" transform="translate(0 4)"/><path class="cls-9" d="M100.89,184.33c14.21,0,14.21,13.61,28.42,13.61s14.21-13.61,28.43-13.61,14.21,13.61,28.42,13.61,14.21-13.61,28.43-13.61" transform="translate(0 4)"/><path class="cls-21" d="M100.89,172.43c14.21,0,14.21,13.6,28.42,13.6s14.21-13.6,28.43-13.6S172,186,186.16,186s14.21-13.6,28.43-13.6" transform="translate(0 4)"/><path class="cls-22" d="M100.89,160.52c14.21,0,14.21,13.61,28.42,13.61s14.21-13.61,28.43-13.61,14.21,13.61,28.42,13.61,14.21-13.61,28.43-13.61" transform="translate(0 4)"/><path class="cls-15" d="M481,208.69c9.23,0,9.23,8.84,18.47,8.84s9.23-8.84,18.47-8.84,9.23,8.84,18.47,8.84,9.23-8.84,18.47-8.84,9.24,8.84,18.47,8.84,9.24-8.84,18.47-8.84,9.24,8.84,18.48,8.84" transform="translate(0 4)"/><path class="cls-3" d="M518.92,197.13c9.24,0,9.24,8.84,18.47,8.84s9.24-8.84,18.47-8.84S565.1,206,574.33,206s9.24-8.84,18.47-8.84S602,206,611.28,206s9.23-8.84,18.47-8.84S639,206,648.22,206" transform="translate(0 4)"/><path class="cls-23" d="M99.78,299.51c9.24,0,9.24,8.84,18.47,8.84s9.24-8.84,18.47-8.84,9.24,8.84,18.47,8.84,9.24-8.84,18.48-8.84,9.23,8.84,18.47,8.84,9.23-8.84,18.47-8.84,9.24,8.84,18.47,8.84" transform="translate(0 4)"/><path class="cls-24" d="M484.73,119.51a2.3,2.3,0,1,1-2.3-2.24A2.27,2.27,0,0,1,484.73,119.51Z" transform="translate(0 4)"/><path class="cls-4" d="M497.55,119.51a2.29,2.29,0,1,1-2.29-2.24A2.26,2.26,0,0,1,497.55,119.51Z" transform="translate(0 4)"/><path class="cls-24" d="M510.38,119.51a2.29,2.29,0,1,1-2.29-2.24A2.26,2.26,0,0,1,510.38,119.51Z" transform="translate(0 4)"/><path class="cls-5" d="M523.2,119.51a2.29,2.29,0,1,1-2.29-2.24A2.26,2.26,0,0,1,523.2,119.51Z" transform="translate(0 4)"/><path class="cls-24" d="M484.73,106.76a2.3,2.3,0,1,1-2.3-2.23A2.27,2.27,0,0,1,484.73,106.76Z" transform="translate(0 4)"/><path class="cls-5" d="M497.55,106.76a2.29,2.29,0,1,1-2.29-2.23A2.26,2.26,0,0,1,497.55,106.76Z" transform="translate(0 4)"/><path class="cls-24" d="M510.38,106.76a2.29,2.29,0,1,1-2.29-2.23A2.27,2.27,0,0,1,510.38,106.76Z" transform="translate(0 4)"/><ellipse class="cls-9" cx="520.91" cy="110.76" rx="2.29" ry="2.24"/><path class="cls-9" d="M484.73,94a2.3,2.3,0,1,1-2.3-2.24A2.27,2.27,0,0,1,484.73,94Z" transform="translate(0 4)"/><path class="cls-24" d="M497.55,94a2.29,2.29,0,1,1-2.29-2.24A2.26,2.26,0,0,1,497.55,94Z" transform="translate(0 4)"/><path class="cls-24" d="M510.38,94a2.29,2.29,0,1,1-2.29-2.24A2.26,2.26,0,0,1,510.38,94Z" transform="translate(0 4)"/><path class="cls-24" d="M523.2,94a2.29,2.29,0,1,1-2.29-2.24A2.26,2.26,0,0,1,523.2,94Z" transform="translate(0 4)"/><path class="cls-24" d="M484.73,81.27a2.3,2.3,0,1,1-2.3-2.23A2.27,2.27,0,0,1,484.73,81.27Z" transform="translate(0 4)"/><path class="cls-24" d="M497.55,81.27A2.29,2.29,0,1,1,495.26,79,2.26,2.26,0,0,1,497.55,81.27Z" transform="translate(0 4)"/><path class="cls-9" d="M510.38,81.27A2.29,2.29,0,1,1,508.09,79,2.27,2.27,0,0,1,510.38,81.27Z" transform="translate(0 4)"/><path class="cls-24" d="M523.2,81.27A2.29,2.29,0,1,1,520.91,79,2.26,2.26,0,0,1,523.2,81.27Z" transform="translate(0 4)"/><path class="cls-25" d="M332.38,231.51a1.74,1.74,0,1,1-1.74-1.7A1.72,1.72,0,0,1,332.38,231.51Z" transform="translate(0 4)"/><path class="cls-9" d="M342.11,231.51a1.74,1.74,0,1,1-1.74-1.7A1.72,1.72,0,0,1,342.11,231.51Z" transform="translate(0 4)"/><path class="cls-9" d="M322.65,221.84a1.74,1.74,0,1,1-1.74-1.69A1.72,1.72,0,0,1,322.65,221.84Z" transform="translate(0 4)"/><path class="cls-24" d="M332.38,221.84a1.74,1.74,0,1,1-1.74-1.69A1.72,1.72,0,0,1,332.38,221.84Z" transform="translate(0 4)"/><path class="cls-25" d="M342.11,221.84a1.74,1.74,0,1,1-1.74-1.69A1.72,1.72,0,0,1,342.11,221.84Z" transform="translate(0 4)"/><path class="cls-24" d="M351.84,221.84a1.74,1.74,0,1,1-1.74-1.69A1.72,1.72,0,0,1,351.84,221.84Z" transform="translate(0 4)"/><path class="cls-25" d="M332.38,212.17a1.74,1.74,0,1,1-1.74-1.69A1.72,1.72,0,0,1,332.38,212.17Z" transform="translate(0 4)"/><path class="cls-9" d="M342.11,212.17a1.74,1.74,0,1,1-1.74-1.69A1.72,1.72,0,0,1,342.11,212.17Z" transform="translate(0 4)"/><polygon class="cls-12" points="233.82 235.57 238.12 228.3 242.42 235.57 233.82 235.57"/><polygon class="cls-26" points="233.82 228.3 238.12 221.02 242.42 228.3 233.82 228.3"/><polygon class="cls-12" points="233.82 221.02 238.12 213.75 242.42 221.02 233.82 221.02"/><polygon class="cls-26" points="233.82 213.75 238.12 206.47 242.42 213.75 233.82 213.75"/><polygon class="cls-12" points="233.82 206.47 238.12 199.2 242.42 206.47 233.82 206.47"/><polygon class="cls-24" points="372.2 100.08 367.9 107.36 363.6 100.08 372.2 100.08"/><polygon class="cls-26" points="372.2 114.64 367.9 121.91 363.6 114.64 372.2 114.64"/><polygon class="cls-26" points="258.44 296.89 254.14 304.17 249.84 296.89 258.44 296.89"/><polygon class="cls-12" points="140.14 149.88 144.44 142.6 148.74 149.88 140.14 149.88"/><polygon class="cls-12" points="536.16 248.9 540.46 241.62 544.76 248.9 536.16 248.9"/><polygon class="cls-25" points="561.56 113.03 557.26 120.3 552.95 113.03 561.56 113.03"/><polygon class="cls-26" points="372.2 129.19 367.9 136.46 363.6 129.19 372.2 129.19"/><polygon class="cls-26" points="485.53 317.68 481.23 324.95 476.93 317.68 485.53 317.68"/><polygon class="cls-12" points="485.53 332.23 481.23 339.5 476.93 332.23 485.53 332.23"/><polygon class="cls-26" points="485.53 346.78 481.23 354.05 476.93 346.78 485.53 346.78"/><polygon class="cls-26" points="435.27 335.35 439.57 328.07 443.88 335.35 435.27 335.35"/><polygon class="cls-12" points="435.27 328.07 439.57 320.8 443.88 328.07 435.27 328.07"/><polygon class="cls-26" points="435.27 320.8 439.57 313.52 443.88 320.8 435.27 320.8"/><polygon class="cls-26" points="435.27 313.52 439.57 306.25 443.88 313.52 435.27 313.52"/><polygon class="cls-12" points="435.27 306.25 439.57 298.97 443.88 306.25 435.27 306.25"/><polygon class="cls-26" points="483.47 190.41 487.77 183.13 492.07 190.41 483.47 190.41"/><polygon class="cls-26" points="483.47 183.13 487.77 175.86 492.07 183.13 483.47 183.13"/><polygon class="cls-26" points="483.47 175.86 487.77 168.59 492.07 175.86 483.47 175.86"/><polygon class="cls-26" points="483.47 168.59 487.77 161.31 492.07 168.59 483.47 168.59"/><polygon class="cls-26" points="483.47 161.31 487.77 154.03 492.07 161.31 483.47 161.31"/><circle class="cls-25" cx="451.62" cy="221.31" r="1.92"/><circle class="cls-25" cx="445.26" cy="219.07" r="1.8"/><circle class="cls-25" cx="441.82" cy="213.3" r="1.5"/><path class="cls-25" d="M443,203.87a1.18,1.18,0,1,1,1.17-1.18A1.18,1.18,0,0,1,443,203.87Z" transform="translate(0 4)"/><circle class="cls-25" cx="448.26" cy="202.46" r="0.96"/><circle class="cls-25" cx="455" cy="202.47" r="0.96"/><path class="cls-25" d="M460.21,203.9a1.18,1.18,0,1,1,1.18-1.18A1.17,1.17,0,0,1,460.21,203.9Z" transform="translate(0 4)"/><circle class="cls-25" cx="461.4" cy="213.33" r="1.5"/><circle class="cls-25" cx="457.94" cy="219.09" r="1.8"/><circle class="cls-25" cx="374.51" cy="357.36" r="3"/><circle class="cls-25" cx="364.82" cy="353.95" r="2.82"/><circle class="cls-25" cx="359.57" cy="345.15" r="2.37"/><circle class="cls-25" cx="361.41" cy="335.07" r="1.83"/><circle class="cls-25" cx="369.38" cy="328.61" r="1.51"/><path class="cls-25" d="M379.65,326.12a1.51,1.51,0,1,1,1.51-1.51A1.5,1.5,0,0,1,379.65,326.12Z" transform="translate(0 4)"/><circle class="cls-25" cx="387.61" cy="335.09" r="1.83"/><circle class="cls-25" cx="389.44" cy="345.17" r="2.37"/><circle class="cls-25" cx="384.18" cy="349.96" r="2.82" transform="translate(-44.68 647.46) rotate(-76.72)"/><path class="cls-23" d="M148,352.62a2.37,2.37,0,1,1-2.36-2.31A2.34,2.34,0,0,1,148,352.62Z" transform="translate(0 4)"/><path class="cls-27" d="M156.41,344.42a2.37,2.37,0,1,1-2.36-2.31A2.33,2.33,0,0,1,156.41,344.42Z" transform="translate(0 4)"/><path class="cls-27" d="M164.8,336.23a2.37,2.37,0,1,1-2.36-2.31A2.33,2.33,0,0,1,164.8,336.23Z" transform="translate(0 4)"/><path class="cls-23" d="M173.2,328a2.37,2.37,0,1,1-2.37-2.31A2.34,2.34,0,0,1,173.2,328Z" transform="translate(0 4)"/><path class="cls-23" d="M495.53,256.87a2.37,2.37,0,1,1-2.37-2.31A2.34,2.34,0,0,1,495.53,256.87Z" transform="translate(0 4)"/><path class="cls-27" d="M503.92,248.67a2.37,2.37,0,1,1-2.36-2.3A2.33,2.33,0,0,1,503.92,248.67Z" transform="translate(0 4)"/><path class="cls-27" d="M512.31,240.48a2.37,2.37,0,1,1-2.36-2.31A2.33,2.33,0,0,1,512.31,240.48Z" transform="translate(0 4)"/><path class="cls-23" d="M520.7,232.29a2.37,2.37,0,1,1-2.36-2.31A2.33,2.33,0,0,1,520.7,232.29Z" transform="translate(0 4)"/><polygon class="cls-12" points="414.6 237.09 418.91 229.81 423.21 237.09 414.6 237.09"/><polygon class="cls-12" points="405.68 360.01 412.32 348.76 418.97 360.01 405.68 360.01"/><polygon class="cls-26" points="408.87 358.31 415.52 347.06 422.17 358.31 408.87 358.31"/><polygon class="cls-12" points="402.75 115.67 407.05 108.4 411.36 115.67 402.75 115.67"/><polygon class="cls-12" points="450 256.24 441.34 261.12 432.68 256.24 432.68 246.48 441.34 241.6 450 246.48 450 256.24"/><polygon class="cls-28" points="443.49 263.94 434.83 268.82 426.17 263.94 426.17 254.19 434.83 249.31 443.49 254.19 443.49 263.94"/><polygon class="cls-12" points="254.24 165.62 245.58 170.5 236.92 165.62 236.92 155.86 245.58 150.98 254.24 155.86 254.24 165.62"/><polygon class="cls-28" points="247.73 173.32 239.07 178.2 230.41 173.32 230.41 163.56 239.07 158.68 247.73 163.56 247.73 173.32"/><polygon class="cls-12" points="225.3 369.32 216.64 374.2 207.98 369.32 207.98 359.56 216.64 354.68 225.3 359.56 225.3 369.32"/><polygon class="cls-28" points="218.79 377.02 210.13 381.9 201.47 377.02 201.47 367.26 210.13 362.38 218.79 367.26 218.79 377.02"/><ellipse class="cls-15" cx="287.38" cy="216.39" rx="14.42" ry="14.08"/><ellipse class="cls-12" cx="287.38" cy="216.39" rx="4.74" ry="4.63"/><ellipse class="cls-23" cx="287.38" cy="216.39" rx="9.39" ry="9.16"/><ellipse class="cls-23" cx="123.34" cy="250.5" rx="14.42" ry="14.08"/><ellipse class="cls-27" cx="123.34" cy="250.5" rx="4.74" ry="4.63"/><ellipse class="cls-23" cx="123.34" cy="250.5" rx="9.39" ry="9.16"/><ellipse class="cls-23" cx="435.65" cy="168.02" rx="14.42" ry="14.08"/><ellipse class="cls-23" cx="435.65" cy="168.02" rx="4.74" ry="4.63"/><ellipse class="cls-23" cx="435.65" cy="168.02" rx="9.39" ry="9.16"/><ellipse class="cls-29" cx="555.94" cy="313.61" rx="25.37" ry="24.76"/><line class="cls-30" x1="286.16" y1="264.25" x2="277.18" y2="264.25"/><line class="cls-5" x1="291.56" y1="267.12" x2="271.79" y2="267.12"/><line class="cls-30" x1="294.26" y1="269.98" x2="269.09" y2="269.98"/><line class="cls-5" x1="295.88" y1="272.84" x2="267.47" y2="272.84"/><line class="cls-5" x1="296.77" y1="275.7" x2="266.58" y2="275.7"/><line class="cls-30" x1="297.06" y1="278.56" x2="266.28" y2="278.56"/><line class="cls-5" x1="296.79" y1="281.42" x2="266.55" y2="281.42"/><line class="cls-5" x1="295.93" y1="284.29" x2="267.41" y2="284.29"/><line class="cls-5" x1="294.35" y1="287.15" x2="269" y2="287.15"/><line class="cls-30" x1="291.72" y1="290.01" x2="271.63" y2="290.01"/><line class="cls-5" x1="286.58" y1="292.87" x2="276.76" y2="292.87"/><line class="cls-30" x1="398.52" y1="192.83" x2="389.54" y2="192.83"/><line class="cls-5" x1="403.92" y1="195.69" x2="384.15" y2="195.69"/><line class="cls-5" x1="406.62" y1="198.55" x2="381.45" y2="198.55"/><line class="cls-30" x1="408.24" y1="201.41" x2="379.83" y2="201.41"/><line class="cls-5" x1="409.13" y1="204.27" x2="378.94" y2="204.27"/><line class="cls-30" x1="409.42" y1="207.13" x2="378.65" y2="207.13"/><line class="cls-5" x1="409.16" y1="210" x2="378.91" y2="210"/><line class="cls-30" x1="408.29" y1="212.86" x2="379.77" y2="212.86"/><line class="cls-5" x1="406.71" y1="215.72" x2="381.36" y2="215.72"/><line class="cls-5" x1="404.08" y1="218.58" x2="383.99" y2="218.58"/><line class="cls-30" x1="398.94" y1="221.44" x2="389.12" y2="221.44"/><line class="cls-5" x1="190.25" y1="122.91" x2="181.27" y2="122.91"/><line class="cls-5" x1="195.65" y1="125.77" x2="175.88" y2="125.77"/><line class="cls-5" x1="198.35" y1="128.63" x2="173.18" y2="128.63"/><line class="cls-5" x1="199.97" y1="131.49" x2="171.56" y2="131.49"/><line class="cls-5" x1="200.86" y1="134.36" x2="170.67" y2="134.36"/><line class="cls-5" x1="201.15" y1="137.22" x2="170.38" y2="137.22"/><line class="cls-5" x1="200.89" y1="140.08" x2="170.64" y2="140.08"/><line class="cls-5" x1="200.02" y1="142.94" x2="171.5" y2="142.94"/><line class="cls-5" x1="198.44" y1="145.8" x2="173.09" y2="145.8"/><line class="cls-5" x1="195.81" y1="148.66" x2="175.72" y2="148.66"/><line class="cls-5" x1="190.67" y1="151.53" x2="180.85" y2="151.53"/><rect class="cls-31" x="121.4" y="90.35" width="435.51" height="283.45"/></g></svg>